<svg width="271" height="69" viewBox="0 0 271 69" fill="none" xmlns="http://www.w3.org/2000/svg">
<path d="M21.6666 17.8335H19.9999C14.9999 17.8335 13.3333 20.8168 13.3333 24.5002V26.1668V49.5002C13.3333 50.8835 14.8999 51.6668 15.9999 50.8335L18.8499 48.7002C19.5166 48.2002 20.4499 48.2668 21.0499 48.8668L23.8166 51.6502C24.4666 52.3002 25.5333 52.3002 26.1833 51.6502L28.9833 48.8502C29.5666 48.2668 30.4999 48.2002 31.1499 48.7002L33.9999 50.8335C35.0999 51.6502 36.6666 50.8668 36.6666 49.5002V21.1668C36.6666 19.3335 38.1666 17.8335 39.9999 17.8335H21.6666ZM28.7499 37.4168H21.2499C20.5666 37.4168 19.9999 36.8502 19.9999 36.1668C19.9999 35.4835 20.5666 34.9168 21.2499 34.9168H28.7499C29.4333 34.9168 29.9999 35.4835 29.9999 36.1668C29.9999 36.8502 29.4333 37.4168 28.7499 37.4168ZM29.9999 30.7502H19.9999C19.3166 30.7502 18.7499 30.1835 18.7499 29.5002C18.7499 28.8168 19.3166 28.2502 19.9999 28.2502H29.9999C30.6833 28.2502 31.2499 28.8168 31.2499 29.5002C31.2499 30.1835 30.6833 30.7502 29.9999 30.7502Z" fill="#E6E8FE"/>
<path d="M40.0167 17.8335V20.3335C41.1167 20.3335 42.1667 20.7835 42.9334 21.5335C43.7334 22.3502 44.1667 23.4002 44.1667 24.5002V28.5335C44.1667 29.7668 43.6167 30.3335 42.3667 30.3335H39.1667V21.1835C39.1667 20.7168 39.5501 20.3335 40.0167 20.3335V17.8335ZM40.0167 17.8335C38.1667 17.8335 36.6667 19.3335 36.6667 21.1835V32.8335H42.3667C45.0001 32.8335 46.6667 31.1668 46.6667 28.5335V24.5002C46.6667 22.6668 45.9167 21.0002 44.7167 19.7835C43.5001 18.5835 41.8501 17.8502 40.0167 17.8335C40.0334 17.8335 40.0167 17.8335 40.0167 17.8335Z" fill="#E6E8FE"/>
<path d="M72.0645 36.3125C71.8652 36.3125 71.6836 36.3184 71.5195 36.3301C71.3555 36.3418 71.1973 36.3477 71.0449 36.3477V46.1738H71.8711C72.9961 46.1738 74.0742 46.0977 75.1055 45.9453C76.1367 45.7812 77.0449 45.5059 77.8301 45.1191C78.627 44.7324 79.2598 44.2168 79.7285 43.5723C80.209 42.9277 80.4492 42.1133 80.4492 41.1289C80.4492 40.4141 80.3086 39.7988 80.0273 39.2832C79.7578 38.7676 79.3945 38.334 78.9375 37.9824C78.4805 37.6191 77.9531 37.332 77.3555 37.1211C76.7695 36.8984 76.166 36.7285 75.5449 36.6113C74.9238 36.4941 74.3086 36.418 73.6992 36.3828C73.1016 36.3359 72.5566 36.3125 72.0645 36.3125ZM82.9629 28.6484C82.9629 27.8164 82.7637 27.084 82.3652 26.4512C81.9785 25.8184 81.4629 25.2734 80.8184 24.8164C80.1738 24.3594 79.4355 23.9844 78.6035 23.6914C77.7715 23.3867 76.9102 23.1523 76.0195 22.9883C75.1406 22.8125 74.2676 22.7012 73.4004 22.6543C72.5332 22.6074 71.748 22.6016 71.0449 22.6367V34.4316C71.6777 34.4316 72.4102 34.4316 73.2422 34.4316C74.0742 34.4316 74.9297 34.3848 75.8086 34.291C76.6992 34.1973 77.5723 34.0449 78.4277 33.834C79.2832 33.623 80.0449 33.3008 80.7129 32.8672C81.3809 32.4336 81.9199 31.877 82.3301 31.1973C82.752 30.5176 82.9629 29.668 82.9629 28.6484ZM84.8086 28.6484C84.8086 29.5859 84.6445 30.4473 84.3164 31.2324C84 32.0059 83.5605 32.6914 82.998 33.2891C82.4355 33.875 81.7676 34.3613 80.9941 34.748C80.2207 35.1348 79.377 35.4043 78.4629 35.5566C79.0488 35.7676 79.5762 36.0547 80.0449 36.418C80.5254 36.7812 80.9297 37.2031 81.2578 37.6836C81.5977 38.1523 81.8555 38.6797 82.0312 39.2656C82.2188 39.8398 82.3125 40.4609 82.3125 41.1289C82.3125 42.0312 82.1836 42.8223 81.9258 43.502C81.668 44.1699 81.2988 44.7559 80.8184 45.2598C80.3496 45.752 79.7871 46.168 79.1309 46.5078C78.4746 46.8359 77.7539 47.0996 76.9688 47.2988C76.1836 47.5098 75.3398 47.668 74.4375 47.7734C73.5469 47.8906 72.6211 47.9668 71.6602 48.002C70.0898 48.0137 68.7422 47.9492 67.6172 47.8086C66.4922 47.6797 65.5605 47.5332 64.8223 47.3691C64.0957 47.2051 63.5508 47.0527 63.1875 46.9121C62.8242 46.7598 62.625 46.6719 62.5898 46.6484C62.25 46.4844 62.0801 46.2031 62.0801 45.8047C62.0801 45.5586 62.1797 45.3477 62.3789 45.1719C62.5898 44.9961 62.8066 44.9082 63.0293 44.9082C63.0996 44.9082 63.1641 44.9141 63.2227 44.9258C63.293 44.9375 63.3574 44.9551 63.416 44.9785C63.4395 45.002 63.5859 45.0664 63.8555 45.1719C64.125 45.2773 64.5293 45.3945 65.0684 45.5234C65.0566 44.8438 65.0449 43.959 65.0332 42.8691C65.0215 41.7793 65.0039 40.5723 64.9805 39.248C64.9688 37.9121 64.9512 36.5117 64.9277 35.0469C64.916 33.5703 64.9043 32.1172 64.8926 30.6875C64.8809 29.2578 64.8691 27.8926 64.8574 26.5918C64.8457 25.291 64.8457 24.1484 64.8574 23.1641C64.5645 23.2227 64.2832 23.2871 64.0137 23.3574C63.7559 23.4277 63.5098 23.498 63.2754 23.5684C63.2168 23.5684 63.1699 23.5742 63.1348 23.5859C63.0996 23.5977 63.0645 23.6035 63.0293 23.6035C62.7598 23.6035 62.5312 23.5098 62.3438 23.3223C62.168 23.123 62.0801 22.9062 62.0801 22.6719C62.0801 22.4727 62.1387 22.291 62.2559 22.127C62.373 21.9629 62.5312 21.8398 62.7305 21.7578C63.7266 21.4766 64.916 21.248 66.2988 21.0723C67.6934 20.8848 69.1934 20.791 70.7988 20.791C71.7246 20.791 72.709 20.832 73.752 20.9141C74.8066 20.9961 75.8496 21.1484 76.8809 21.3711C77.9238 21.582 78.9199 21.875 79.8691 22.25C80.8301 22.625 81.6738 23.1055 82.4004 23.6914C83.1387 24.2656 83.7246 24.9629 84.1582 25.7832C84.5918 26.5918 84.8086 27.5469 84.8086 28.6484ZM98.9062 47.4395C98.8828 47.4395 98.8535 47.4336 98.8184 47.4219C98.7949 47.4102 98.7656 47.4043 98.7305 47.4043C97.7812 47.2168 96.8789 47.082 96.0234 47C95.168 46.9062 94.3184 46.8594 93.4746 46.8594C92.6191 46.8594 91.7695 46.9062 90.9258 47C90.082 47.082 89.1914 47.2168 88.2539 47.4043C88.2188 47.4043 88.1895 47.4102 88.166 47.4219C88.1426 47.4336 88.1133 47.4395 88.0781 47.4395C87.8086 47.4395 87.5859 47.3398 87.4102 47.1406C87.2461 46.9414 87.1641 46.7246 87.1641 46.4902C87.1641 46.2793 87.2285 46.0859 87.3574 45.9102C87.498 45.7344 87.6738 45.6289 87.8848 45.5938C88.2949 45.5 88.7051 45.4297 89.1152 45.3828C89.5371 45.3242 89.9473 45.2656 90.3457 45.207V31.7422C89.6074 31.707 88.9863 31.6602 88.4824 31.6016C87.9785 31.543 87.6973 31.5137 87.6387 31.5137C87.4043 31.4785 87.2109 31.373 87.0586 31.1973C86.918 31.0215 86.8477 30.8164 86.8477 30.582C86.8477 30.2891 86.9531 30.0664 87.1641 29.9141C87.375 29.7617 87.5801 29.6855 87.7793 29.6855H87.8848C87.8965 29.6855 88.0312 29.7031 88.2891 29.7383C88.5469 29.7617 88.8809 29.791 89.291 29.8262C89.7129 29.8613 90.1875 29.8965 90.7148 29.9316C91.2422 29.9551 91.7871 29.9668 92.3496 29.9668C92.9121 29.9668 93.4629 29.9492 94.002 29.9141C94.541 29.8672 95.0332 29.791 95.4785 29.6855H95.6719C95.9414 29.6855 96.1641 29.7793 96.3398 29.9668C96.5156 30.1426 96.6035 30.3477 96.6035 30.582L96.5684 45.207C96.9785 45.2656 97.3887 45.3242 97.7988 45.3828C98.2207 45.4297 98.6484 45.5 99.082 45.5938C99.3047 45.6289 99.4863 45.7344 99.627 45.9102C99.7676 46.0859 99.8379 46.2793 99.8379 46.4902C99.8379 46.7598 99.7383 46.9824 99.5391 47.1582C99.3398 47.3457 99.1289 47.4395 98.9062 47.4395ZM96.3574 24.3242C96.3574 24.7578 96.2754 25.168 96.1113 25.5547C95.9473 25.9297 95.7188 26.2578 95.4258 26.5391C95.1445 26.8203 94.8105 27.043 94.4238 27.207C94.0488 27.3711 93.6445 27.4531 93.2109 27.4531C92.7773 27.4531 92.3672 27.3711 91.9805 27.207C91.6055 27.043 91.2773 26.8203 90.9961 26.5391C90.7148 26.2578 90.4922 25.9297 90.3281 25.5547C90.1641 25.168 90.082 24.7578 90.082 24.3242C90.082 23.8906 90.1641 23.4863 90.3281 23.1113C90.4922 22.7246 90.7148 22.3906 90.9961 22.1094C91.2773 21.8281 91.6055 21.6055 91.9805 21.4414C92.3672 21.2773 92.7773 21.1953 93.2109 21.1953C93.6445 21.1953 94.0488 21.2773 94.4238 21.4414C94.8105 21.6055 95.1445 21.8281 95.4258 22.1094C95.7188 22.3906 95.9473 22.7246 96.1113 23.1113C96.2754 23.4863 96.3574 23.8906 96.3574 24.3242ZM111.422 47.2461H111.246C110.777 47.1641 110.35 47.0938 109.963 47.0352C109.576 46.9766 109.207 46.9355 108.855 46.9121C108.504 46.877 108.146 46.8535 107.783 46.8418C107.432 46.8301 107.051 46.8242 106.641 46.8242C105.809 46.8242 105 46.8594 104.215 46.9297C103.43 46.9883 102.568 47.1055 101.631 47.2812H101.455C101.162 47.2812 100.939 47.1875 100.787 47C100.635 46.8242 100.559 46.6074 100.559 46.3496C100.559 46.1387 100.623 45.9512 100.752 45.7871C100.881 45.623 101.057 45.5117 101.279 45.4531C101.713 45.3828 102.105 45.3301 102.457 45.2949C102.809 45.248 103.184 45.207 103.582 45.1719V23.709C102.844 23.6504 102.311 23.5977 101.982 23.5508C101.666 23.4922 101.479 23.4629 101.42 23.4629C101.186 23.4277 100.992 23.3223 100.84 23.1465C100.699 22.9707 100.629 22.7715 100.629 22.5488C100.629 22.2441 100.734 22.0156 100.945 21.8633C101.156 21.6992 101.361 21.6172 101.561 21.6172H101.666C101.678 21.6172 101.783 21.6348 101.982 21.6699C102.182 21.6934 102.451 21.7285 102.791 21.7754C103.143 21.8105 103.553 21.8457 104.021 21.8809C104.502 21.9043 105.023 21.916 105.586 21.916C106.148 21.916 106.699 21.8984 107.238 21.8633C107.777 21.8164 108.27 21.7461 108.715 21.6523C108.75 21.6289 108.814 21.6172 108.908 21.6172C109.178 21.6172 109.4 21.7168 109.576 21.916C109.752 22.1035 109.84 22.3145 109.84 22.5488L109.805 45.1719C110.004 45.1953 110.168 45.2188 110.297 45.2422C110.438 45.2539 110.566 45.2715 110.684 45.2949C110.812 45.3066 110.941 45.3242 111.07 45.3477C111.211 45.3594 111.387 45.3828 111.598 45.418C111.82 45.4766 112.002 45.5879 112.143 45.752C112.283 45.916 112.354 46.1035 112.354 46.3145C112.354 46.584 112.254 46.8066 112.055 46.9824C111.867 47.1582 111.656 47.2461 111.422 47.2461ZM124.359 47.2461H124.184C123.715 47.1641 123.287 47.0938 122.9 47.0352C122.514 46.9766 122.145 46.9355 121.793 46.9121C121.441 46.877 121.084 46.8535 120.721 46.8418C120.369 46.8301 119.988 46.8242 119.578 46.8242C118.746 46.8242 117.938 46.8594 117.152 46.9297C116.367 46.9883 115.506 47.1055 114.568 47.2812H114.393C114.1 47.2812 113.877 47.1875 113.725 47C113.572 46.8242 113.496 46.6074 113.496 46.3496C113.496 46.1387 113.561 45.9512 113.689 45.7871C113.818 45.623 113.994 45.5117 114.217 45.4531C114.65 45.3828 115.043 45.3301 115.395 45.2949C115.746 45.248 116.121 45.207 116.52 45.1719V23.709C115.781 23.6504 115.248 23.5977 114.92 23.5508C114.604 23.4922 114.416 23.4629 114.357 23.4629C114.123 23.4277 113.93 23.3223 113.777 23.1465C113.637 22.9707 113.566 22.7715 113.566 22.5488C113.566 22.2441 113.672 22.0156 113.883 21.8633C114.094 21.6992 114.299 21.6172 114.498 21.6172H114.604C114.615 21.6172 114.721 21.6348 114.92 21.6699C115.119 21.6934 115.389 21.7285 115.729 21.7754C116.08 21.8105 116.49 21.8457 116.959 21.8809C117.439 21.9043 117.961 21.916 118.523 21.916C119.086 21.916 119.637 21.8984 120.176 21.8633C120.715 21.8164 121.207 21.7461 121.652 21.6523C121.688 21.6289 121.752 21.6172 121.846 21.6172C122.115 21.6172 122.338 21.7168 122.514 21.916C122.689 22.1035 122.777 22.3145 122.777 22.5488L122.742 45.1719C122.941 45.1953 123.105 45.2188 123.234 45.2422C123.375 45.2539 123.504 45.2715 123.621 45.2949C123.75 45.3066 123.879 45.3242 124.008 45.3477C124.148 45.3594 124.324 45.3828 124.535 45.418C124.758 45.4766 124.939 45.5879 125.08 45.752C125.221 45.916 125.291 46.1035 125.291 46.3145C125.291 46.584 125.191 46.8066 124.992 46.9824C124.805 47.1582 124.594 47.2461 124.359 47.2461ZM149.18 28.4199C149.18 28.4551 149.186 28.502 149.197 28.5605C149.209 28.6074 149.215 28.6602 149.215 28.7188C149.215 28.9648 149.115 29.1816 148.916 29.3691C148.729 29.5566 148.518 29.6504 148.283 29.6504C148.096 29.6504 147.92 29.5918 147.756 29.4746C147.604 29.3574 147.492 29.1992 147.422 29C147.27 28.5547 147.123 28.0801 146.982 27.5762C146.842 27.0605 146.713 26.5566 146.596 26.0645C146.49 25.5723 146.391 25.1094 146.297 24.6758C146.203 24.2422 146.133 23.873 146.086 23.5684C145.418 23.6035 144.656 23.6328 143.801 23.6562C142.945 23.668 142.025 23.6738 141.041 23.6738L140.461 45.3828C141.422 45.418 142.348 45.4883 143.238 45.5938C143.496 45.6172 143.695 45.7168 143.836 45.8926C143.988 46.0566 144.064 46.2559 144.064 46.4902C144.064 46.7832 143.965 47.0117 143.766 47.1758C143.578 47.3516 143.379 47.4395 143.168 47.4395H143.062C142.113 47.3223 141.176 47.2402 140.25 47.1934C139.324 47.1582 138.398 47.1406 137.473 47.1406C136.535 47.1406 135.615 47.1582 134.713 47.1934C133.811 47.2402 132.908 47.3223 132.006 47.4395H131.9C131.643 47.4395 131.42 47.3398 131.232 47.1406C131.057 46.9414 130.969 46.7246 130.969 46.4902C130.969 46.2559 131.045 46.0566 131.197 45.8926C131.361 45.7168 131.561 45.6172 131.795 45.5938C132.697 45.4883 133.582 45.418 134.449 45.3828L134.854 23.5684C133.857 23.5332 132.92 23.4922 132.041 23.4453C131.174 23.3867 130.395 23.3281 129.703 23.2695C129.633 23.5859 129.545 23.9727 129.439 24.4297C129.346 24.8867 129.234 25.373 129.105 25.8887C128.988 26.4043 128.865 26.9316 128.736 27.4707C128.607 27.998 128.473 28.4961 128.332 28.9648C128.273 29.1641 128.162 29.3281 127.998 29.457C127.846 29.5859 127.67 29.6504 127.471 29.6504C127.201 29.6504 126.979 29.5566 126.803 29.3691C126.627 29.1699 126.539 28.9531 126.539 28.7188C126.539 28.6836 126.539 28.6426 126.539 28.5957C126.539 28.5371 126.551 28.4902 126.574 28.4551C126.75 27.834 126.926 27.1543 127.102 26.416C127.277 25.6777 127.436 24.9863 127.576 24.3418C127.729 23.6973 127.852 23.1582 127.945 22.7246C128.039 22.291 128.086 22.0684 128.086 22.0566C128.145 21.834 128.25 21.6582 128.402 21.5293C128.566 21.4004 128.76 21.3359 128.982 21.3359H129.123C129.732 21.418 130.471 21.4883 131.338 21.5469C132.217 21.6055 133.16 21.6582 134.168 21.7051C135.188 21.7402 136.242 21.7695 137.332 21.793C138.422 21.8164 139.488 21.8281 140.531 21.8281C141.809 21.8281 142.986 21.8164 144.064 21.793C145.143 21.7578 146.045 21.7109 146.771 21.6523H146.842C147.053 21.6523 147.246 21.7285 147.422 21.8809C147.598 22.0215 147.703 22.1973 147.738 22.4082C147.738 22.4199 147.756 22.5195 147.791 22.707C147.826 22.8945 147.873 23.1465 147.932 23.4629C147.99 23.7793 148.061 24.1426 148.143 24.5527C148.236 24.9629 148.336 25.3906 148.441 25.8359C148.547 26.2695 148.658 26.7148 148.775 27.1719C148.904 27.6172 149.039 28.0332 149.18 28.4199ZM167.074 38.2812C166.641 38.2812 166.23 38.1992 165.844 38.0352C165.469 37.8711 165.141 37.6484 164.859 37.3672C164.578 37.0859 164.355 36.7578 164.191 36.3828C164.027 35.9961 163.945 35.5859 163.945 35.1523C163.945 34.7188 164.027 34.3145 164.191 33.9395C164.355 33.5527 164.578 33.2188 164.859 32.9375C165.141 32.6445 165.469 32.416 165.844 32.252C166.23 32.0762 166.641 31.9883 167.074 31.9883C167.133 31.9883 167.186 31.9941 167.232 32.0059C167.291 32.0176 167.35 32.0234 167.408 32.0234C167.104 31.7891 166.746 31.6133 166.336 31.4961C165.938 31.3672 165.475 31.3027 164.947 31.3027C164.279 31.3027 163.699 31.4434 163.207 31.7246C162.715 31.9941 162.293 32.3398 161.941 32.7617C161.602 33.1719 161.326 33.623 161.115 34.1152C160.904 34.5957 160.734 35.0527 160.605 35.4863C160.488 35.9082 160.406 36.2715 160.359 36.5762C160.324 36.8809 160.307 37.0566 160.307 37.1035L160.271 44.9082C160.682 44.9434 161.092 44.9961 161.502 45.0664C161.924 45.1367 162.352 45.207 162.785 45.2773C163.008 45.3359 163.189 45.4531 163.33 45.6289C163.471 45.793 163.541 45.9863 163.541 46.209C163.541 46.4668 163.441 46.6836 163.242 46.8594C163.043 47.0234 162.832 47.1055 162.609 47.1055H162.434C161.484 46.9297 160.582 46.7949 159.727 46.7012C158.871 46.6074 158.021 46.5605 157.178 46.5605C156.334 46.5605 155.49 46.6074 154.646 46.7012C153.803 46.7949 152.906 46.9297 151.957 47.1055H151.781C151.512 47.1055 151.295 47.0176 151.131 46.8418C150.967 46.6543 150.885 46.4434 150.885 46.209C150.885 45.9863 150.949 45.793 151.078 45.6289C151.207 45.4531 151.383 45.3359 151.605 45.2773C152.016 45.207 152.426 45.1367 152.836 45.0664C153.246 44.9961 153.65 44.9434 154.049 44.9082V31.8125C153.311 31.7773 152.689 31.7305 152.186 31.6719C151.682 31.6133 151.4 31.5723 151.342 31.5488C151.107 31.5254 150.914 31.4316 150.762 31.2676C150.621 31.0918 150.551 30.8867 150.551 30.6523C150.551 30.3594 150.65 30.1309 150.85 29.9668C151.061 29.8027 151.271 29.7207 151.482 29.7207H151.605C151.617 29.7324 151.752 29.7559 152.01 29.791C152.268 29.8145 152.602 29.8438 153.012 29.8789C153.422 29.9141 153.891 29.9434 154.418 29.9668C154.957 29.9902 155.502 30.002 156.053 30.002C156.615 30.002 157.166 29.9844 157.705 29.9492C158.244 29.9141 158.742 29.8496 159.199 29.7559C159.223 29.7324 159.281 29.7207 159.375 29.7207C159.645 29.7207 159.867 29.8203 160.043 30.0195C160.219 30.207 160.307 30.418 160.307 30.6523V31.918C160.811 31.2148 161.443 30.6348 162.205 30.1777C162.979 29.709 163.893 29.4746 164.947 29.4746C165.744 29.498 166.471 29.6387 167.127 29.8965C167.783 30.1426 168.346 30.4883 168.814 30.9336C169.295 31.3672 169.664 31.8945 169.922 32.5156C170.191 33.125 170.326 33.8105 170.326 34.5723C170.326 35.0527 170.25 35.5156 170.098 35.9609C169.945 36.4062 169.729 36.8047 169.447 37.1562C169.166 37.4961 168.82 37.7715 168.41 37.9824C168.012 38.1816 167.566 38.2812 167.074 38.2812ZM184.389 40.8477C184.365 40.6484 184.348 40.4434 184.336 40.2324C184.324 40.0215 184.318 39.8047 184.318 39.582H183.668C183.199 39.582 182.643 39.6172 181.998 39.6875C181.365 39.7578 180.709 39.8691 180.029 40.0215C179.35 40.1738 178.676 40.3789 178.008 40.6367C177.34 40.8828 176.742 41.1875 176.215 41.5508C175.688 41.9023 175.26 42.3184 174.932 42.7988C174.615 43.2793 174.457 43.8301 174.457 44.4512C174.457 44.7793 174.533 45.0605 174.686 45.2949C174.85 45.5293 175.049 45.7227 175.283 45.875C175.529 46.0156 175.799 46.1211 176.092 46.1914C176.385 46.25 176.666 46.2793 176.936 46.2793C177.768 46.2793 178.553 46.1211 179.291 45.8047C180.041 45.4766 180.732 45.0547 181.365 44.5391C181.998 44.0117 182.566 43.4258 183.07 42.7812C183.574 42.1367 184.014 41.4922 184.389 40.8477ZM192.809 46.9297H192.738C192.539 46.9062 192.334 46.8945 192.123 46.8945C191.912 46.8945 191.707 46.8945 191.508 46.8945C190.406 46.8945 189.346 46.9648 188.326 47.1055C187.318 47.2461 186.305 47.4629 185.285 47.7559C185.25 47.7559 185.215 47.7617 185.18 47.7734C185.145 47.7852 185.098 47.791 185.039 47.791C184.77 47.791 184.547 47.6855 184.371 47.4746C184.207 47.2754 184.125 47.0703 184.125 46.8594V46.7188C184.125 46.6953 184.154 46.4609 184.213 46.0156C184.271 45.5586 184.33 44.9258 184.389 44.1172C183.885 44.6797 183.346 45.207 182.771 45.6992C182.209 46.1797 181.611 46.6016 180.979 46.9648C180.357 47.3164 179.713 47.5918 179.045 47.791C178.377 48.002 177.686 48.1074 176.971 48.1074C176.408 48.1074 175.863 48.0195 175.336 47.8438C174.809 47.6797 174.34 47.4395 173.93 47.123C173.531 46.8066 173.209 46.4258 172.963 45.9805C172.729 45.5234 172.611 45.0137 172.611 44.4512C172.611 43.5723 172.799 42.7988 173.174 42.1309C173.561 41.4629 174.064 40.8828 174.686 40.3906C175.307 39.8867 176.01 39.4707 176.795 39.1426C177.592 38.8027 178.4 38.5332 179.221 38.334C180.041 38.123 180.838 37.9766 181.611 37.8945C182.385 37.8008 183.07 37.7539 183.668 37.7539H184.09C184.09 37.0391 183.961 36.3418 183.703 35.6621C183.457 34.9824 183.105 34.3789 182.648 33.8516C182.203 33.3242 181.67 32.9023 181.049 32.5859C180.428 32.2578 179.742 32.0938 178.992 32.0938C178.441 32.0938 177.902 32.252 177.375 32.5684C176.848 32.873 176.379 33.2656 175.969 33.7461C175.559 34.2266 175.225 34.7656 174.967 35.3633C174.721 35.9609 174.598 36.541 174.598 37.1035C174.598 37.3379 174.498 37.5371 174.299 37.7012C174.111 37.8535 173.9 37.9297 173.666 37.9297C173.408 37.9297 173.186 37.8359 172.998 37.6484C172.811 37.4492 172.717 37.2324 172.717 36.998C172.717 36.4355 172.816 35.8496 173.016 35.2402C173.215 34.6191 173.502 34.0156 173.877 33.4297C174.264 32.832 174.727 32.2695 175.266 31.7422C175.816 31.2148 176.438 30.752 177.129 30.3535C177.832 29.9434 178.6 29.6211 179.432 29.3867C180.264 29.1523 181.148 29.0352 182.086 29.0352C183.398 29.0352 184.518 29.2402 185.443 29.6504C186.381 30.0605 187.16 30.6172 187.781 31.3203C188.414 32.0234 188.912 32.8379 189.275 33.7637C189.639 34.6895 189.914 35.668 190.102 36.6992C190.289 37.7305 190.406 38.7793 190.453 39.8457C190.512 40.9121 190.541 41.9316 190.541 42.9043C190.541 43.3965 190.535 43.8184 190.523 44.1699C190.512 44.5215 190.506 44.8145 190.506 45.0488C190.682 45.0488 190.857 45.043 191.033 45.0312C191.221 45.0195 191.402 45.0137 191.578 45.0137C191.777 45.0137 191.982 45.0195 192.193 45.0312C192.416 45.043 192.633 45.0488 192.844 45.0488C193.102 45.0723 193.307 45.1719 193.459 45.3477C193.623 45.5234 193.705 45.7402 193.705 45.998C193.705 46.2441 193.617 46.4609 193.441 46.6484C193.277 46.8359 193.066 46.9297 192.809 46.9297ZM211.547 35.3281C211.512 35.5625 211.4 35.7559 211.213 35.9082C211.037 36.0605 210.832 36.1367 210.598 36.1367C210.363 36.1367 210.158 36.0547 209.982 35.8906C209.818 35.7266 209.725 35.5156 209.701 35.2578C209.701 34.7539 209.596 34.2266 209.385 33.6758C209.174 33.125 208.887 32.6211 208.523 32.1641C208.16 31.707 207.744 31.332 207.275 31.0391C206.807 30.7344 206.309 30.582 205.781 30.582C205.125 30.582 204.545 30.7227 204.041 31.0039C203.537 31.2734 203.098 31.6367 202.723 32.0938C202.348 32.5508 202.037 33.0723 201.791 33.6582C201.545 34.2441 201.346 34.8477 201.193 35.4688C201.041 36.0781 200.93 36.6816 200.859 37.2793C200.801 37.877 200.771 38.416 200.771 38.8965C200.771 39.7168 200.859 40.5371 201.035 41.3574C201.223 42.1777 201.504 42.916 201.879 43.5723C202.254 44.2168 202.734 44.7441 203.32 45.1543C203.906 45.5645 204.604 45.7695 205.412 45.7695C206.01 45.7695 206.572 45.6348 207.1 45.3652C207.627 45.0957 208.096 44.75 208.506 44.3281C208.928 43.8945 209.285 43.4199 209.578 42.9043C209.871 42.3887 210.082 41.8848 210.211 41.3926C210.27 41.1699 210.375 40.9883 210.527 40.8477C210.691 40.707 210.885 40.6367 211.107 40.6367C211.365 40.6367 211.582 40.7363 211.758 40.9355C211.945 41.123 212.039 41.334 212.039 41.5684C212.039 41.6387 212.027 41.6973 212.004 41.7441C211.922 42.1309 211.781 42.5527 211.582 43.0098C211.383 43.4668 211.119 43.9238 210.791 44.3809C210.475 44.8379 210.088 45.2832 209.631 45.7168C209.174 46.1387 208.652 46.5137 208.066 46.8418C207.48 47.1699 206.83 47.4336 206.115 47.6328C205.4 47.832 204.615 47.9316 203.76 47.9316C202.412 47.9316 201.17 47.7031 200.033 47.2461C198.896 46.8008 197.918 46.1738 197.098 45.3652C196.277 44.5449 195.633 43.5664 195.164 42.4297C194.707 41.2812 194.479 40.0215 194.479 38.6504C194.479 37.1738 194.678 35.8027 195.076 34.5371C195.486 33.2715 196.078 32.1758 196.852 31.25C197.637 30.3242 198.598 29.5977 199.734 29.0703C200.883 28.543 202.201 28.2793 203.689 28.2793C205.025 28.2793 206.268 28.5488 207.416 29.0879C208.564 29.6152 209.508 30.4121 210.246 31.4785L210.826 27.8926C210.861 27.6699 210.961 27.4883 211.125 27.3477C211.301 27.207 211.5 27.1367 211.723 27.1367C212.016 27.1367 212.244 27.2363 212.408 27.4355C212.572 27.6348 212.654 27.834 212.654 28.0332V28.1738L211.547 35.3281ZM231.779 47.2109C231.076 47.2109 230.426 47.0996 229.828 46.877C229.242 46.6426 228.697 46.3379 228.193 45.9629C227.701 45.5762 227.25 45.125 226.84 44.6094C226.43 44.0938 226.061 43.5488 225.732 42.9746C225.416 42.4004 225.135 41.8145 224.889 41.2168C224.654 40.6074 224.455 40.0156 224.291 39.4414C224.127 39.4766 223.969 39.5059 223.816 39.5293C223.676 39.541 223.535 39.5586 223.395 39.582V45.3125C223.699 45.3477 223.992 45.3828 224.273 45.418C224.566 45.4531 224.848 45.4883 225.117 45.5234C225.34 45.5586 225.521 45.6641 225.662 45.8398C225.803 46.0156 225.873 46.209 225.873 46.4199C225.873 46.7129 225.773 46.9414 225.574 47.1055C225.375 47.2695 225.176 47.3516 224.977 47.3516H224.836C224.098 47.2461 223.318 47.1465 222.498 47.0527C221.689 46.9707 220.811 46.9297 219.861 46.9297C219.17 46.9297 218.455 46.959 217.717 47.0176C216.979 47.0762 216.205 47.1875 215.396 47.3516H215.221C214.951 47.3516 214.729 47.252 214.553 47.0527C214.377 46.8652 214.289 46.6543 214.289 46.4199C214.289 46.209 214.359 46.0215 214.5 45.8574C214.641 45.6934 214.822 45.582 215.045 45.5234C215.748 45.3828 216.457 45.2773 217.172 45.207V23.8848C216.434 23.8496 215.812 23.8086 215.309 23.7617C214.805 23.7031 214.523 23.6738 214.465 23.6738C214.23 23.6387 214.037 23.5332 213.885 23.3574C213.744 23.1816 213.674 22.9766 213.674 22.7422C213.674 22.4492 213.779 22.2266 213.99 22.0742C214.201 21.9102 214.406 21.8281 214.605 21.8281H214.711C214.723 21.8281 214.857 21.8457 215.115 21.8809C215.373 21.9043 215.707 21.9395 216.117 21.9863C216.539 22.0215 217.014 22.0566 217.541 22.0918C218.068 22.1152 218.613 22.127 219.176 22.127C219.738 22.127 220.289 22.1094 220.828 22.0742C221.367 22.0273 221.859 21.9453 222.305 21.8281H222.498C222.768 21.8281 222.99 21.9219 223.166 22.1094C223.342 22.2969 223.43 22.5078 223.43 22.7422V37.7539C225.281 37.3906 226.869 36.7285 228.193 35.7676C229.529 34.7949 230.607 33.418 231.428 31.6367H231.023C230.367 31.6367 229.834 31.6191 229.424 31.584C229.014 31.5371 228.779 31.5137 228.721 31.5137C228.486 31.4785 228.293 31.373 228.141 31.1973C228 31.0215 227.93 30.8164 227.93 30.582C227.93 30.2891 228.035 30.0664 228.246 29.9141C228.457 29.7617 228.662 29.6855 228.861 29.6855H228.967C228.99 29.6855 229.195 29.7031 229.582 29.7383C229.969 29.7734 230.449 29.791 231.023 29.791C231.352 29.791 231.703 29.7793 232.078 29.7559C232.453 29.7324 232.834 29.6973 233.221 29.6504C233.607 29.5918 233.982 29.5156 234.346 29.4219C234.721 29.3164 235.078 29.1875 235.418 29.0352C235.523 28.9648 235.641 28.9297 235.77 28.9297C236.039 28.9297 236.262 29.0293 236.438 29.2285C236.625 29.416 236.719 29.627 236.719 29.8613C236.719 30.0488 236.672 30.2188 236.578 30.3711C236.484 30.5117 236.35 30.6172 236.174 30.6875C235.764 30.8867 235.33 31.0508 234.873 31.1797C234.416 31.3086 233.947 31.4082 233.467 31.4785C233.033 32.6738 232.506 33.6992 231.885 34.5547C231.275 35.4102 230.631 36.125 229.951 36.6992C230.279 37.6602 230.625 38.5684 230.988 39.4238C231.352 40.2676 231.715 41.0059 232.078 41.6387C232.453 42.2715 232.816 42.7754 233.168 43.1504C233.531 43.5137 233.871 43.6953 234.188 43.6953C234.457 43.6953 234.662 43.5957 234.803 43.3965C234.943 43.1855 235.037 42.9453 235.084 42.6758C235.143 42.4062 235.172 42.1309 235.172 41.8496C235.172 41.5684 235.172 41.3516 235.172 41.1992C235.172 40.8359 235.154 40.4844 235.119 40.1445C235.096 39.8047 235.066 39.5059 235.031 39.248C234.996 38.9902 234.961 38.7852 234.926 38.6328C234.902 38.4805 234.885 38.4043 234.873 38.4043V38.1758C234.873 37.9297 234.961 37.7129 235.137 37.5254C235.324 37.3379 235.535 37.2441 235.77 37.2441C235.992 37.2441 236.186 37.3086 236.35 37.4375C236.525 37.5664 236.637 37.7422 236.684 37.9648C236.695 38 236.719 38.1113 236.754 38.2988C236.789 38.4746 236.824 38.7031 236.859 38.9844C236.906 39.2656 236.947 39.5938 236.982 39.9688C237.018 40.332 237.035 40.7188 237.035 41.1289C237.035 41.9844 236.936 42.7871 236.736 43.5371C236.537 44.2754 236.221 44.9199 235.787 45.4707C235.365 46.0098 234.82 46.4375 234.152 46.7539C233.496 47.0586 232.705 47.2109 231.779 47.2109ZM251.959 40.8477C251.936 40.6484 251.918 40.4434 251.906 40.2324C251.895 40.0215 251.889 39.8047 251.889 39.582H251.238C250.77 39.582 250.213 39.6172 249.568 39.6875C248.936 39.7578 248.279 39.8691 247.6 40.0215C246.92 40.1738 246.246 40.3789 245.578 40.6367C244.91 40.8828 244.312 41.1875 243.785 41.5508C243.258 41.9023 242.83 42.3184 242.502 42.7988C242.186 43.2793 242.027 43.8301 242.027 44.4512C242.027 44.7793 242.104 45.0605 242.256 45.2949C242.42 45.5293 242.619 45.7227 242.854 45.875C243.1 46.0156 243.369 46.1211 243.662 46.1914C243.955 46.25 244.236 46.2793 244.506 46.2793C245.338 46.2793 246.123 46.1211 246.861 45.8047C247.611 45.4766 248.303 45.0547 248.936 44.5391C249.568 44.0117 250.137 43.4258 250.641 42.7812C251.145 42.1367 251.584 41.4922 251.959 40.8477ZM260.379 46.9297H260.309C260.109 46.9062 259.904 46.8945 259.693 46.8945C259.482 46.8945 259.277 46.8945 259.078 46.8945C257.977 46.8945 256.916 46.9648 255.896 47.1055C254.889 47.2461 253.875 47.4629 252.855 47.7559C252.82 47.7559 252.785 47.7617 252.75 47.7734C252.715 47.7852 252.668 47.791 252.609 47.791C252.34 47.791 252.117 47.6855 251.941 47.4746C251.777 47.2754 251.695 47.0703 251.695 46.8594V46.7188C251.695 46.6953 251.725 46.4609 251.783 46.0156C251.842 45.5586 251.9 44.9258 251.959 44.1172C251.455 44.6797 250.916 45.207 250.342 45.6992C249.779 46.1797 249.182 46.6016 248.549 46.9648C247.928 47.3164 247.283 47.5918 246.615 47.791C245.947 48.002 245.256 48.1074 244.541 48.1074C243.979 48.1074 243.434 48.0195 242.906 47.8438C242.379 47.6797 241.91 47.4395 241.5 47.123C241.102 46.8066 240.779 46.4258 240.533 45.9805C240.299 45.5234 240.182 45.0137 240.182 44.4512C240.182 43.5723 240.369 42.7988 240.744 42.1309C241.131 41.4629 241.635 40.8828 242.256 40.3906C242.877 39.8867 243.58 39.4707 244.365 39.1426C245.162 38.8027 245.971 38.5332 246.791 38.334C247.611 38.123 248.408 37.9766 249.182 37.8945C249.955 37.8008 250.641 37.7539 251.238 37.7539H251.66C251.66 37.0391 251.531 36.3418 251.273 35.6621C251.027 34.9824 250.676 34.3789 250.219 33.8516C249.773 33.3242 249.24 32.9023 248.619 32.5859C247.998 32.2578 247.312 32.0938 246.562 32.0938C246.012 32.0938 245.473 32.252 244.945 32.5684C244.418 32.873 243.949 33.2656 243.539 33.7461C243.129 34.2266 242.795 34.7656 242.537 35.3633C242.291 35.9609 242.168 36.541 242.168 37.1035C242.168 37.3379 242.068 37.5371 241.869 37.7012C241.682 37.8535 241.471 37.9297 241.236 37.9297C240.979 37.9297 240.756 37.8359 240.568 37.6484C240.381 37.4492 240.287 37.2324 240.287 36.998C240.287 36.4355 240.387 35.8496 240.586 35.2402C240.785 34.6191 241.072 34.0156 241.447 33.4297C241.834 32.832 242.297 32.2695 242.836 31.7422C243.387 31.2148 244.008 30.752 244.699 30.3535C245.402 29.9434 246.17 29.6211 247.002 29.3867C247.834 29.1523 248.719 29.0352 249.656 29.0352C250.969 29.0352 252.088 29.2402 253.014 29.6504C253.951 30.0605 254.73 30.6172 255.352 31.3203C255.984 32.0234 256.482 32.8379 256.846 33.7637C257.209 34.6895 257.484 35.668 257.672 36.6992C257.859 37.7305 257.977 38.7793 258.023 39.8457C258.082 40.9121 258.111 41.9316 258.111 42.9043C258.111 43.3965 258.105 43.8184 258.094 44.1699C258.082 44.5215 258.076 44.8145 258.076 45.0488C258.252 45.0488 258.428 45.043 258.604 45.0312C258.791 45.0195 258.973 45.0137 259.148 45.0137C259.348 45.0137 259.553 45.0195 259.764 45.0312C259.986 45.043 260.203 45.0488 260.414 45.0488C260.672 45.0723 260.877 45.1719 261.029 45.3477C261.193 45.5234 261.275 45.7402 261.275 45.998C261.275 46.2441 261.188 46.4609 261.012 46.6484C260.848 46.8359 260.637 46.9297 260.379 46.9297Z" fill="white"/>
</svg>
