<svg width="16" height="16" viewBox="0 0 16 16" fill="none" xmlns="http://www.w3.org/2000/svg">
<mask id="path-1-inside-1_277_4286" fill="white">
<path d="M9.83341 12.6667C9.83341 13.68 9.01341 14.5 8.00008 14.5C6.98675 14.5 6.16675 13.68 6.16675 12.6667C6.16675 11.6533 6.98675 10.8333 8.00008 10.8333C9.01341 10.8333 9.83341 11.6533 9.83341 12.6667ZM7.16675 12.6667C7.16675 13.1267 7.54008 13.5 8.00008 13.5C8.46008 13.5 8.83341 13.1267 8.83341 12.6667C8.83341 12.2067 8.46008 11.8333 8.00008 11.8333C7.54008 11.8333 7.16675 12.2067 7.16675 12.6667Z"/>
</mask>
<path d="M9.83341 12.6667C9.83341 13.68 9.01341 14.5 8.00008 14.5C6.98675 14.5 6.16675 13.68 6.16675 12.6667C6.16675 11.6533 6.98675 10.8333 8.00008 10.8333C9.01341 10.8333 9.83341 11.6533 9.83341 12.6667ZM7.16675 12.6667C7.16675 13.1267 7.54008 13.5 8.00008 13.5C8.46008 13.5 8.83341 13.1267 8.83341 12.6667C8.83341 12.2067 8.46008 11.8333 8.00008 11.8333C7.54008 11.8333 7.16675 12.2067 7.16675 12.6667Z" fill="#292D32"/>
<path d="M8.33341 12.6667C8.33341 12.8516 8.18499 13 8.00008 13V16C9.84184 16 11.3334 14.5084 11.3334 12.6667H8.33341ZM8.00008 13C7.81518 13 7.66675 12.8516 7.66675 12.6667H4.66675C4.66675 14.5084 6.15832 16 8.00008 16V13ZM7.66675 12.6667C7.66675 12.4818 7.81518 12.3333 8.00008 12.3333V9.33333C6.15832 9.33333 4.66675 10.8249 4.66675 12.6667H7.66675ZM8.00008 12.3333C8.18499 12.3333 8.33341 12.4818 8.33341 12.6667H11.3334C11.3334 10.8249 9.84184 9.33333 8.00008 9.33333V12.3333ZM5.66675 12.6667C5.66675 13.9551 6.71165 15 8.00008 15V12C8.36851 12 8.66675 12.2982 8.66675 12.6667H5.66675ZM8.00008 15C9.28851 15 10.3334 13.9551 10.3334 12.6667H7.33341C7.33341 12.2982 7.63165 12 8.00008 12V15ZM10.3334 12.6667C10.3334 11.3782 9.28851 10.3333 8.00008 10.3333V13.3333C7.63165 13.3333 7.33341 13.0351 7.33341 12.6667H10.3334ZM8.00008 10.3333C6.71165 10.3333 5.66675 11.3782 5.66675 12.6667H8.66675C8.66675 13.0351 8.36851 13.3333 8.00008 13.3333V10.3333Z" fill="#707070" mask="url(#path-1-inside-1_277_4286)"/>
<mask id="path-3-inside-2_277_4286" fill="white">
<path d="M9.83341 3.33341C9.83341 4.34675 9.01341 5.16675 8.00008 5.16675C6.98675 5.16675 6.16675 4.34675 6.16675 3.33341C6.16675 2.32008 6.98675 1.50008 8.00008 1.50008C9.01341 1.50008 9.83341 2.32008 9.83341 3.33341ZM7.16675 3.33341C7.16675 3.79341 7.54008 4.16675 8.00008 4.16675C8.46008 4.16675 8.83341 3.79341 8.83341 3.33341C8.83341 2.87341 8.46008 2.50008 8.00008 2.50008C7.54008 2.50008 7.16675 2.87341 7.16675 3.33341Z"/>
</mask>
<path d="M9.83341 3.33341C9.83341 4.34675 9.01341 5.16675 8.00008 5.16675C6.98675 5.16675 6.16675 4.34675 6.16675 3.33341C6.16675 2.32008 6.98675 1.50008 8.00008 1.50008C9.01341 1.50008 9.83341 2.32008 9.83341 3.33341ZM7.16675 3.33341C7.16675 3.79341 7.54008 4.16675 8.00008 4.16675C8.46008 4.16675 8.83341 3.79341 8.83341 3.33341C8.83341 2.87341 8.46008 2.50008 8.00008 2.50008C7.54008 2.50008 7.16675 2.87341 7.16675 3.33341Z" fill="#292D32"/>
<path d="M8.33341 3.33341C8.33341 3.51832 8.18499 3.66675 8.00008 3.66675V6.66675C9.84184 6.66675 11.3334 5.17517 11.3334 3.33341H8.33341ZM8.00008 3.66675C7.81518 3.66675 7.66675 3.51832 7.66675 3.33341H4.66675C4.66675 5.17517 6.15832 6.66675 8.00008 6.66675V3.66675ZM7.66675 3.33341C7.66675 3.14851 7.81518 3.00008 8.00008 3.00008V8.10623e-05C6.15832 8.10623e-05 4.66675 1.49165 4.66675 3.33341H7.66675ZM8.00008 3.00008C8.18499 3.00008 8.33341 3.14851 8.33341 3.33341H11.3334C11.3334 1.49165 9.84184 8.10623e-05 8.00008 8.10623e-05V3.00008ZM5.66675 3.33341C5.66675 4.62184 6.71165 5.66675 8.00008 5.66675V2.66675C8.36851 2.66675 8.66675 2.96499 8.66675 3.33341H5.66675ZM8.00008 5.66675C9.28851 5.66675 10.3334 4.62184 10.3334 3.33341H7.33341C7.33341 2.96499 7.63165 2.66675 8.00008 2.66675V5.66675ZM10.3334 3.33341C10.3334 2.04499 9.28851 1.00008 8.00008 1.00008V4.00008C7.63165 4.00008 7.33341 3.70184 7.33341 3.33341H10.3334ZM8.00008 1.00008C6.71165 1.00008 5.66675 2.04499 5.66675 3.33341H8.66675C8.66675 3.70184 8.36851 4.00008 8.00008 4.00008V1.00008Z" fill="#707070" mask="url(#path-3-inside-2_277_4286)"/>
<mask id="path-5-inside-3_277_4286" fill="white">
<path d="M9.83341 7.99992C9.83341 9.01325 9.01341 9.83325 8.00008 9.83325C6.98675 9.83325 6.16675 9.01325 6.16675 7.99992C6.16675 6.98659 6.98675 6.16659 8.00008 6.16659C9.01341 6.16659 9.83341 6.98659 9.83341 7.99992ZM7.16675 7.99992C7.16675 8.45992 7.54008 8.83325 8.00008 8.83325C8.46008 8.83325 8.83341 8.45992 8.83341 7.99992C8.83341 7.53992 8.46008 7.16659 8.00008 7.16659C7.54008 7.16659 7.16675 7.53992 7.16675 7.99992Z"/>
</mask>
<path d="M9.83341 7.99992C9.83341 9.01325 9.01341 9.83325 8.00008 9.83325C6.98675 9.83325 6.16675 9.01325 6.16675 7.99992C6.16675 6.98659 6.98675 6.16659 8.00008 6.16659C9.01341 6.16659 9.83341 6.98659 9.83341 7.99992ZM7.16675 7.99992C7.16675 8.45992 7.54008 8.83325 8.00008 8.83325C8.46008 8.83325 8.83341 8.45992 8.83341 7.99992C8.83341 7.53992 8.46008 7.16659 8.00008 7.16659C7.54008 7.16659 7.16675 7.53992 7.16675 7.99992Z" fill="#292D32"/>
<path d="M8.33341 7.99992C8.33341 8.18482 8.18499 8.33325 8.00008 8.33325V11.3333C9.84184 11.3333 11.3334 9.84168 11.3334 7.99992H8.33341ZM8.00008 8.33325C7.81518 8.33325 7.66675 8.18482 7.66675 7.99992H4.66675C4.66675 9.84168 6.15832 11.3333 8.00008 11.3333V8.33325ZM7.66675 7.99992C7.66675 7.81501 7.81518 7.66659 8.00008 7.66659V4.66659C6.15832 4.66659 4.66675 6.15816 4.66675 7.99992H7.66675ZM8.00008 7.66659C8.18499 7.66659 8.33341 7.81501 8.33341 7.99992H11.3334C11.3334 6.15816 9.84184 4.66659 8.00008 4.66659V7.66659ZM5.66675 7.99992C5.66675 9.28835 6.71165 10.3333 8.00008 10.3333V7.33325C8.36851 7.33325 8.66675 7.63149 8.66675 7.99992H5.66675ZM8.00008 10.3333C9.28851 10.3333 10.3334 9.28835 10.3334 7.99992H7.33341C7.33341 7.63149 7.63165 7.33325 8.00008 7.33325V10.3333ZM10.3334 7.99992C10.3334 6.71149 9.28851 5.66659 8.00008 5.66659V8.66659C7.63165 8.66659 7.33341 8.36835 7.33341 7.99992H10.3334ZM8.00008 5.66659C6.71165 5.66659 5.66675 6.71149 5.66675 7.99992H8.66675C8.66675 8.36835 8.36851 8.66659 8.00008 8.66659V5.66659Z" fill="#707070" mask="url(#path-5-inside-3_277_4286)"/>
</svg>
