<svg width="16" height="16" viewBox="0 0 16 16" fill="none" xmlns="http://www.w3.org/2000/svg">
<path d="M14.6466 12.2199C14.6466 12.4599 14.5933 12.7066 14.4799 12.9466C14.3666 13.1866 14.2199 13.4133 14.0266 13.6266C13.6999 13.9866 13.3399 14.2466 12.9333 14.4133C12.5333 14.5799 12.0999 14.6666 11.6333 14.6666C10.9533 14.6666 10.2266 14.5066 9.45992 14.1799C8.69325 13.8533 7.92659 13.4133 7.16659 12.8599C6.39992 12.2999 5.67325 11.6799 4.97992 10.9933C4.29325 10.2999 3.67325 9.57325 3.11992 8.81325C2.57325 8.05325 2.13325 7.29325 1.81325 6.53992C1.49325 5.77992 1.33325 5.05325 1.33325 4.35992C1.33325 3.90659 1.41325 3.47325 1.57325 3.07325C1.73325 2.66659 1.98659 2.29325 2.33992 1.95992C2.76659 1.53992 3.23325 1.33325 3.72659 1.33325C3.91325 1.33325 4.09992 1.37325 4.26659 1.45325C4.43992 1.53325 4.59325 1.65325 4.71325 1.82659L6.25992 4.00659C6.37992 4.17325 6.46659 4.32659 6.52659 4.47325C6.58659 4.61325 6.61992 4.75325 6.61992 4.87992C6.61992 5.03992 6.57325 5.19992 6.47992 5.35325C6.39325 5.50659 6.26659 5.66659 6.10659 5.82659L5.59992 6.35325C5.52659 6.42659 5.49325 6.51325 5.49325 6.61992C5.49325 6.67325 5.49992 6.71992 5.51325 6.77325C5.53325 6.82659 5.55325 6.86659 5.56659 6.90659C5.68659 7.12659 5.89325 7.41325 6.18659 7.75992C6.48659 8.10659 6.80659 8.45992 7.15325 8.81325C7.51325 9.16659 7.85992 9.49325 8.21325 9.79325C8.55992 10.0866 8.84659 10.2866 9.07325 10.4066C9.10659 10.4199 9.14659 10.4399 9.19325 10.4599C9.24659 10.4799 9.29992 10.4866 9.35992 10.4866C9.47325 10.4866 9.55992 10.4466 9.63325 10.3733L10.1399 9.87325C10.3066 9.70659 10.4666 9.57992 10.6199 9.49992C10.7733 9.40659 10.9266 9.35992 11.0933 9.35992C11.2199 9.35992 11.3533 9.38659 11.4999 9.44659C11.6466 9.50659 11.7999 9.59325 11.9666 9.70659L14.1733 11.2733C14.3466 11.3933 14.4666 11.5333 14.5399 11.6999C14.6066 11.8666 14.6466 12.0333 14.6466 12.2199Z" stroke="#0515F6" stroke-width="1.5" stroke-miterlimit="10"/>
</svg>
