<svg width="23" height="23" viewBox="0 0 23 23" fill="none" xmlns="http://www.w3.org/2000/svg">
<path d="M4.97 8.13893L8.6398 5.56931C9.52448 4.94985 10.6348 4.73396 11.6796 4.97085L15.091 5.73991C16.712 6.10233 17.7751 7.62049 17.565 9.27318L17.1209 12.7419C16.99 13.8102 16.4074 14.7797 15.5227 15.3991L11.8529 17.9688C10.1218 19.1809 7.72628 18.7585 6.51412 17.0274L4.02862 13.4777C2.81646 11.7466 3.23885 9.35109 4.97 8.13893ZM14.9491 14.58C15.599 14.1249 16.032 13.4067 16.1324 12.6202L16.5781 9.14224C16.7205 8.00895 15.9901 6.9659 14.8765 6.71209L11.4651 5.94303C10.6917 5.76837 9.8687 5.9296 9.21884 6.38464L5.54357 8.95809C4.2657 9.85287 3.953 11.6263 4.84778 12.9042L7.33327 16.4538C8.22805 17.7317 10.0015 18.0444 11.2793 17.1496L14.9491 14.58Z" fill="#707070"/>
<path d="M7.72623 10.9131C7.82999 10.8404 7.96052 10.806 8.09979 10.8306L12.6903 11.6448C12.9596 11.6923 13.1431 11.9544 13.0957 12.2237C13.0482 12.4929 12.7861 12.6765 12.5168 12.629L7.92625 11.8148C7.65699 11.7673 7.47344 11.5052 7.52092 11.2359C7.54548 11.0966 7.62247 10.9858 7.72623 10.9131Z" fill="#707070"/>
<path d="M10.4239 9.02372C10.5276 8.95107 10.6582 8.91664 10.7974 8.9412C11.0667 8.98868 11.2503 9.25081 11.2028 9.52007L10.394 14.1068C10.3465 14.376 10.0844 14.5596 9.81515 14.5121C9.54589 14.4646 9.36234 14.2025 9.40982 13.9332L10.2186 9.34653C10.2431 9.20726 10.3201 9.09638 10.4239 9.02372Z" fill="#707070"/>
</svg>
