<svg width="32" height="33" viewBox="0 0 32 33" fill="none" xmlns="http://www.w3.org/2000/svg">
<path d="M16.0001 3.1665C8.65341 3.1665 2.66675 9.15317 2.66675 16.4998C2.66675 23.8465 8.65341 29.8332 16.0001 29.8332C23.3467 29.8332 29.3334 23.8465 29.3334 16.4998C29.3334 9.15317 23.3467 3.1665 16.0001 3.1665ZM22.3734 13.4332L14.8134 20.9932C14.6267 21.1798 14.3734 21.2865 14.1067 21.2865C13.8401 21.2865 13.5867 21.1798 13.4001 20.9932L9.62675 17.2198C9.24008 16.8332 9.24008 16.1932 9.62675 15.8065C10.0134 15.4198 10.6534 15.4198 11.0401 15.8065L14.1067 18.8732L20.9601 12.0198C21.3467 11.6332 21.9867 11.6332 22.3734 12.0198C22.7601 12.4065 22.7601 13.0332 22.3734 13.4332Z" fill="#0515F6"/>
</svg>
