<svg width="25" height="24" viewBox="0 0 25 24" fill="none" xmlns="http://www.w3.org/2000/svg">
<path d="M18.1002 7.16C18.0402 7.15 17.9702 7.15 17.9102 7.16C16.5302 7.11 15.4302 5.98 15.4302 4.58C15.4302 3.15 16.5802 2 18.0102 2C19.4402 2 20.5902 3.16 20.5902 4.58C20.5802 5.98 19.4802 7.11 18.1002 7.16Z" stroke="#707070" stroke-width="1.5" stroke-linecap="round" stroke-linejoin="round"/>
<path d="M17.0703 14.44C18.4403 14.67 19.9503 14.43 21.0103 13.72C22.4203 12.78 22.4203 11.24 21.0103 10.3C19.9403 9.59004 18.4103 9.35003 17.0403 9.59003" stroke="#707070" stroke-width="1.5" stroke-linecap="round" stroke-linejoin="round"/>
<path d="M6.07008 7.16C6.13008 7.15 6.20008 7.15 6.26008 7.16C7.64008 7.11 8.74008 5.98 8.74008 4.58C8.74008 3.15 7.59008 2 6.16008 2C4.73008 2 3.58008 3.16 3.58008 4.58C3.59008 5.98 4.69008 7.11 6.07008 7.16Z" stroke="#707070" stroke-width="1.5" stroke-linecap="round" stroke-linejoin="round"/>
<path d="M7.10004 14.44C5.73004 14.67 4.22004 14.43 3.16004 13.72C1.75004 12.78 1.75004 11.24 3.16004 10.3C4.23004 9.59004 5.76004 9.35003 7.13004 9.59003" stroke="#707070" stroke-width="1.5" stroke-linecap="round" stroke-linejoin="round"/>
<path d="M12.1002 14.63C12.0402 14.62 11.9702 14.62 11.9102 14.63C10.5302 14.58 9.43018 13.45 9.43018 12.05C9.43018 10.62 10.5802 9.46997 12.0102 9.46997C13.4402 9.46997 14.5902 10.63 14.5902 12.05C14.5802 13.45 13.4802 14.59 12.1002 14.63Z" stroke="#707070" stroke-width="1.5" stroke-linecap="round" stroke-linejoin="round"/>
<path d="M9.19007 17.78C7.78007 18.72 7.78007 20.26 9.19007 21.2C10.7901 22.27 13.4101 22.27 15.0101 21.2C16.4201 20.26 16.4201 18.72 15.0101 17.78C13.4201 16.72 10.7901 16.72 9.19007 17.78Z" stroke="#707070" stroke-width="1.5" stroke-linecap="round" stroke-linejoin="round"/>
</svg>
