<svg width="16" height="16" viewBox="0 0 16 16" fill="none" xmlns="http://www.w3.org/2000/svg">
<path fill-rule="evenodd" clip-rule="evenodd" d="M0.632498 7.73302C1.77702 4.72902 4.63617 2.58337 8.00002 2.58337C11.3639 2.58337 14.223 4.72902 15.3675 7.73302L15.4693 8.00004L15.3675 8.26707C14.223 11.2711 11.3639 13.4167 8.00002 13.4167C4.63617 13.4167 1.77702 11.2711 0.632498 8.26707L0.530762 8.00004L0.632498 7.73302ZM6.08337 8.00004C6.08337 6.94149 6.94149 6.08337 8.00003 6.08337C9.05858 6.08337 9.9167 6.94149 9.9167 8.00004C9.9167 9.05859 9.05858 9.91671 8.00003 9.91671C6.94149 9.91671 6.08337 9.05859 6.08337 8.00004ZM8.00003 4.58337C6.11306 4.58337 4.58337 6.11307 4.58337 8.00004C4.58337 9.88701 6.11306 11.4167 8.00003 11.4167C9.88701 11.4167 11.4167 9.88701 11.4167 8.00004C11.4167 6.11307 9.88701 4.58337 8.00003 4.58337Z" fill="#5C5C5C"/>
</svg>
