<svg width="87" height="80" viewBox="0 0 87 80" fill="none" xmlns="http://www.w3.org/2000/svg">
<g clip-path="url(#clip0_211_6382)">
<circle cx="44.7112" cy="40.034" r="26.4422" stroke="#F1F1F3" stroke-width="6"/>
<mask id="path-2-inside-1_211_6382" fill="white">
<path d="M44.7112 10.5917C60.9717 10.5917 74.1534 23.7734 74.1534 40.0339C74.1534 56.2944 60.9717 69.4761 44.7112 69.4761C28.4508 69.4761 15.269 56.2944 15.269 40.0339C15.269 23.7734 28.4508 10.5917 44.7112 10.5917ZM44.7112 65.9471C59.0227 65.9471 70.6245 54.3454 70.6245 40.0339C70.6245 25.7224 59.0227 14.1206 44.7112 14.1206C30.3997 14.1206 18.798 25.7224 18.798 40.0339C18.798 54.3454 30.3997 65.9471 44.7112 65.9471Z"/>
</mask>
<path d="M44.7112 10.5917C60.9717 10.5917 74.1534 23.7734 74.1534 40.0339C74.1534 56.2944 60.9717 69.4761 44.7112 69.4761C28.4508 69.4761 15.269 56.2944 15.269 40.0339C15.269 23.7734 28.4508 10.5917 44.7112 10.5917ZM44.7112 65.9471C59.0227 65.9471 70.6245 54.3454 70.6245 40.0339C70.6245 25.7224 59.0227 14.1206 44.7112 14.1206C30.3997 14.1206 18.798 25.7224 18.798 40.0339C18.798 54.3454 30.3997 65.9471 44.7112 65.9471Z" stroke="#3744F8" stroke-width="8" mask="url(#path-2-inside-1_211_6382)"/>
<path opacity="0.2" d="M50.407 26.9111H39.0295C34.5809 26.9111 31.5889 30.0344 31.5889 34.6798V45.4012C31.5889 50.0335 34.5809 53.1567 39.0295 53.1567H50.407C54.8556 53.1567 57.8345 50.0335 57.8345 45.4012V34.6798C57.8345 30.0344 54.8556 26.9111 50.407 26.9111Z" fill="#3744F8"/>
<path d="M43.1542 44.2962C42.8602 44.2962 42.5663 44.1847 42.3419 43.9603L39.2278 40.8462C38.779 40.3974 38.779 39.6704 39.2278 39.2229C39.6766 38.7741 40.4023 38.7728 40.8511 39.2216L43.1542 41.5247L48.5713 36.1076C49.0201 35.6588 49.7458 35.6588 50.1946 36.1076C50.6434 36.5564 50.6434 37.2834 50.1946 37.7322L43.9665 43.9603C43.7421 44.1847 43.4481 44.2962 43.1542 44.2962Z" fill="#3744F8"/>
</g>
<ellipse cx="19.2733" cy="68.8827" rx="1.817" ry="1.83147" fill="#263BBA"/>
<ellipse cx="61.67" cy="6.61306" rx="1.21134" ry="1.22097" fill="#D1051C"/>
<path d="M9.18824 30.4219C9.18824 31.2258 8.54383 31.8639 7.76557 31.8639C6.98731 31.8639 6.3429 31.2258 6.3429 30.4219C6.3429 29.6181 6.98731 28.98 7.76557 28.98C8.54383 28.98 9.18824 29.6181 9.18824 30.4219Z" stroke="#18B757" stroke-width="2"/>
<path d="M5.55424 56.0622C5.55424 57.2032 4.63866 58.1146 3.5259 58.1146C2.41313 58.1146 1.49756 57.2032 1.49756 56.0622C1.49756 54.9212 2.41313 54.0098 3.5259 54.0098C4.63866 54.0098 5.55424 54.9212 5.55424 56.0622Z" stroke="#F9A000" stroke-width="2"/>
<circle cx="83.474" cy="58.8096" r="2.02834" stroke="#18B757" stroke-width="2"/>
<path d="M57.9169 71.8159L57.9959 74.521L60.3431 75.8681L57.7948 76.7792L57.239 79.4278L55.585 77.2857L52.8943 77.5755L54.4204 75.3406L53.3133 72.8711L55.9104 73.632L57.9169 71.8159Z" fill="#18B757"/>
<path d="M20.586 1.84694L22.7634 3.41549L25.1266 2.3909L24.433 4.93375L26.2141 6.96487L23.608 6.96789L22.3455 9.24777L21.4285 6.70678L18.8672 6.08472L20.9065 4.51128L20.586 1.84694Z" fill="#263BBA"/>
<path d="M78.6674 16.6879L80.9584 18.0234L83.2947 16.7687L82.7326 19.3603L84.6478 21.1945L82.0093 21.4607L80.8567 23.849L79.7882 21.4219L77.1606 21.0638L79.1387 19.2975L78.6674 16.6879Z" fill="#F9A000"/>
<defs>
<clipPath id="clip0_211_6382">
<rect width="60.5668" height="60.5668" fill="white" transform="translate(14.4279 9.75049)"/>
</clipPath>
</defs>
</svg>
