<svg width="25" height="24" viewBox="0 0 25 24" fill="none" xmlns="http://www.w3.org/2000/svg">
<path d="M17.6555 7.01822C17.5687 7.01059 17.4816 7.01059 17.3948 7.01822C16.2742 6.95633 15.3901 6.0299 15.3901 4.89C15.3901 3.71252 16.346 2.75 17.5301 2.75C18.7068 2.75 19.6688 3.7046 19.6701 4.88758C19.6616 6.0309 18.7746 6.95638 17.6555 7.01822Z" fill="#0515F6" stroke="#0515F6" stroke-width="1.5"/>
<path d="M20.4733 14.0765L20.4729 14.0767C19.7625 14.5525 18.8002 14.8187 17.8061 14.8454C17.988 14.2103 18.083 13.5433 18.0902 12.8577L18.0902 12.8577V12.8499C18.0902 12.1273 17.9866 11.4227 17.7828 10.759C18.7873 10.7828 19.7489 11.0492 20.4654 11.5248L20.4654 11.5248L20.4678 11.5264C21.1012 11.9433 21.3158 12.4188 21.3164 12.7975C21.3171 13.1771 21.1034 13.6551 20.4733 14.0765Z" fill="#0515F6" stroke="#0515F6" stroke-width="1.5"/>
<path d="M6.77534 7.01822C6.68854 7.01059 6.60148 7.01059 6.51468 7.01822C5.39406 6.95633 4.51001 6.0299 4.51001 4.89C4.51001 3.70252 5.46592 2.75 6.64001 2.75C7.8258 2.75 8.78001 3.70421 8.78001 4.89C8.78001 6.0299 7.89596 6.95633 6.77534 7.01822Z" fill="#0515F6" stroke="#0515F6" stroke-width="1.5"/>
<path d="M3.69533 11.5247L3.69533 11.5248L3.69892 11.5223C4.3599 11.0776 5.25696 10.8134 6.19935 10.7652C6.00231 11.4256 5.90022 12.126 5.90022 12.8501C5.90022 13.5419 5.9963 14.2119 6.17695 14.8477C5.25051 14.794 4.3687 14.5276 3.69381 14.0844C3.05977 13.6626 2.84521 13.1847 2.84521 12.8051C2.84521 12.4252 3.06011 11.9469 3.69533 11.5247Z" fill="#0515F6" stroke="#0515F6" stroke-width="1.5"/>
<path d="M12.2424 15.1185C12.1415 15.1102 12.0395 15.1108 11.9404 15.1186C10.5264 15.0494 9.40118 13.8816 9.40015 12.442C9.40904 10.9518 10.6072 9.75 12.1001 9.75C13.5853 9.75 14.7891 10.9531 14.7901 12.438C14.7813 13.8822 13.6627 15.0482 12.2424 15.1185Z" fill="#0515F6" stroke="#0515F6" stroke-width="1.5"/>
<path d="M8.97015 17.9399C7.46015 18.9499 7.46015 20.6099 8.97015 21.6099C10.6901 22.7599 13.5101 22.7599 15.2301 21.6099C16.7401 20.5999 16.7401 18.9399 15.2301 17.9399C13.5201 16.7899 10.7001 16.7899 8.97015 17.9399Z" fill="#0515F6"/>
</svg>
