<svg width="25" height="24" viewBox="0 0 25 24" fill="none" xmlns="http://www.w3.org/2000/svg">
<path d="M21.13 8.01002L14.58 2.77002C13.3 1.75002 11.3 1.74002 10.03 2.76002L3.48001 8.01002C2.54001 8.76002 1.97001 10.26 2.17001 11.44L3.43001 18.98C3.72001 20.67 5.29001 22 7.00001 22H17.6C19.29 22 20.89 20.64 21.18 18.97L22.44 11.43C22.62 10.26 22.05 8.76002 21.13 8.01002ZM13.05 18C13.05 18.41 12.71 18.75 12.3 18.75C11.89 18.75 11.55 18.41 11.55 18V15C11.55 14.59 11.89 14.25 12.3 14.25C12.71 14.25 13.05 14.59 13.05 15V18Z" fill="#0515F6"/>
</svg>
