<svg width="25" height="24" viewBox="0 0 25 24" fill="none" xmlns="http://www.w3.org/2000/svg">
<path d="M12.1399 12.0004C12.1399 11.6946 12.3941 11.4404 12.6999 11.4404C13.0057 11.4404 13.2599 11.6946 13.2599 12.0004C13.2599 12.3062 13.0057 12.5604 12.6999 12.5604C12.3941 12.5604 12.1399 12.3062 12.1399 12.0004Z" fill="#292D32" stroke="#0515F6" stroke-width="1.5"/>
<path d="M7.69989 10.6904C6.97989 10.6904 6.38989 11.2804 6.38989 12.0004C6.38989 12.7204 6.97989 13.3104 7.69989 13.3104C8.41989 13.3104 9.00989 12.7204 9.00989 12.0004C9.00989 11.2804 8.41989 10.6904 7.69989 10.6904Z" fill="#0515F6"/>
<path d="M17.6999 10.6904C16.9799 10.6904 16.3899 11.2804 16.3899 12.0004C16.3899 12.7204 16.9799 13.3104 17.6999 13.3104C18.4199 13.3104 19.0099 12.7204 19.0099 12.0004C19.0099 11.2804 18.4199 10.6904 17.6999 10.6904Z" fill="#0515F6"/>
</svg>
