<svg width="25" height="24" viewBox="0 0 25 24" fill="none" xmlns="http://www.w3.org/2000/svg">
<path d="M5.69995 10C4.59995 10 3.69995 10.9 3.69995 12C3.69995 13.1 4.59995 14 5.69995 14C6.79995 14 7.69995 13.1 7.69995 12C7.69995 10.9 6.79995 10 5.69995 10Z" stroke="#707070" stroke-width="1.5"/>
<path d="M19.7 10C18.6 10 17.7 10.9 17.7 12C17.7 13.1 18.6 14 19.7 14C20.8 14 21.7 13.1 21.7 12C21.7 10.9 20.8 10 19.7 10Z" stroke="#707070" stroke-width="1.5"/>
<path d="M12.7 10C11.6 10 10.7 10.9 10.7 12C10.7 13.1 11.6 14 12.7 14C13.8 14 14.7 13.1 14.7 12C14.7 10.9 13.8 10 12.7 10Z" stroke="#707070" stroke-width="1.5"/>
</svg>
