<svg width="25" height="24" viewBox="0 0 25 24" fill="none" xmlns="http://www.w3.org/2000/svg">
<path d="M17.6555 7.01822C17.5687 7.01059 17.4816 7.01059 17.3948 7.01822C16.2742 6.95633 15.3901 6.0299 15.3901 4.89C15.3901 3.71252 16.346 2.75 17.5301 2.75C18.7068 2.75 19.6688 3.7046 19.6701 4.88758C19.6616 6.0309 18.7746 6.95638 17.6555 7.01822Z" fill="#0515F6" stroke="#0515F6" stroke-width="1.5"/>
<path d="M20.4733 14.0766L20.4729 14.0769C19.7625 14.5526 18.8002 14.8188 17.8061 14.8455C17.988 14.2104 18.083 13.5434 18.0902 12.8578L18.0902 12.8579V12.85C18.0902 12.1274 17.9866 11.4228 17.7828 10.7591C18.7873 10.7829 19.7489 11.0493 20.4654 11.5249L20.4654 11.5249L20.4678 11.5265C21.1012 11.9434 21.3158 12.4189 21.3164 12.7976C21.3171 13.1772 21.1034 13.6552 20.4733 14.0766Z" fill="#0515F6" stroke="#0515F6" stroke-width="1.5"/>
<path d="M6.77534 7.01822C6.68854 7.01059 6.60148 7.01059 6.51468 7.01822C5.39406 6.95633 4.51001 6.0299 4.51001 4.89C4.51001 3.70252 5.46592 2.75 6.64001 2.75C7.8258 2.75 8.78001 3.70421 8.78001 4.89C8.78001 6.0299 7.89596 6.95633 6.77534 7.01822Z" fill="#0515F6" stroke="#0515F6" stroke-width="1.5"/>
<path d="M3.69533 11.5246L3.69533 11.5246L3.69892 11.5222C4.3599 11.0775 5.25696 10.8133 6.19935 10.7651C6.00231 11.4255 5.90022 12.1259 5.90022 12.85C5.90022 13.5418 5.9963 14.2118 6.17695 14.8476C5.25051 14.7939 4.3687 14.5275 3.69381 14.0843C3.05977 13.6624 2.84521 13.1846 2.84521 12.805C2.84521 12.4251 3.06011 11.9468 3.69533 11.5246Z" fill="#0515F6" stroke="#0515F6" stroke-width="1.5"/>
<path d="M12.2424 15.1185C12.1415 15.1102 12.0395 15.1108 11.9404 15.1186C10.5264 15.0494 9.40118 13.8816 9.40015 12.442C9.40904 10.9518 10.6072 9.75 12.1001 9.75C13.5853 9.75 14.7891 10.9531 14.7901 12.438C14.7813 13.8822 13.6627 15.0482 12.2424 15.1185Z" fill="#0515F6" stroke="#0515F6" stroke-width="1.5"/>
<path d="M8.97015 17.94C7.46015 18.95 7.46015 20.61 8.97015 21.61C10.6901 22.76 13.5101 22.76 15.2301 21.61C16.7401 20.6 16.7401 18.94 15.2301 17.94C13.5201 16.79 10.7001 16.79 8.97015 17.94Z" fill="#0515F6"/>
</svg>
