<svg width="25" height="24" viewBox="0 0 25 24" fill="none" xmlns="http://www.w3.org/2000/svg">
<path d="M12.3 18.75C11.89 18.75 11.55 18.41 11.55 18V15C11.55 14.59 11.89 14.25 12.3 14.25C12.71 14.25 13.05 14.59 13.05 15V18C13.05 18.41 12.71 18.75 12.3 18.75Z" fill="#707070"/>
<path d="M17.9 22.5599H6.70001C4.88001 22.5599 3.22001 21.1599 2.92001 19.3699L1.59001 11.3999C1.37001 10.1599 1.98001 8.56994 2.97001 7.77994L9.90001 2.22994C11.24 1.14994 13.35 1.15994 14.7 2.23994L21.63 7.77994C22.61 8.56994 23.21 10.1599 23.01 11.3999L21.68 19.3599C21.38 21.1299 19.68 22.5599 17.9 22.5599ZM12.29 2.92994C11.76 2.92994 11.23 3.08994 10.84 3.39994L3.91001 8.95994C3.35001 9.40994 2.95001 10.4499 3.07001 11.1599L4.40001 19.1199C4.58001 20.1699 5.63001 21.0599 6.70001 21.0599H17.9C18.97 21.0599 20.02 20.1699 20.2 19.1099L21.53 11.1499C21.64 10.4499 21.24 9.38994 20.69 8.94994L13.76 3.40994C13.36 3.08994 12.82 2.92994 12.29 2.92994Z" fill="#707070"/>
</svg>
