<svg width="25" height="24" viewBox="0 0 25 24" fill="none" xmlns="http://www.w3.org/2000/svg">
<path d="M19.92 11.75H16.5C16.09 11.75 15.75 11.41 15.75 11V4.01C15.75 3.27 16.04 2.58 16.56 2.06C17.08 1.54 17.77 1.25 18.51 1.25H18.52C19.77 1.26 20.95 1.75 21.85 2.64C22.75 3.55 23.24 4.75 23.24 6V8.42C23.25 10.41 21.91 11.75 19.92 11.75ZM17.25 10.25H19.92C21.08 10.25 21.75 9.58 21.75 8.42V6C21.75 5.14 21.41 4.32 20.8 3.7C20.19 3.1 19.38 2.76 18.52 2.75C18.52 2.75 18.52 2.75 18.51 2.75C18.18 2.75 17.86 2.88 17.62 3.12C17.38 3.36 17.25 3.67 17.25 4.01V10.25Z" fill="#707070"/>
<path d="M9.49976 23.33C9.02976 23.33 8.58977 23.15 8.25977 22.81L6.59973 21.14C6.50973 21.05 6.36978 21.04 6.26978 21.12L4.55975 22.4C4.02975 22.8 3.32974 22.87 2.72974 22.57C2.12974 22.27 1.75977 21.67 1.75977 21V6C1.75977 2.98 3.48977 1.25 6.50977 1.25H18.5098C18.9198 1.25 19.2598 1.59 19.2598 2C19.2598 2.41 18.9198 2.75 18.5098 2.75C17.8198 2.75 17.2598 3.31 17.2598 4V21C17.2598 21.67 16.8897 22.27 16.2897 22.57C15.6997 22.87 14.9898 22.8 14.4598 22.4L12.7498 21.12C12.6498 21.04 12.5097 21.06 12.4297 21.14L10.7498 22.82C10.4098 23.15 9.96976 23.33 9.49976 23.33ZM6.40973 19.57C6.86973 19.57 7.31973 19.74 7.65973 20.09L9.31976 21.76C9.37976 21.82 9.45976 21.83 9.49976 21.83C9.53976 21.83 9.61975 21.82 9.67975 21.76L11.3597 20.08C11.9797 19.46 12.9598 19.4 13.6498 19.93L15.3497 21.2C15.4597 21.28 15.5597 21.25 15.6097 21.22C15.6597 21.19 15.7498 21.13 15.7498 21V4C15.7498 3.55 15.8597 3.12 16.0497 2.75H6.49976C4.27976 2.75 3.24976 3.78 3.24976 6V21C3.24976 21.14 3.33977 21.2 3.38977 21.23C3.44977 21.26 3.54978 21.28 3.64978 21.2L5.35974 19.92C5.66974 19.69 6.03973 19.57 6.40973 19.57Z" fill="#707070"/>
<path d="M12.5 9.75H6.5C6.09 9.75 5.75 9.41 5.75 9C5.75 8.59 6.09 8.25 6.5 8.25H12.5C12.91 8.25 13.25 8.59 13.25 9C13.25 9.41 12.91 9.75 12.5 9.75Z" fill="#707070"/>
<path d="M11.75 13.75H7.25C6.84 13.75 6.5 13.41 6.5 13C6.5 12.59 6.84 12.25 7.25 12.25H11.75C12.16 12.25 12.5 12.59 12.5 13C12.5 13.41 12.16 13.75 11.75 13.75Z" fill="#707070"/>
</svg>
