<svg width="25" height="24" viewBox="0 0 25 24" fill="none" xmlns="http://www.w3.org/2000/svg">
<path d="M21.0481 17.9757L21.0481 17.9757L21.0442 17.9762L20.7342 18.0162L20.7342 18.0162L20.7304 18.0167C19.0089 18.2477 16.6345 18.9499 14.7313 19.7479C14.589 19.806 14.4001 19.6996 14.4001 19.5101V5.60005C14.4001 5.51836 14.4478 5.42422 14.5485 5.36893C16.2909 4.42661 18.9399 3.58723 20.7027 3.43005H20.7301C21.5159 3.43005 22.1501 4.06427 22.1501 4.85005V16.7401C22.1501 17.328 21.6457 17.9018 21.0481 17.9757Z" fill="#0515F6" stroke="#0515F6" stroke-width="1.5"/>
<path d="M4.74612 17.9762L4.74612 17.9762L4.74222 17.9757C4.14455 17.9018 3.64014 17.328 3.64014 16.7401V4.85005C3.64014 4.06427 4.27435 3.43005 5.06014 3.43005H5.09754C6.86035 3.58723 9.50936 4.42661 11.2518 5.36893C11.3439 5.41947 11.3901 5.49886 11.3901 5.60005V19.5101C11.3901 19.7001 11.2003 19.8066 11.0578 19.7474L10.7702 20.44L11.0602 19.7484C9.15678 18.9502 6.78175 18.2477 5.05985 18.0167L5.05612 18.0162L4.74612 17.9762ZM8.15014 6.99005H5.90014C5.07592 6.99005 4.40014 7.66584 4.40014 8.49005C4.40014 9.33077 5.08246 9.99005 5.90014 9.99005C5.07592 9.99005 4.40014 10.6658 4.40014 11.4901C4.40014 12.3308 5.08246 12.9901 5.90014 12.9901H8.90014C9.71782 12.9901 10.4001 12.3308 10.4001 11.4901C10.4001 10.6658 9.72435 9.99005 8.90014 9.99005H8.15014C8.96782 9.99005 9.65014 9.33077 9.65014 8.49005C9.65014 7.66584 8.97435 6.99005 8.15014 6.99005Z" fill="#0515F6" stroke="#0515F6" stroke-width="1.5"/>
</svg>
