<svg width="25" height="24" viewBox="0 0 25 24" fill="none" xmlns="http://www.w3.org/2000/svg">
<path d="M22.9001 16.7399V4.66994C22.9001 3.46994 21.9201 2.57994 20.7301 2.67994H20.6701C18.5701 2.85994 15.3801 3.92994 13.6001 5.04994L13.4301 5.15994C13.1401 5.33994 12.6601 5.33994 12.3701 5.15994L12.1201 5.00994C10.3401 3.89994 7.16015 2.83994 5.06015 2.66994C3.87015 2.56994 2.90015 3.46994 2.90015 4.65994V16.7399C2.90015 17.6999 3.68015 18.5999 4.64015 18.7199L4.93015 18.7599C7.10015 19.0499 10.4501 20.1499 12.3701 21.1999L12.4101 21.2199C12.6801 21.3699 13.1101 21.3699 13.3701 21.2199C15.2901 20.1599 18.6501 19.0499 20.8301 18.7599L21.1601 18.7199C22.1201 18.5999 22.9001 17.6999 22.9001 16.7399Z" stroke="#707070" stroke-width="1.5" stroke-linecap="round" stroke-linejoin="round"/>
<path d="M12.9001 5.48999V20.49" stroke="#707070" stroke-width="1.5" stroke-linecap="round" stroke-linejoin="round"/>
<path d="M8.65015 8.48999H6.40015" stroke="#707070" stroke-width="1.5" stroke-linecap="round" stroke-linejoin="round"/>
<path d="M9.40015 11.49H6.40015" stroke="#707070" stroke-width="1.5" stroke-linecap="round" stroke-linejoin="round"/>
</svg>
