<svg width="25" height="24" viewBox="0 0 25 24" fill="none" xmlns="http://www.w3.org/2000/svg">
<path d="M21.0481 17.9756L21.0481 17.9756L21.0442 17.9761L20.7342 18.0161L20.7342 18.0161L20.7304 18.0166C19.0089 18.2475 16.6345 18.9498 14.7313 19.7478C14.589 19.8059 14.4001 19.6995 14.4001 19.5099V5.59993C14.4001 5.51824 14.4478 5.4241 14.5485 5.36881C16.2909 4.42649 18.9399 3.58711 20.7027 3.42993H20.7301C21.5159 3.42993 22.1501 4.06415 22.1501 4.84993V16.7399C22.1501 17.3279 21.6457 17.9017 21.0481 17.9756Z" fill="#0515F6" stroke="#0515F6" stroke-width="1.5"/>
<path d="M4.74612 17.9761L4.74612 17.9761L4.74222 17.9756C4.14455 17.9017 3.64014 17.3279 3.64014 16.7399V4.84993C3.64014 4.06414 4.27435 3.42993 5.06014 3.42993H5.09754C6.86035 3.58711 9.50936 4.42649 11.2518 5.3688C11.3439 5.41935 11.3901 5.49874 11.3901 5.59993V19.5099C11.3901 19.7 11.2003 19.8065 11.0578 19.7473L10.7702 20.4399L11.0602 19.7483C9.15678 18.9501 6.78175 18.2476 5.05985 18.0166L5.05612 18.0161L4.74612 17.9761ZM8.15014 6.98993H5.90014C5.07592 6.98993 4.40014 7.66572 4.40014 8.48993C4.40014 9.33065 5.08246 9.98993 5.90014 9.98993C5.07592 9.98993 4.40014 10.6657 4.40014 11.4899C4.40014 12.3306 5.08246 12.9899 5.90014 12.9899H8.90014C9.71782 12.9899 10.4001 12.3306 10.4001 11.4899C10.4001 10.6657 9.72435 9.98993 8.90014 9.98993H8.15014C8.96782 9.98993 9.65014 9.33065 9.65014 8.48993C9.65014 7.66572 8.97435 6.98993 8.15014 6.98993Z" fill="#0515F6" stroke="#0515F6" stroke-width="1.5"/>
</svg>
