<svg width="60" height="83" viewBox="0 0 60 83" fill="none" xmlns="http://www.w3.org/2000/svg">
<path d="M59.8405 5.62288H1.58447V83H59.8405V5.62288Z" fill="#3744F8"/>
<g opacity="0.1">
<path d="M59.8405 5.62288H1.58447V83H59.8405V5.62288Z" fill="#020100"/>
</g>
<path d="M58.2561 5.62288H0V83H58.2561V5.62288Z" fill="#3744F8"/>
<path d="M54.9434 8.71148L3.52002 9.3667L4.40821 79.0749L55.8316 78.4197L54.9434 8.71148Z" fill="#EBEBEB"/>
<path d="M3.93735 8.49448L2.42871 78.192L53.8442 79.3049L55.3528 9.60739L3.93735 8.49448Z" fill="#DBDBDB"/>
<path d="M54.5994 9.0385H3.17188V78.7523H54.5994V9.0385Z" fill="white"/>
<path d="M14.5899 30.1601C13.2173 30.1946 10.5543 30.2476 9.18167 30.2635C9.15252 28.6736 9.16047 26.4504 9.14722 24.8499V24.7174H9.27971C10.8881 24.7333 13.106 24.7174 14.6933 24.7492C14.6747 26.1245 14.627 28.7875 14.5899 30.1601ZM14.5899 30.1601C14.5555 28.8352 14.5078 26.1854 14.4892 24.8605L14.5899 24.9612C13.0557 24.9798 10.8378 24.9851 9.29031 24.993L9.4228 24.8605C9.4228 26.4266 9.40955 28.6259 9.391 30.1601L9.29031 30.0595C10.6152 30.0753 13.2783 30.1283 14.5899 30.1601Z" fill="#C7C7C7"/>
<path d="M17.4119 25.7588C21.3044 25.5786 25.2288 25.5786 29.1214 25.7588C25.2262 25.9416 21.3044 25.939 17.4119 25.7588Z" fill="#C7C7C7"/>
<path d="M17.4119 27.0387C27.3963 26.8611 38.4964 26.8664 48.4888 27.0387C38.4938 27.2082 27.399 27.2135 17.4119 27.0387Z" fill="#C7C7C7"/>
<path d="M9.67188 27.2294C9.86796 27.3937 10.0535 27.5633 10.2389 27.7356C10.4244 27.9078 10.602 28.0853 10.7689 28.2655C11.1266 28.6179 11.4711 28.981 11.8103 29.3493L11.2035 29.389C11.6853 28.3797 12.2378 27.4057 12.8569 26.4742C13.1643 26.0114 13.4911 25.5592 13.8374 25.1175C14.1868 24.6714 14.5657 24.2491 14.9715 23.8536C14.8093 24.3962 14.611 24.9273 14.3779 25.4435C14.1527 25.9549 13.9036 26.4557 13.636 26.9433C13.102 27.9211 12.5017 28.8614 11.8394 29.7574L11.5055 30.2025L11.2406 29.7971C10.9597 29.3811 10.6841 28.9624 10.4191 28.5358C10.2919 28.3185 10.1541 28.1065 10.0323 27.8866C9.91036 27.6667 9.78052 27.4573 9.67188 27.2294Z" fill="#263238"/>
<path d="M14.5899 40.1181C13.2173 40.1526 10.5543 40.2056 9.18167 40.2215C9.15252 38.6316 9.16047 36.411 9.14722 34.8079V34.6754H9.27971C10.8881 34.6913 13.106 34.6754 14.6933 34.7099C14.6747 36.0851 14.627 38.7455 14.5899 40.1181ZM14.5899 40.1181C14.5555 38.7932 14.5078 36.1434 14.4892 34.8185L14.5899 34.9218C13.0557 34.9404 10.8378 34.943 9.29031 34.951L9.4228 34.8185C9.4228 36.3845 9.40955 38.5865 9.391 40.1181L9.29031 40.0174C10.6152 40.0333 13.2783 40.0863 14.5899 40.1181Z" fill="#C7C7C7"/>
<path d="M17.4119 35.7088C21.3044 35.5286 25.2288 35.526 29.1214 35.7088C25.2262 35.889 21.3044 35.889 17.4119 35.7088Z" fill="#C7C7C7"/>
<path d="M17.4119 36.9861C27.3963 36.8112 38.4964 36.8138 48.4888 36.9861C38.4938 37.1583 27.399 37.1636 17.4119 36.9861Z" fill="#C7C7C7"/>
<path d="M9.67188 37.1768C9.86796 37.3411 10.0535 37.5107 10.2389 37.6829C10.4244 37.8552 10.602 38.0327 10.7689 38.2129C11.1266 38.568 11.4711 38.931 11.8103 39.2993L11.2035 39.3364C11.6864 38.3328 12.2389 37.3641 12.8569 36.4375C13.1643 35.9747 13.4911 35.5225 13.8374 35.0808C14.1861 34.6341 14.565 34.2118 14.9715 33.8169C14.8094 34.3595 14.6111 34.8907 14.3779 35.4067C14.1527 35.9208 13.9036 36.419 13.636 36.9092C13.102 37.8862 12.5017 38.8256 11.8394 39.7206L11.5055 40.1685L11.2406 39.7604C10.9597 39.347 10.6841 38.9283 10.4191 38.4991C10.2919 38.2818 10.1541 38.0698 10.0323 37.8499C9.91036 37.6299 9.78052 37.4047 9.67188 37.1768Z" fill="#263238"/>
<path d="M14.5899 50.0576C13.2173 50.092 10.5543 50.145 9.18167 50.1609C9.15252 48.571 9.16047 46.3478 9.14722 44.7473V44.6228H9.27971C10.8881 44.6387 13.106 44.6228 14.6933 44.6546C14.6747 46.0299 14.627 48.6903 14.5899 50.0655V50.0576ZM14.5899 50.0576C14.5555 48.7327 14.5078 46.0828 14.4892 44.7579L14.5899 44.8586C13.0557 44.8772 10.8378 44.8825 9.29031 44.8904L9.4228 44.7579C9.4228 46.324 9.40955 48.5233 9.391 50.0576L9.29031 49.9569C10.6152 49.9728 13.2783 50.0258 14.5899 50.0576Z" fill="#C7C7C7"/>
<path d="M17.4119 45.6562C21.3044 45.476 25.2288 45.476 29.1214 45.6562C25.2262 45.8364 21.3044 45.8364 17.4119 45.6562Z" fill="#C7C7C7"/>
<path d="M17.4119 46.9361C27.3963 46.7585 38.4964 46.7638 48.4888 46.9361C38.4938 47.1057 27.399 47.111 17.4119 46.9361Z" fill="#C7C7C7"/>
<path d="M14.5899 60.005C13.2173 60.0394 10.5543 60.0924 9.18167 60.1083C9.15252 58.5184 9.16047 56.2979 9.14722 54.6947V54.5623H9.27971C10.8881 54.5782 13.106 54.5623 14.6933 54.5967C14.6747 55.9693 14.627 58.6324 14.5899 60.005ZM14.5899 60.005C14.5555 58.6801 14.5078 56.0303 14.4892 54.7053L14.5899 54.8087C13.0557 54.8272 10.8378 54.8299 9.29031 54.8378L9.4228 54.7053C9.4228 56.2714 9.40955 58.4734 9.391 60.005L9.29031 59.9043C10.6152 59.9202 13.2783 59.9732 14.5899 60.005Z" fill="#C7C7C7"/>
<path d="M17.4119 55.6063C21.3044 55.4234 25.2288 55.4234 29.1214 55.6063C25.2262 55.7865 21.3044 55.7865 17.4119 55.6063Z" fill="#C7C7C7"/>
<path d="M17.4119 56.8835C27.3963 56.7086 38.4964 56.7112 48.4888 56.8835C38.4938 57.0557 27.399 57.061 17.4119 56.8835Z" fill="#C7C7C7"/>
<path d="M14.5899 69.955C13.2173 69.9894 10.5543 70.0398 9.18167 70.0583C9.15252 68.4684 9.16047 66.2452 9.14722 64.6448V64.5123H9.27971C10.8881 64.5282 13.106 64.5123 14.6933 64.5441C14.6747 65.9193 14.627 68.5797 14.5899 69.955ZM14.5899 69.955C14.5555 68.6301 14.5078 65.967 14.4892 64.6554L14.5899 64.7561C13.0557 64.7746 10.8378 64.7799 9.29031 64.7879L9.4228 64.6554C9.4228 66.2214 9.40955 68.4207 9.391 69.955L9.29031 69.8543C10.6152 69.8702 13.2783 69.9232 14.5899 69.955Z" fill="#C7C7C7"/>
<path d="M17.4119 65.5563C21.3044 65.3761 25.2288 65.3761 29.1214 65.5563C25.2262 65.7365 21.3044 65.7365 17.4119 65.5563Z" fill="#C7C7C7"/>
<path d="M17.4119 66.8335C27.3963 66.656 38.4964 66.6613 48.4888 66.8335C38.4938 67.0031 27.399 67.0084 17.4119 66.8335Z" fill="#C7C7C7"/>
<path d="M24.0497 16.45H23.3369V18.8349C23.3369 18.9002 23.3109 18.9629 23.2647 19.0091C23.2185 19.0553 23.1558 19.0813 23.0905 19.0813C23.0251 19.0813 22.9624 19.0553 22.9162 19.0091C22.87 18.9629 22.844 18.9002 22.844 18.8349V16.45H22.1339C22.0683 16.4493 22.0056 16.4228 21.9595 16.3761C21.9133 16.3295 21.8875 16.2665 21.8875 16.2009C21.8871 16.1685 21.8932 16.1363 21.9055 16.1062C21.9178 16.0762 21.9359 16.0489 21.9589 16.0259C21.9818 16.0029 22.0091 15.9848 22.0392 15.9725C22.0692 15.9603 22.1014 15.9542 22.1339 15.9545H24.0497C24.0822 15.9542 24.1144 15.9603 24.1444 15.9725C24.1745 15.9848 24.2018 16.0029 24.2248 16.0259C24.2477 16.0489 24.2659 16.0762 24.2781 16.1062C24.2904 16.1363 24.2965 16.1685 24.2961 16.2009C24.2924 16.2653 24.2653 16.3262 24.22 16.372C24.1746 16.4179 24.1141 16.4456 24.0497 16.45Z" fill="#3744F8"/>
<path d="M26.2093 18.3526H25.1202L24.9003 18.9355C24.8816 18.982 24.8494 19.0218 24.8078 19.0497C24.7662 19.0776 24.7172 19.0923 24.6671 19.0919C24.6383 19.0918 24.6097 19.0873 24.5823 19.0786C24.5219 19.0527 24.4732 19.0053 24.4458 18.9456C24.4184 18.8858 24.4141 18.818 24.4339 18.7554L25.4249 16.1055C25.4456 16.0595 25.4791 16.0203 25.5213 15.9926C25.5636 15.9649 25.6129 15.9498 25.6634 15.9492C25.7139 15.9498 25.7632 15.9649 25.8055 15.9926C25.8477 16.0203 25.8812 16.0595 25.9019 16.1055L26.8929 18.7554C26.9127 18.818 26.9085 18.8858 26.881 18.9456C26.8536 19.0053 26.805 19.0527 26.7445 19.0786C26.7171 19.0873 26.6885 19.0918 26.6597 19.0919C26.61 19.0925 26.5612 19.0778 26.5199 19.0499C26.4787 19.0219 26.4471 18.982 26.4292 18.9355L26.2093 18.3526ZM26.0264 17.8597L25.6634 16.8952L25.3004 17.8597H26.0264Z" fill="#3744F8"/>
<path d="M27.33 18.3128C27.3495 18.2891 27.3734 18.2695 27.4005 18.2551C27.4276 18.2407 27.4572 18.2317 27.4877 18.2288C27.5182 18.2258 27.549 18.2289 27.5784 18.2379C27.6077 18.2468 27.6349 18.2615 27.6586 18.281C27.8989 18.4858 28.1993 18.6068 28.5145 18.6255C28.7146 18.6302 28.9111 18.5718 29.0762 18.4586C29.1315 18.4245 29.1778 18.3775 29.211 18.3217C29.2442 18.2658 29.2634 18.2028 29.267 18.1379C29.2682 18.0865 29.2544 18.0359 29.2273 17.9922C29.1927 17.9385 29.1465 17.8933 29.0921 17.8597C28.9024 17.7531 28.6951 17.6813 28.48 17.6477C28.2807 17.6146 28.0866 17.5558 27.9024 17.4728C27.7325 17.3982 27.5874 17.2769 27.4837 17.1231C27.4162 17.0122 27.3813 16.8845 27.383 16.7547C27.3874 16.6253 27.422 16.4987 27.4842 16.385C27.5463 16.2713 27.6341 16.1738 27.7407 16.1002C27.969 15.9433 28.2402 15.8609 28.5171 15.8644C28.8716 15.8824 29.2125 16.0071 29.4949 16.2221C29.5448 16.2565 29.5792 16.3091 29.5906 16.3686C29.602 16.4281 29.5895 16.4897 29.5559 16.5401C29.54 16.566 29.519 16.5884 29.4942 16.606C29.4694 16.6236 29.4413 16.636 29.4116 16.6424C29.3819 16.6489 29.3512 16.6492 29.3213 16.6435C29.2915 16.6377 29.2631 16.626 29.2379 16.609C29.033 16.441 28.7813 16.3402 28.5171 16.3202C28.3374 16.3176 28.1613 16.3713 28.0137 16.4738C27.9647 16.5034 27.9237 16.5444 27.8942 16.5933C27.8647 16.6423 27.8475 16.6977 27.8441 16.7547C27.841 16.7994 27.8521 16.8439 27.8759 16.8819C27.9074 16.9284 27.9479 16.9681 27.9951 16.9985C28.1684 17.0986 28.359 17.1652 28.5569 17.1946C28.7704 17.2318 28.9787 17.295 29.1769 17.3827C29.3582 17.4629 29.5134 17.5924 29.6248 17.7564C29.6954 17.8711 29.733 18.0032 29.7334 18.1379C29.729 18.2761 29.6916 18.4112 29.6242 18.532C29.5569 18.6528 29.4617 18.7557 29.3465 18.8322C29.1052 19.0063 28.8147 19.0991 28.5171 19.0972C28.0958 19.0782 27.6925 18.9208 27.3698 18.6493C27.3449 18.6299 27.3242 18.6058 27.3087 18.5784C27.2933 18.5509 27.2834 18.5207 27.2797 18.4894C27.276 18.4581 27.2786 18.4264 27.2872 18.3961C27.2958 18.3658 27.3104 18.3375 27.33 18.3128Z" fill="#3744F8"/>
<path d="M30.4197 18.8455V16.2222C30.4197 16.1568 30.4456 16.0941 30.4919 16.0479C30.5381 16.0017 30.6008 15.9757 30.6661 15.9757C30.7315 15.9757 30.7941 16.0017 30.8404 16.0479C30.8866 16.0941 30.9125 16.1568 30.9125 16.2222V17.51L32.3646 16.0526C32.3874 16.0292 32.4145 16.0106 32.4446 15.9979C32.4746 15.9852 32.5069 15.9786 32.5395 15.9786C32.5721 15.9786 32.6044 15.9852 32.6345 15.9979C32.6645 16.0106 32.6917 16.0292 32.7144 16.0526C32.7604 16.0992 32.7861 16.162 32.7861 16.2275C32.7861 16.2929 32.7604 16.3557 32.7144 16.4023L31.7287 17.3828L32.725 18.6891C32.746 18.7138 32.7618 18.7425 32.7714 18.7735C32.7809 18.8045 32.7841 18.8371 32.7806 18.8694C32.7771 18.9016 32.7671 18.9328 32.7512 18.961C32.7353 18.9893 32.7137 19.014 32.6879 19.0336C32.6449 19.0719 32.5891 19.0927 32.5316 19.0919C32.4964 19.0911 32.4617 19.0827 32.4302 19.0671C32.3986 19.0516 32.3708 19.0293 32.3487 19.0018L31.3789 17.7325L30.9125 18.2095V18.8455C30.9125 18.9108 30.8866 18.9735 30.8404 19.0197C30.7941 19.0659 30.7315 19.0919 30.6661 19.0919C30.6008 19.0919 30.5381 19.0659 30.4919 19.0197C30.4456 18.9735 30.4197 18.9108 30.4197 18.8455Z" fill="#3744F8"/>
<path d="M33.4829 18.3128C33.502 18.2889 33.5256 18.2691 33.5524 18.2545C33.5793 18.2399 33.6088 18.2308 33.6392 18.2279C33.6696 18.2249 33.7003 18.2281 33.7294 18.2372C33.7586 18.2463 33.7856 18.2612 33.8089 18.281C34.0493 18.4855 34.3497 18.6064 34.6648 18.6255C34.8649 18.6302 35.0614 18.5718 35.2265 18.4586C35.2825 18.4249 35.3293 18.3782 35.3631 18.3223C35.3968 18.2664 35.4163 18.2031 35.42 18.1379C35.4213 18.0861 35.4065 18.0352 35.3776 17.9922C35.3433 17.9391 35.2981 17.894 35.2451 17.8597C35.0545 17.7527 34.8463 17.6809 34.6303 17.6477C34.431 17.6146 34.2368 17.5558 34.0527 17.4728C33.8832 17.3988 33.7387 17.2773 33.6366 17.1231C33.5671 17.0129 33.5312 16.8849 33.5333 16.7547C33.5377 16.6253 33.5723 16.4987 33.6344 16.385C33.6965 16.2713 33.7844 16.1738 33.891 16.1002C34.1192 15.9433 34.3905 15.8609 34.6674 15.8644C35.022 15.8819 35.363 16.0067 35.6452 16.2221C35.6965 16.2573 35.7317 16.3113 35.7432 16.3725C35.7546 16.4336 35.7413 16.4967 35.7061 16.548C35.671 16.5993 35.6169 16.6346 35.5558 16.646C35.4947 16.6574 35.4315 16.6441 35.3802 16.609C35.1753 16.441 34.9237 16.3402 34.6595 16.3202C34.4797 16.3176 34.3037 16.3713 34.156 16.4738C34.1075 16.5039 34.0669 16.545 34.0374 16.5939C34.0079 16.6427 33.9904 16.6978 33.9864 16.7547C33.9846 16.7993 33.9957 16.8434 34.0182 16.8819C34.0508 16.9284 34.0922 16.968 34.1401 16.9985C34.3124 17.0987 34.5021 17.1652 34.6992 17.1946C34.9118 17.2322 35.1191 17.2954 35.3166 17.3827C35.4979 17.4629 35.653 17.5924 35.7644 17.7564C35.8363 17.8706 35.874 18.003 35.8731 18.1379C35.8687 18.2761 35.8312 18.4112 35.7639 18.532C35.6966 18.6528 35.6014 18.7557 35.4862 18.8322C35.245 19.0066 34.9544 19.0995 34.6568 19.0972C34.2357 19.0771 33.8328 18.9198 33.5094 18.6493C33.4853 18.6292 33.4654 18.6044 33.4509 18.5765C33.4365 18.5486 33.4278 18.518 33.4253 18.4867C33.4228 18.4553 33.4266 18.4238 33.4365 18.3939C33.4464 18.3641 33.4622 18.3365 33.4829 18.3128Z" fill="#3744F8"/>
<path d="M41.1991 4.21056H15.9385V11.9109H41.1991V4.21056Z" fill="#C7C7C7"/>
<path d="M36.2917 0H20.6154L19.9211 4.21055H37.2191L36.2917 0ZM28.5675 3.02078C28.3846 3.02078 28.2058 2.96655 28.0537 2.86493C27.9016 2.76331 27.7831 2.61888 27.7131 2.4499C27.6431 2.28092 27.6248 2.09497 27.6605 1.91558C27.6961 1.73619 27.7842 1.57141 27.9136 1.44208C28.0429 1.31275 28.2077 1.22467 28.3871 1.18899C28.5665 1.1533 28.7524 1.17162 28.9214 1.24161C29.0904 1.31161 29.2348 1.43014 29.3364 1.58222C29.438 1.7343 29.4923 1.91309 29.4923 2.096C29.4926 2.21754 29.4689 2.33796 29.4226 2.45031C29.3762 2.56267 29.3081 2.66476 29.2222 2.7507C29.1362 2.83665 29.0341 2.90475 28.9218 2.9511C28.8094 2.99745 28.689 3.02113 28.5675 3.02078Z" fill="#C7C7C7"/>
<path d="M37.2191 4.21053H19.9211L20.0775 3.26985H37.0098L37.2191 4.21053Z" fill="#A6A6A6"/>
</svg>
