<svg width="118" height="150" viewBox="0 0 118 150" fill="none" xmlns="http://www.w3.org/2000/svg">
<path d="M0.692214 124.069L44.8132 149.535C45.3314 149.799 45.9046 149.936 46.486 149.936C47.0674 149.936 47.6406 149.799 48.1589 149.535L116.965 109.814C117.888 109.279 117.888 108.418 116.965 107.891L72.844 82.4095C72.3264 82.1461 71.7538 82.0088 71.173 82.0088C70.5923 82.0088 70.0197 82.1461 69.5021 82.4095L0.692214 122.146C-0.230738 122.669 -0.230738 123.531 0.692214 124.069Z" fill="#E0E0E0"/>
<path d="M2.08051 117.916L44.9516 142.671C45.4755 142.936 46.0545 143.075 46.6418 143.075C47.2291 143.075 47.8081 142.936 48.3319 142.671L116.303 103.434C117.238 102.895 117.238 102.022 116.303 101.484L73.4285 76.7296C72.9047 76.464 72.3257 76.3256 71.7384 76.3256C71.1511 76.3256 70.5721 76.464 70.0482 76.7296L2.08051 115.993C1.14602 116.513 1.14602 117.386 2.08051 117.916Z" fill="#37474F"/>
<path d="M44.9516 142.678L2.08051 117.916C1.246 117.436 1.15756 116.686 1.81516 116.147C1.3973 116.479 1.05418 116.894 0.808307 117.368C0.56243 117.841 0.419343 118.361 0.388428 118.893V120.481C0.420433 121.068 0.590313 121.64 0.884295 122.149C1.17828 122.658 1.58809 123.091 2.08051 123.412L44.9516 148.162C45.4721 148.439 46.0545 148.578 46.6437 148.566V143.082C46.0545 143.094 45.4721 142.955 44.9516 142.678Z" fill="#455A64"/>
<path d="M116.304 108.925C116.795 108.605 117.205 108.173 117.498 107.664C117.791 107.155 117.961 106.585 117.992 105.999V104.41C117.961 103.878 117.818 103.358 117.572 102.885C117.326 102.412 116.983 101.996 116.565 101.665C117.223 102.203 117.138 102.953 116.304 103.434L48.332 142.678C47.8127 142.954 47.2317 143.093 46.6438 143.082V148.574C47.2317 148.585 47.8127 148.446 48.332 148.17L116.304 108.925Z" fill="#263238"/>
<path d="M25.0889 129.349C25.8162 129.719 26.6206 129.912 27.4366 129.912C28.2526 129.912 29.057 129.719 29.7844 129.349C31.0804 128.58 31.0804 127.388 29.7844 126.638C29.0564 126.27 28.2522 126.079 27.4366 126.079C26.621 126.079 25.8168 126.27 25.0889 126.638C23.8083 127.388 23.8083 128.603 25.0889 129.349Z" fill="#263238"/>
<path d="M51.6239 137.425L10.5872 113.717C10.0295 113.394 10.0295 112.867 10.5872 112.544L64.0415 81.6712C64.3555 81.512 64.7027 81.4291 65.0548 81.4291C65.4069 81.4291 65.754 81.512 66.0681 81.6712L107.105 105.379C107.666 105.703 107.666 106.226 107.105 106.533L53.6506 137.41C53.3377 137.571 52.9912 137.657 52.6391 137.66C52.287 137.662 51.9392 137.582 51.6239 137.425Z" fill="white"/>
<path d="M91.7644 90.8469C91.9487 90.9398 92.1522 90.9883 92.3585 90.9883C92.5649 90.9883 92.7684 90.9398 92.9527 90.8469C93.0167 90.815 93.0705 90.7659 93.1082 90.7051C93.1458 90.6443 93.1657 90.5742 93.1657 90.5027C93.1657 90.4312 93.1458 90.3611 93.1082 90.3003C93.0705 90.2395 93.0167 90.1904 92.9527 90.1585C92.7684 90.0656 92.5649 90.0171 92.3585 90.0171C92.1522 90.0171 91.9487 90.0656 91.7644 90.1585C91.4337 90.347 91.4337 90.6546 91.7644 90.8469Z" fill="#263238"/>
<path d="M93.6641 96.2384C94.0326 96.4244 94.4396 96.5212 94.8524 96.5212C95.2652 96.5212 95.6722 96.4244 96.0407 96.2384C96.6983 95.8539 96.6983 95.2424 96.0407 94.8655C95.6727 94.6778 95.2655 94.58 94.8524 94.58C94.4393 94.58 94.0321 94.6778 93.6641 94.8655C93.0065 95.227 93.0065 95.8577 93.6641 96.2384Z" fill="#263238"/>
<path d="M92.0029 93.8465C92.4413 93.5965 92.4183 93.1735 91.9491 92.9043L84.1271 88.3857C83.8756 88.2522 83.5963 88.1798 83.3116 88.1745C83.027 88.1691 82.7451 88.2309 82.4888 88.3549C82.0504 88.6087 82.0735 89.0317 82.5427 89.3009L90.3647 93.8195C90.6164 93.9525 90.896 94.0242 91.1806 94.0288C91.4652 94.0335 91.747 93.971 92.0029 93.8465Z" fill="#263238"/>
<path d="M63.3491 88.0472C62.7876 88.3703 62.7876 88.8933 63.3491 89.2009L94.6141 107.256C94.9288 107.415 95.2766 107.498 95.6293 107.498C95.982 107.498 96.3298 107.415 96.6446 107.256L103.567 103.268L70.2712 84.0401L63.3491 88.0472Z" fill="#EBEBEB"/>
<path d="M63.5799 91.1814L61.084 89.7432C60.9798 89.6901 60.8645 89.6625 60.7476 89.6625C60.6306 89.6625 60.5153 89.6901 60.4111 89.7432L58.8382 90.6507C58.6498 90.7584 58.6498 90.9315 58.8382 91.0353L59.0535 91.1622L58.2575 91.5852C58.1652 91.6352 58.1729 91.666 58.2806 91.6583L59.6804 91.5237L61.334 92.4774C61.4394 92.529 61.5551 92.5559 61.6724 92.5559C61.7897 92.5559 61.9055 92.529 62.0108 92.4774L63.5799 91.5698C63.6193 91.5549 63.6532 91.5283 63.6772 91.4937C63.7011 91.459 63.714 91.4178 63.714 91.3756C63.714 91.3335 63.7011 91.2923 63.6772 91.2576C63.6532 91.2229 63.6193 91.1964 63.5799 91.1814Z" fill="#EBEBEB"/>
<path d="M64.3143 94.9347L64.1297 94.5502C63.8913 94.0464 63.7452 93.3619 64.4374 92.9658C64.6997 92.833 64.9895 92.7638 65.2834 92.7638C65.5774 92.7638 65.8672 92.833 66.1295 92.9658C66.491 93.1734 66.5717 93.4849 66.3717 93.7349C66.8207 93.612 67.2994 93.6613 67.7139 93.8734C67.8166 93.9067 67.9062 93.9718 67.9697 94.0591C68.0332 94.1465 68.0674 94.2518 68.0674 94.3598C68.0674 94.4679 68.0332 94.5731 67.9697 94.6605C67.9062 94.7479 67.8166 94.8129 67.7139 94.8463C67.037 95.2309 65.8526 95.1616 64.9796 95.027L64.3143 94.9347Z" fill="#EBEBEB"/>
<path d="M30.0498 108.441L61.3186 126.496C61.6334 126.655 61.9811 126.738 62.3338 126.738C62.6866 126.738 63.0343 126.655 63.3491 126.496L87.6996 112.432C88.2573 112.109 88.2573 111.586 87.6996 111.279L56.4308 93.2081C56.116 93.0489 55.7683 92.966 55.4156 92.966C55.0628 92.966 54.7151 93.0489 54.4003 93.2081L30.0498 107.272C29.4883 107.595 29.4883 108.118 30.0498 108.441Z" fill="#EBEBEB"/>
<path d="M30.2882 110.406L27.7809 108.964C27.6755 108.912 27.5598 108.885 27.4424 108.885C27.3251 108.885 27.2094 108.912 27.104 108.964L25.5312 109.871C25.493 109.887 25.4603 109.913 25.4373 109.948C25.4142 109.982 25.4019 110.022 25.4019 110.063C25.4019 110.105 25.4142 110.145 25.4373 110.179C25.4603 110.214 25.493 110.24 25.5312 110.256L25.7504 110.383L24.9543 110.802C24.8582 110.852 24.8697 110.886 24.9543 110.875L26.3541 110.744L28.0078 111.698C28.1131 111.75 28.2289 111.776 28.3462 111.776C28.4635 111.776 28.5792 111.75 28.6846 111.698L30.2575 110.786C30.2974 110.775 30.333 110.752 30.3594 110.72C30.3857 110.688 30.4017 110.648 30.405 110.607C30.4084 110.565 30.399 110.524 30.3781 110.488C30.3572 110.452 30.3259 110.423 30.2882 110.406Z" fill="#EBEBEB"/>
<path d="M31.0035 114.155L30.8227 113.771C30.5804 113.267 30.4381 112.582 31.1304 112.182C31.3919 112.05 31.6811 111.98 31.9745 111.98C32.2678 111.98 32.557 112.05 32.8186 112.182C33.2032 112.394 33.2647 112.705 33.0609 112.952C33.5115 112.833 33.9898 112.882 34.4068 113.09C34.5091 113.124 34.598 113.19 34.6609 113.278C34.7239 113.365 34.7578 113.47 34.7578 113.578C34.7578 113.686 34.7239 113.791 34.6609 113.879C34.598 113.967 34.5091 114.032 34.4068 114.067C33.73 114.451 32.5456 114.382 31.6687 114.248L31.0035 114.155Z" fill="#EBEBEB"/>
<path d="M21.1088 112.432C21.4235 112.273 21.7713 112.19 22.124 112.19C22.4767 112.19 22.8245 112.273 23.1393 112.432L54.4043 130.484C54.9657 130.807 54.9657 131.334 54.4043 131.657L48.0244 135.341L14.7366 116.113L21.1088 112.432Z" fill="#EBEBEB"/>
<path d="M55.8537 108.275L38.0562 113.055L61.3261 126.492C61.6408 126.651 61.9886 126.734 62.3413 126.734C62.694 126.734 63.0418 126.651 63.3566 126.492L63.8603 126.2L73.9013 111.467L52.5773 115.651L55.8537 108.275Z" fill="#E0E0E0"/>
<path d="M64.6183 97.9382L56.4309 93.2081C56.1161 93.0489 55.7684 92.966 55.4157 92.966C55.0629 92.966 54.7152 93.0489 54.4004 93.2081L45.2478 98.4959C45.667 99.2919 46.5322 100.034 47.8436 100.676C51.6892 102.515 57.9499 102.515 61.8071 100.676C63.4223 99.9072 64.3568 98.9381 64.6183 97.9382Z" fill="#E0E0E0"/>
<path opacity="0.2" d="M104.101 96.2731L63.0605 72.5686C62.7464 72.4095 62.3993 72.3265 62.0472 72.3265C61.6951 72.3265 61.348 72.4095 61.0339 72.5686L7.57959 103.441C7.02197 103.764 7.02197 104.287 7.57959 104.595L16.2553 109.594L48.6317 128.296C48.9458 128.455 49.2929 128.538 49.645 128.538C49.9971 128.538 50.3443 128.455 50.6584 128.296L98.7749 100.496L104.097 97.4191C104.663 97.123 104.663 96.5961 104.101 96.2731Z" fill="white"/>
<path d="M104.201 96.1038L70.2673 76.4911L63.1605 72.3994C62.8166 72.2232 62.4356 72.1313 62.0491 72.1313C61.6627 72.1313 61.2817 72.2232 60.9378 72.3994L7.48347 103.272C7.33112 103.331 7.20011 103.434 7.1077 103.569C7.01529 103.703 6.96582 103.863 6.96582 104.026C6.96582 104.189 7.01529 104.348 7.1077 104.483C7.20011 104.618 7.33112 104.721 7.48347 104.78L16.1592 109.779L48.5471 128.492C48.8909 128.669 49.2719 128.761 49.6585 128.761C50.0451 128.761 50.4261 128.669 50.7699 128.492L98.8826 100.692L104.209 97.6152C104.361 97.5557 104.491 97.4518 104.583 97.317C104.675 97.1822 104.725 97.0227 104.725 96.8595C104.725 96.6963 104.675 96.5368 104.583 96.402C104.491 96.2672 104.361 96.1633 104.209 96.1038H104.201ZM104.005 97.2767L98.6788 100.353L50.5661 128.153C50.2813 128.296 49.9673 128.37 49.6489 128.37C49.3306 128.37 49.0166 128.296 48.7317 128.153L16.3553 109.456L7.68344 104.457C7.5908 104.433 7.50868 104.379 7.45004 104.303C7.3914 104.228 7.35957 104.135 7.35957 104.039C7.35957 103.944 7.3914 103.851 7.45004 103.775C7.50868 103.7 7.5908 103.646 7.68344 103.622L61.1377 72.7493C61.4228 72.608 61.7367 72.5345 62.0549 72.5345C62.3731 72.5345 62.687 72.608 62.9721 72.7493L70.0827 76.8449L104.017 96.4576C104.109 96.4814 104.191 96.5352 104.25 96.6108C104.309 96.6863 104.34 96.7792 104.34 96.8749C104.34 96.9705 104.309 97.0634 104.25 97.139C104.191 97.2145 104.109 97.2684 104.017 97.2921L104.005 97.2767Z" fill="white"/>
<path d="M85.6846 0.139937C86.2499 -0.186942 86.7113 0.0784058 86.7113 0.732163V76.3335C86.6915 76.6899 86.5883 77.0367 86.4099 77.346C86.2316 77.6552 85.9831 77.9183 85.6846 78.114L56.1809 95.1501L52.7198 106.687C52.4083 107.733 51.7853 107.779 51.3315 106.783L48.1627 99.788L39.5485 104.76C38.9832 105.087 38.5217 104.822 38.5217 104.168V28.5669C38.541 28.2103 38.644 27.8632 38.8224 27.5539C39.0007 27.2445 39.2495 26.9816 39.5485 26.7863L85.6846 0.139937Z" fill="#3744F8"/>
<path d="M81.9158 58.5013C81.8806 58.9908 81.7302 59.465 81.477 59.8854C81.2237 60.3057 80.8747 60.6603 80.4583 60.9202L64.249 70.2804C63.4453 70.7419 62.7915 70.415 62.7915 69.5421C62.8279 69.0529 62.9788 68.5791 63.232 68.1589C63.4851 67.7388 63.8335 67.384 64.249 67.1232L80.466 57.7668C81.2659 57.3014 81.9158 57.6322 81.9158 58.5013Z" fill="white"/>
<path d="M78.9277 67.8499C78.8916 68.3392 78.7408 68.8131 78.4876 69.2333C78.2344 69.6536 77.8859 70.0083 77.4702 70.2689L64.0066 78.0524C63.2029 78.5177 62.553 78.187 62.553 77.3141C62.5884 76.8256 62.7384 76.3523 62.991 75.9327C63.2436 75.5131 63.5915 75.1589 64.0066 74.899L77.4856 67.1154C78.2893 66.6501 78.9277 66.9808 78.9277 67.8499Z" fill="white"/>
<path d="M54.6428 81.1482L54.6081 80.6944C53.8736 82.548 52.7661 83.8786 51.5316 84.59C49.3512 85.8514 47.4014 84.7323 47.4014 81.3943C47.4014 78.2486 48.9397 74.7991 51.3355 73.4262C52.9084 72.5186 53.9813 73.1877 54.1582 73.5838V72.8147C54.1582 72.3878 54.5928 71.7918 55.1235 71.4841C55.6542 71.1765 56.0926 71.4572 56.0926 72.1148V79.2484C56.0926 80.156 56.431 80.3406 56.9117 80.0599C57.7885 79.5561 58.5961 77.3987 58.5961 74.9413C58.5961 70.1958 56.1079 67.9846 52.1393 70.2766C48.4205 72.4224 45.4709 77.8448 45.4709 82.5826C45.4709 87.232 48.259 89.0048 51.9085 86.9013C52.9566 86.2502 53.8853 85.4242 54.6543 84.4593C55.0696 83.9517 55.5234 83.7978 55.7234 84.1593C55.9234 84.5208 55.8003 85.2669 55.3888 85.7745C54.4158 86.9954 53.2461 88.0456 51.9277 88.8818C47.386 91.5006 43.9519 89.2163 43.9519 83.471C43.9519 77.6025 47.5476 71.0226 52.1585 68.3576C56.7694 65.6926 60.1497 68.0615 60.1497 73.9992C60.1497 77.5987 58.7384 80.7521 56.7348 81.9058C55.6272 82.5134 54.8389 82.3711 54.6428 81.1482ZM49.4935 80.0676C49.4935 81.9058 50.3856 82.9133 51.747 82.1288C53.1084 81.3443 54.0544 79.3292 54.0544 77.4718C54.0544 75.6835 53.143 74.7798 51.7278 75.5951C50.3856 76.3565 49.4935 78.3063 49.4935 80.0676Z" fill="white"/>
<path d="M62.607 24.4674C70.5713 19.8527 77.0242 23.5983 77.0242 32.7932C77.0242 41.9881 70.5713 53.1751 62.607 57.7667C54.6427 62.3584 48.1897 58.6359 48.1897 49.441C48.1897 40.246 54.6427 29.0822 62.607 24.4674Z" fill="white"/>
<path d="M62.607 24.4674C70.5713 19.8527 77.0242 23.5983 77.0242 32.7932C77.0242 41.9881 70.5713 53.1751 62.607 57.7667C54.6427 62.3584 48.1897 58.6359 48.1897 49.441C48.1897 40.246 54.6427 29.0822 62.607 24.4674Z" fill="#F5F5F5"/>
<mask id="mask0_162_7541" style="mask-type:luminance" maskUnits="userSpaceOnUse" x="48" y="22" width="30" height="38">
<path d="M62.607 24.4674C70.5713 19.8527 77.0242 23.5983 77.0242 32.7932C77.0242 41.9881 70.5713 53.1751 62.607 57.7667C54.6427 62.3584 48.1897 58.6359 48.1897 49.441C48.1897 40.246 54.6427 29.0822 62.607 24.4674Z" fill="white"/>
</mask>
<g mask="url(#mask0_162_7541)">
<path d="M57.35 36.6773C56.6892 36.7914 56.0989 37.1583 55.704 37.7002C54.9964 38.6116 55.1426 39.9114 55.704 42.838L57.8922 42.5034L57.35 36.6773Z" fill="#263238"/>
<path d="M70.102 32.3702C70.5935 32.2389 71.0573 32.02 71.4711 31.7241C72.144 31.1588 72.3171 31.8779 71.9479 32.6393C71.7031 33.1821 71.353 33.671 70.918 34.0776C70.483 34.4842 69.9717 34.8006 69.4136 35.0083C69.3906 34.916 68.783 33.47 68.783 33.47L70.102 32.3702Z" fill="#263238"/>
<path d="M58.6074 51.7714C58.6074 51.7714 54.531 54.4018 53.6465 55.3286C52.762 56.2554 52.3967 59.1434 52.0698 62.6776C52.0698 62.6776 56.7115 64.635 63.9913 61.0316C71.2711 57.4283 71.9287 54.5787 71.9287 54.5787C71.9287 54.5787 70.9865 50.2985 70.6365 49.1102C70.1943 47.6065 69.3406 46.5221 64.3758 48.7756L58.6074 51.7714Z" fill="#263238"/>
<path d="M58.3766 42.3765C58.0497 42.6572 57.5882 42.1573 57.1883 41.8458C56.7883 41.5343 55.4808 41.3113 54.8271 42.8611C54.1733 44.4109 55.6731 45.8953 56.5576 46.276C56.8602 46.4033 57.1933 46.4397 57.5162 46.381C57.8392 46.3223 58.1381 46.1709 58.3766 45.9453L58.6073 51.7714C58.6073 51.7714 59.761 53.7673 62.9144 53.352C66.0678 52.9366 65.4102 49.7678 64.3796 48.7757V47.5758C64.3796 47.5758 66.0063 47.4681 66.7716 47.0605C67.1831 46.8413 68.1599 45.3953 68.7906 43.9032C70.091 41.1547 70.3876 38.0374 69.6289 35.0929C68.5021 30.6012 63.3528 31.8356 60.284 34.5891C57.2152 37.3426 58.3766 42.3765 58.3766 42.3765Z" fill="#FFA8A7"/>
<path d="M70.9904 27.8631C70.7135 26.9555 70.5443 27.117 68.3177 28.6822C66.6171 29.8796 64.7192 30.7686 62.7108 31.3088C61.1417 31.7856 58.9959 32.1625 57.8922 33.6162C57.4175 34.2413 57.1754 35.0123 57.2077 35.7966C57.1141 35.7099 57.0005 35.6478 56.8769 35.6159C56.3347 35.4698 55.6694 35.8659 55.3887 36.5042L57.3115 37.0157C57.1615 38.1232 56.7308 41.542 57.2 41.842C57.6038 42.0996 58.2229 42.9649 58.3883 42.9187C58.9382 42.7611 59.1574 40.3229 59.4574 38.8462C59.7842 37.1657 59.9111 36.5388 60.5149 36.4696C62.4758 36.1605 64.406 35.6805 66.2833 35.0352C68.36 34.2238 68.9561 33.5354 68.9561 33.5354L70.0636 32.8316C70.558 32.1148 70.896 31.302 71.0556 30.446C71.2153 29.59 71.1931 28.7099 70.9904 27.8631Z" fill="#263238"/>
<path d="M64.372 47.5758C64.372 47.5758 61.4608 47.7719 60.4456 47.5027C59.8608 47.3634 59.3548 46.9985 59.0381 46.4875C59.182 47.0221 59.4569 47.5125 59.838 47.9142C60.5802 48.6833 64.372 48.3526 64.372 48.3526V47.5758Z" fill="#F28F8F"/>
<path d="M63.6298 44.1955L64.9604 44.3378C64.9056 44.5352 64.7875 44.7091 64.6242 44.8327C64.4609 44.9564 64.2615 45.023 64.0567 45.0223C63.6875 44.9838 63.4991 44.6147 63.6298 44.1955Z" fill="#F28F8F"/>
<path d="M65.5527 39.0039L65.745 42.4611L67.5794 41.3497L65.5527 39.0039Z" fill="#F28F8F"/>
<path d="M63.6722 40.2345C63.6686 40.4074 63.6105 40.5749 63.5062 40.7129C63.402 40.851 63.2569 40.9527 63.0915 41.0036C63.0224 41.0273 62.9485 41.0335 62.8764 41.0217C62.8043 41.0098 62.7363 40.9803 62.6784 40.9357C62.6205 40.8911 62.5745 40.8329 62.5446 40.7663C62.5147 40.6996 62.5018 40.6265 62.507 40.5537C62.5115 40.3804 62.5704 40.2129 62.6752 40.0749C62.7801 39.9368 62.9258 39.8353 63.0915 39.7845C63.1605 39.7606 63.2343 39.7543 63.3062 39.7661C63.3782 39.7779 63.4461 39.8075 63.5038 39.8522C63.5615 39.8968 63.6071 39.9552 63.6365 40.022C63.6659 40.0887 63.6782 40.1618 63.6722 40.2345Z" fill="#263238"/>
<path d="M63.0531 38.1925L61.8071 39.2154C61.7265 39.03 61.7115 38.8226 61.7646 38.6275C61.8178 38.4325 61.9359 38.2613 62.0994 38.1425C62.1607 38.0746 62.2364 38.0212 62.321 37.9863C62.4055 37.9514 62.4968 37.9357 62.5882 37.9405C62.6795 37.9453 62.7687 37.9704 62.8491 38.014C62.9295 38.0576 62.9992 38.1185 63.0531 38.1925Z" fill="#263238"/>
<path d="M68.8751 37.1157L67.7214 36.5465C67.8082 36.3685 67.9565 36.228 68.1389 36.1509C68.3214 36.0739 68.5255 36.0655 68.7136 36.1274C68.7922 36.1791 68.8592 36.2466 68.9104 36.3256C68.9616 36.4045 68.9959 36.4932 69.0111 36.5861C69.0263 36.679 69.022 36.774 68.9986 36.8651C68.9752 36.9563 68.9332 37.0416 68.8751 37.1157Z" fill="#263238"/>
<path d="M68.5445 38.7616C68.5397 38.9343 68.4812 39.1011 68.3771 39.239C68.2731 39.3768 68.1286 39.4788 67.9638 39.5307C67.8947 39.5544 67.8208 39.5606 67.7487 39.5488C67.6766 39.5369 67.6086 39.5074 67.5507 39.4628C67.4928 39.4182 67.4468 39.36 67.4169 39.2934C67.387 39.2267 67.3741 39.1537 67.3793 39.0808C67.3838 38.9075 67.4427 38.74 67.5476 38.602C67.6525 38.4639 67.7981 38.3624 67.9638 38.3117C68.0328 38.2877 68.1066 38.2814 68.1785 38.2932C68.2505 38.305 68.3184 38.3346 68.3761 38.3793C68.4338 38.4239 68.4794 38.4823 68.5088 38.5491C68.5382 38.6158 68.5505 38.6889 68.5445 38.7616Z" fill="#263238"/>
</g>
</svg>
