<svg width="375" height="360" viewBox="0 0 375 360" fill="none" xmlns="http://www.w3.org/2000/svg">
<g clip-path="url(#clip0_116_6729)">
<path fill-rule="evenodd" clip-rule="evenodd" d="M120.711 459.505C36.2027 433.441 -21.9557 355.128 -22.9904 266.115C-23.9143 186.628 41.8897 128.233 116.561 102.492C182.318 79.8247 250.416 104.225 297.639 155.588C359.826 223.228 428.061 311.428 381.765 390.951C331.476 477.335 215.774 488.825 120.711 459.505Z" fill="#F9FAFB"/>
<path d="M375 349.772C375 353.33 291.05 356.204 187.5 356.204C83.9502 356.204 0 353.318 0 349.772C0 346.213 83.9502 343.339 187.5 343.339C291.05 343.339 375 346.213 375 349.772Z" fill="#BCBFC1"/>
<path d="M61.6157 345.959C61.6157 345.959 51.2764 338.517 54.5219 335.852C58.1383 332.884 63.4239 344.661 63.4239 344.661C63.4239 344.661 61.9634 337.439 64.8843 338.17C67.8053 338.9 66.3448 345.959 66.3448 345.959H61.6157Z" fill="#BCBFC1"/>
<path d="M313.292 346.898C313.292 346.898 323.632 339.456 320.386 336.79C316.77 333.823 311.484 345.6 311.484 345.6C311.484 345.6 312.945 338.378 310.024 339.109C307.103 339.839 308.563 346.898 308.563 346.898H313.292Z" fill="#BCBFC1"/>
<g opacity="0.4">
<path d="M118.71 255.205C99.7483 252.342 81.8873 244.368 67.2716 231.943C48.4022 215.901 31.4916 189.718 44.4846 150.832C69.1145 77.1395 180.847 64.8999 231.718 81.9148C312.562 108.944 349.605 218.312 238.499 253.744C210.878 262.553 148.811 259.737 118.71 255.205Z" fill="#BCBFC1"/>
</g>
<g opacity="0.4">
<path d="M342.407 84.5689C327.896 70.8805 303.185 68.6899 290.505 84.5225C284.095 92.52 283.713 104.018 285.927 110.323C292.823 129.923 325.995 160.429 350.312 138.384C366.029 124.116 358.402 99.6598 342.407 84.5689Z" fill="#BCBFC1"/>
</g>
<path d="M57.6628 113.962C57.4426 113.962 57.234 113.835 57.1412 113.626C57.0137 113.348 57.1297 113.023 57.3963 112.884C57.5238 112.792 57.9526 112.374 58.4047 111.934L58.5322 111.806C58.764 111.586 59.1233 111.586 59.3436 111.818C59.5638 112.05 59.5638 112.409 59.332 112.629L59.2045 112.757C58.3235 113.615 58.1033 113.823 57.9063 113.916C57.8135 113.951 57.744 113.962 57.6628 113.962ZM57.431 112.861C57.4194 112.861 57.4194 112.873 57.4078 112.873C57.4078 112.873 57.4194 112.873 57.431 112.861Z" fill="#BCBFC1"/>
<path d="M61.4878 110.358C61.3371 110.358 61.1749 110.3 61.0705 110.172C60.8503 109.941 60.8735 109.581 61.1053 109.361C61.963 108.573 62.8555 107.773 63.7595 106.997C64.0029 106.788 64.3623 106.811 64.5709 107.055C64.7795 107.298 64.7563 107.657 64.5129 107.866C63.6205 108.642 62.7396 109.431 61.8819 110.207C61.766 110.311 61.6269 110.358 61.4878 110.358ZM66.831 105.733C66.6688 105.733 66.4949 105.664 66.3906 105.525C66.1936 105.281 66.2283 104.922 66.4717 104.713C67.3758 103.971 68.3146 103.23 69.265 102.511C69.52 102.314 69.8793 102.36 70.0648 102.615C70.2618 102.87 70.2155 103.23 69.9605 103.415C69.0217 104.134 68.0944 104.864 67.2019 105.594C67.086 105.687 66.9585 105.733 66.831 105.733ZM72.4409 101.422C72.267 101.422 72.0931 101.34 71.9772 101.19C71.7918 100.935 71.8497 100.575 72.1047 100.39C73.0552 99.7061 74.0288 99.0107 75.0024 98.3384C75.2689 98.1646 75.6167 98.2225 75.8021 98.4891C75.976 98.7557 75.918 99.1034 75.6514 99.2889C74.6778 99.9495 73.7158 100.633 72.777 101.317C72.6843 101.387 72.5568 101.422 72.4409 101.422ZM78.2825 97.4228C78.097 97.4228 77.9116 97.3301 77.7957 97.1562C77.6218 96.8896 77.703 96.5303 77.9695 96.3565C78.9547 95.719 79.9631 95.0815 80.9715 94.4672C81.2381 94.3049 81.5974 94.3861 81.7596 94.6526C81.9219 94.9192 81.8408 95.2785 81.5742 95.4408C80.5658 96.0551 79.569 96.6926 78.5954 97.3185C78.4911 97.388 78.3868 97.4228 78.2825 97.4228ZM84.3096 93.7254C84.1125 93.7254 83.9155 93.6211 83.8112 93.4356C83.6489 93.1575 83.7416 92.8097 84.0198 92.6475C85.0282 92.0564 86.0713 91.4652 87.1145 90.8973C87.3926 90.7466 87.7404 90.851 87.891 91.1291C88.0417 91.4073 87.9374 91.755 87.6592 91.9057C86.6277 92.4736 85.5961 93.0532 84.5877 93.6443C84.5066 93.7022 84.4023 93.7254 84.3096 93.7254ZM90.4989 90.3178C90.2903 90.3178 90.0932 90.2019 89.9889 90.0048C89.8382 89.7267 89.9541 89.379 90.2323 89.2283C91.2639 88.6835 92.3302 88.1504 93.3965 87.6288C93.6863 87.4897 94.0224 87.6056 94.1615 87.8954C94.3006 88.1851 94.1847 88.5213 93.8949 88.6603C92.8402 89.1819 91.7855 89.7151 90.7539 90.2482C90.6844 90.2946 90.5916 90.3178 90.4989 90.3178ZM96.8505 87.1999C96.6303 87.1999 96.4217 87.0724 96.3289 86.8638C96.1899 86.574 96.3173 86.2379 96.6071 86.0988C97.6734 85.6004 98.7629 85.1136 99.8409 84.6384C100.131 84.5109 100.467 84.6384 100.594 84.9398C100.722 85.2295 100.594 85.5657 100.293 85.6932C99.215 86.1568 98.1371 86.6552 97.0823 87.142C97.0128 87.1768 96.9316 87.1999 96.8505 87.1999ZM103.318 84.3603C103.098 84.3603 102.878 84.2212 102.785 84.0009C102.669 83.7112 102.808 83.3751 103.098 83.2476C104.176 82.8071 105.288 82.3551 106.39 81.9262C106.679 81.8103 107.015 81.961 107.131 82.2508C107.247 82.5521 107.097 82.8767 106.807 82.9926C105.706 83.4214 104.616 83.8619 103.538 84.3023C103.469 84.3487 103.399 84.3603 103.318 84.3603ZM109.913 81.8103C109.681 81.8103 109.461 81.6713 109.368 81.4279C109.264 81.1265 109.415 80.802 109.716 80.6861C110.817 80.292 111.941 79.8863 113.066 79.5038C113.367 79.3995 113.692 79.5618 113.796 79.8631C113.9 80.1645 113.738 80.489 113.437 80.5933C112.324 80.9758 111.2 81.3699 110.11 81.764C110.052 81.7987 109.983 81.8103 109.913 81.8103ZM116.612 79.527C116.369 79.527 116.149 79.3763 116.068 79.1213C115.975 78.82 116.137 78.4954 116.439 78.4027C117.563 78.0434 118.699 77.6957 119.823 77.3596C120.124 77.2669 120.449 77.4407 120.542 77.7421C120.634 78.0434 120.46 78.368 120.159 78.4607C119.035 78.7968 117.911 79.1445 116.786 79.4922C116.728 79.5154 116.67 79.527 116.612 79.527ZM123.381 77.5103C123.126 77.5103 122.894 77.348 122.825 77.093C122.744 76.7916 122.918 76.4671 123.231 76.386C124.366 76.073 125.514 75.7717 126.661 75.4819C126.974 75.4008 127.287 75.5862 127.357 75.8992C127.438 76.2121 127.252 76.5251 126.94 76.5946C125.804 76.8844 124.656 77.1857 123.532 77.4987C123.486 77.5103 123.439 77.5103 123.381 77.5103ZM130.231 75.7601C129.976 75.7601 129.733 75.5862 129.675 75.3196C129.605 75.0067 129.791 74.7053 130.104 74.6242C131.251 74.3576 132.41 74.091 133.558 73.8476C133.871 73.7781 134.172 73.9751 134.242 74.2881C134.311 74.601 134.114 74.9024 133.801 74.9719C132.654 75.2153 131.495 75.4819 130.359 75.7485C130.324 75.7601 130.278 75.7601 130.231 75.7601ZM137.139 74.2765C136.873 74.2765 136.629 74.091 136.571 73.8129C136.513 73.4999 136.71 73.1986 137.023 73.1406C138.171 72.9088 139.353 72.6886 140.512 72.4916C140.825 72.4336 141.126 72.6422 141.184 72.9552C141.242 73.2681 141.034 73.5695 140.721 73.6274C139.562 73.8361 138.403 74.0563 137.255 74.2765C137.22 74.2649 137.186 74.2765 137.139 74.2765ZM144.105 73.0363C143.827 73.0363 143.584 72.8393 143.537 72.5495C143.491 72.2366 143.699 71.9468 144.012 71.8888C145.171 71.7034 146.342 71.5295 147.513 71.3557C147.826 71.3093 148.115 71.5295 148.162 71.8425C148.208 72.1554 147.988 72.4452 147.675 72.4916C146.516 72.6538 145.345 72.8393 144.186 73.0247C144.163 73.0247 144.128 73.0363 144.105 73.0363ZM151.106 72.0279C150.816 72.0279 150.573 71.8193 150.538 71.5295C150.503 71.2166 150.723 70.9268 151.036 70.8921C152.195 70.7414 153.378 70.6023 154.56 70.4748C154.873 70.44 155.162 70.6718 155.197 70.9848C155.232 71.2977 155 71.5875 154.687 71.6223C153.517 71.7498 152.346 71.8888 151.187 72.0279C151.152 72.0279 151.129 72.0279 151.106 72.0279ZM158.13 71.263C157.84 71.263 157.585 71.0427 157.562 70.7414C157.527 70.4284 157.77 70.1503 158.083 70.1155C159.254 70.0112 160.436 69.9069 161.618 69.8141C161.931 69.791 162.21 70.0228 162.233 70.3473C162.256 70.6718 162.024 70.9384 161.7 70.9616C160.529 71.0543 159.347 71.1471 158.188 71.263C158.164 71.263 158.141 71.263 158.13 71.263ZM165.177 70.7298C164.875 70.7298 164.62 70.498 164.609 70.185C164.586 69.8721 164.829 69.5939 165.142 69.5823C166.313 69.5128 167.495 69.4432 168.677 69.3969C168.99 69.3853 169.268 69.6287 169.28 69.9416C169.291 70.2546 169.048 70.5328 168.735 70.5443C167.564 70.6023 166.37 70.6602 165.211 70.7298C165.2 70.7298 165.188 70.7298 165.177 70.7298Z" fill="#BCBFC1"/>
<path d="M172.247 70.4052C171.934 70.4052 171.679 70.1618 171.667 69.8488C171.656 69.5359 171.911 69.2693 172.224 69.2577C172.792 69.2461 173.371 69.2229 173.951 69.2113C174.275 69.1997 174.53 69.4547 174.542 69.7677C174.554 70.0806 174.299 70.3472 173.986 70.3588C173.406 70.3704 172.838 70.382 172.27 70.4052C172.259 70.4052 172.247 70.4052 172.247 70.4052Z" fill="#BCBFC1"/>
<path d="M359.666 99.8105C359.434 99.8105 359.214 99.6714 359.121 99.428C359.052 99.231 358.982 99.0455 358.901 98.8485C358.785 98.5471 358.936 98.2226 359.237 98.1067C359.538 97.9908 359.863 98.1415 359.979 98.4428C360.048 98.6399 360.13 98.8369 360.199 99.0339C360.303 99.3353 360.153 99.6598 359.863 99.7757C359.805 99.7989 359.735 99.8105 359.666 99.8105ZM358.148 96.032C357.927 96.032 357.719 95.9045 357.626 95.6843C357.162 94.6411 356.664 93.6096 356.154 92.6128C356.003 92.3346 356.119 91.9869 356.397 91.8362C356.676 91.6855 357.023 91.8014 357.174 92.0796C357.696 93.088 358.206 94.1543 358.681 95.2207C358.808 95.5104 358.681 95.8465 358.391 95.974C358.298 96.0204 358.229 96.032 358.148 96.032ZM354.972 89.9238C354.775 89.9238 354.589 89.8195 354.485 89.6456C353.894 88.672 353.268 87.71 352.619 86.7943C352.433 86.5393 352.491 86.18 352.758 85.9946C353.013 85.8091 353.372 85.8671 353.558 86.1337C354.218 87.0725 354.856 88.0461 355.47 89.0429C355.632 89.3095 355.551 89.6688 355.273 89.8311C355.18 89.9006 355.076 89.9238 354.972 89.9238ZM350.996 84.314C350.834 84.314 350.672 84.2444 350.556 84.1053C349.826 83.2245 349.072 82.3783 348.284 81.5786C348.064 81.3468 348.064 80.9875 348.296 80.7673C348.527 80.547 348.887 80.547 349.107 80.7789C349.907 81.6018 350.695 82.4827 351.437 83.3751C351.634 83.6185 351.599 83.9778 351.356 84.1865C351.251 84.2676 351.124 84.314 350.996 84.314ZM346.209 79.3764C346.07 79.3764 345.943 79.33 345.827 79.2373C344.981 78.4955 344.088 77.7769 343.184 77.1047C342.929 76.9192 342.871 76.5599 343.068 76.3049C343.254 76.0499 343.613 75.992 343.868 76.189C344.795 76.8728 345.711 77.6146 346.592 78.3796C346.835 78.5882 346.858 78.9475 346.65 79.191C346.522 79.3069 346.36 79.3764 346.209 79.3764ZM340.669 75.2849C340.565 75.2849 340.46 75.2618 340.368 75.2038C339.406 74.6127 338.42 74.0563 337.401 73.5348C337.122 73.3957 337.006 73.048 337.146 72.7582C337.285 72.48 337.632 72.3641 337.922 72.5032C338.954 73.0364 339.985 73.6043 340.97 74.2186C341.237 74.3809 341.33 74.7402 341.156 75.0068C341.052 75.1922 340.866 75.2849 340.669 75.2849ZM334.538 72.1555C334.468 72.1555 334.387 72.1439 334.317 72.1091C333.286 71.6803 332.208 71.2862 331.13 70.9269C330.829 70.8342 330.666 70.5096 330.759 70.2083C330.852 69.9069 331.176 69.7447 331.478 69.8374C332.59 70.1967 333.692 70.6024 334.758 71.0428C335.048 71.1587 335.187 71.4948 335.071 71.7962C334.978 72.028 334.758 72.1555 334.538 72.1555ZM327.989 70.0228C327.943 70.0228 327.896 70.0228 327.85 70.0113C326.76 69.7447 325.636 69.5129 324.512 69.3158C324.199 69.2579 323.99 68.9681 324.048 68.6552C324.106 68.3422 324.396 68.1336 324.709 68.1915C325.856 68.3886 327.004 68.632 328.128 68.9102C328.441 68.9913 328.626 69.2926 328.545 69.6056C328.487 69.849 328.244 70.0228 327.989 70.0228ZM310.87 68.8986C310.592 68.8986 310.348 68.7015 310.302 68.4118C310.255 68.0988 310.464 67.8091 310.777 67.7511C310.835 67.7395 312.11 67.5425 314.277 67.4613C314.602 67.4497 314.857 67.6931 314.869 68.0177C314.88 68.3306 314.637 68.5972 314.312 68.6088C312.226 68.6899 310.963 68.887 310.951 68.887C310.939 68.8986 310.905 68.8986 310.87 68.8986ZM321.197 68.8522C321.174 68.8522 321.162 68.8522 321.139 68.8522C320.015 68.7363 318.867 68.6552 317.731 68.6204C317.418 68.6088 317.163 68.3422 317.175 68.0293C317.198 67.6931 317.465 67.4613 317.778 67.4613C318.937 67.4961 320.107 67.5772 321.255 67.7047C321.568 67.7395 321.8 68.0177 321.765 68.3306C321.742 68.632 321.487 68.8522 321.197 68.8522Z" fill="#BCBFC1"/>
<path d="M187.477 265.578C185.553 265.578 184.452 265.544 184.44 265.544C184.127 265.532 183.872 265.265 183.884 264.953C183.895 264.64 184.162 264.385 184.475 264.396C184.486 264.396 185.564 264.431 187.477 264.431H187.894L187.906 265.578H187.477ZM191.36 265.544C191.047 265.544 190.792 265.289 190.78 264.976C190.78 264.663 191.023 264.396 191.348 264.396C192.472 264.373 193.62 264.35 194.79 264.315C195.115 264.303 195.37 264.558 195.382 264.871C195.393 265.184 195.138 265.451 194.825 265.462C193.654 265.497 192.495 265.532 191.36 265.544C191.371 265.544 191.371 265.544 191.36 265.544ZM198.256 265.335C197.955 265.335 197.7 265.092 197.688 264.79C197.676 264.477 197.92 264.211 198.233 264.188C199.38 264.141 200.528 264.083 201.675 264.014C201.988 264.002 202.266 264.234 202.278 264.558C202.301 264.871 202.058 265.15 201.733 265.161C200.586 265.231 199.427 265.277 198.279 265.335C198.279 265.335 198.268 265.335 198.256 265.335ZM205.141 264.953C204.839 264.953 204.584 264.721 204.573 264.419C204.55 264.106 204.793 263.828 205.106 263.805C206.253 263.724 207.412 263.643 208.537 263.55C208.85 263.515 209.128 263.759 209.151 264.072C209.174 264.385 208.942 264.663 208.629 264.686C207.494 264.779 206.335 264.86 205.187 264.941C205.175 264.953 205.164 264.953 205.141 264.953ZM212.025 264.396C211.736 264.396 211.481 264.176 211.458 263.875C211.423 263.562 211.655 263.283 211.979 263.249C213.115 263.144 214.274 263.028 215.398 262.913C215.711 262.878 216.001 263.11 216.036 263.423C216.071 263.736 215.839 264.025 215.526 264.06C214.39 264.176 213.231 264.292 212.083 264.408C212.06 264.396 212.037 264.396 212.025 264.396ZM218.875 263.666C218.586 263.666 218.342 263.457 218.308 263.156C218.273 262.843 218.493 262.553 218.806 262.518C219.942 262.379 221.089 262.24 222.214 262.09C222.527 262.055 222.816 262.264 222.863 262.588C222.909 262.901 222.689 263.191 222.364 263.237C221.228 263.388 220.069 263.538 218.933 263.666C218.922 263.666 218.899 263.666 218.875 263.666ZM225.714 262.75C225.436 262.75 225.192 262.542 225.146 262.264C225.1 261.951 225.32 261.661 225.633 261.614C226.769 261.441 227.916 261.267 229.029 261.081C229.342 261.035 229.643 261.244 229.689 261.556C229.736 261.869 229.527 262.171 229.214 262.217C228.09 262.403 226.942 262.576 225.795 262.75C225.772 262.75 225.749 262.75 225.714 262.75ZM232.518 261.638C232.239 261.638 232.008 261.441 231.95 261.162C231.892 260.849 232.1 260.548 232.413 260.49C233.549 260.282 234.685 260.073 235.798 259.853C236.111 259.795 236.412 259.992 236.47 260.305C236.528 260.618 236.331 260.919 236.018 260.977C234.905 261.197 233.769 261.406 232.622 261.614C232.587 261.638 232.552 261.638 232.518 261.638ZM239.286 260.305C239.02 260.305 238.788 260.119 238.73 259.853C238.661 259.54 238.858 259.238 239.171 259.169C240.283 258.925 241.419 258.67 242.52 258.415C242.833 258.346 243.134 258.531 243.216 258.844C243.285 259.157 243.1 259.459 242.787 259.54C241.674 259.806 240.538 260.061 239.414 260.293C239.368 260.305 239.333 260.305 239.286 260.305ZM245.997 258.728C245.742 258.728 245.511 258.555 245.441 258.3C245.36 257.987 245.545 257.674 245.858 257.604C246.983 257.314 248.107 257.013 249.173 256.712C249.486 256.631 249.799 256.804 249.88 257.106C249.961 257.407 249.787 257.732 249.486 257.813C248.408 258.114 247.284 258.415 246.148 258.705C246.09 258.717 246.044 258.728 245.997 258.728ZM252.639 256.874C252.395 256.874 252.163 256.712 252.094 256.468C252.001 256.167 252.175 255.842 252.476 255.75C253.276 255.506 254.088 255.251 254.876 254.996C255.177 254.904 255.502 255.066 255.594 255.367C255.687 255.668 255.525 255.993 255.223 256.086C254.424 256.341 253.612 256.596 252.813 256.839C252.755 256.862 252.697 256.874 252.639 256.874Z" fill="#BCBFC1"/>
<path d="M349.211 171.673C349.13 171.673 349.061 171.661 348.98 171.627L346.175 170.491C346.024 170.433 345.908 170.305 345.838 170.155C345.78 170.004 345.769 169.83 345.838 169.679L346.719 167.512C346.221 167.176 345.769 166.77 345.375 166.329L343.242 167.222C342.929 167.349 342.57 167.21 342.431 166.897L341.248 164.104C341.19 163.953 341.179 163.779 341.248 163.629C341.306 163.478 341.434 163.362 341.584 163.293L343.567 162.458C343.497 161.936 343.474 161.403 343.509 160.882L341.561 160.093C341.411 160.036 341.295 159.908 341.225 159.757C341.167 159.607 341.156 159.433 341.225 159.282L342.361 156.477C342.419 156.326 342.547 156.21 342.697 156.141C342.848 156.083 343.022 156.071 343.172 156.141L345.015 156.894C345.41 156.373 345.873 155.909 346.395 155.515L345.56 153.533C345.433 153.22 345.572 152.861 345.885 152.722L348.678 151.539C348.829 151.481 349.003 151.47 349.153 151.539C349.304 151.597 349.42 151.725 349.49 151.875L350.382 154.008C350.73 153.985 351.089 153.985 351.437 154.008L352.364 151.725C352.492 151.412 352.851 151.261 353.164 151.389L355.969 152.525C356.12 152.582 356.236 152.71 356.305 152.861C356.363 153.011 356.375 153.185 356.305 153.336L355.424 155.515C355.946 155.909 356.409 156.373 356.804 156.894L358.786 156.06C358.936 156.002 359.11 155.99 359.261 156.06C359.412 156.129 359.527 156.245 359.597 156.396L360.779 159.189C360.907 159.502 360.768 159.862 360.455 160.001L358.334 160.893C358.368 161.369 358.357 161.855 358.299 162.319L360.478 163.2C360.791 163.327 360.942 163.687 360.814 164L359.678 166.805C359.62 166.955 359.493 167.071 359.342 167.141C359.191 167.199 359.017 167.21 358.867 167.141L356.583 166.214C356.352 166.48 356.108 166.735 355.842 166.967L356.734 169.1C356.862 169.413 356.722 169.772 356.409 169.911L353.616 171.093C353.465 171.151 353.291 171.163 353.141 171.093C352.99 171.035 352.874 170.908 352.805 170.757L351.97 168.775C351.576 168.833 351.17 168.856 350.765 168.845L349.768 171.302C349.687 171.522 349.455 171.673 349.211 171.673ZM347.206 169.575L348.875 170.247L349.814 167.952C349.918 167.709 350.162 167.547 350.44 167.57C351.043 167.616 351.657 167.581 352.248 167.454C352.538 167.396 352.828 167.547 352.944 167.813L353.732 169.679L355.389 168.984L354.555 167.002C354.451 166.747 354.52 166.445 354.74 166.272C355.181 165.924 355.575 165.518 355.911 165.066C356.073 164.834 356.375 164.753 356.641 164.857L358.786 165.727L359.458 164.058L357.395 163.223C357.128 163.107 356.966 162.829 357.024 162.539C357.151 161.89 357.163 161.206 357.07 160.534C357.035 160.256 357.186 159.989 357.441 159.885L359.423 159.05L358.728 157.393L356.862 158.181C356.583 158.297 356.27 158.204 356.108 157.949C355.644 157.254 355.053 156.663 354.358 156.199C354.114 156.037 354.01 155.724 354.126 155.457L354.961 153.394L353.291 152.722L352.422 154.866C352.318 155.133 352.04 155.283 351.773 155.248C351.217 155.167 350.649 155.167 350.092 155.248C349.814 155.283 349.548 155.133 349.443 154.878L348.609 152.895L346.951 153.591L347.739 155.457C347.855 155.735 347.763 156.048 347.508 156.21C346.812 156.674 346.221 157.265 345.757 157.961C345.595 158.204 345.282 158.308 345.015 158.193L343.288 157.485L342.616 159.155L344.424 159.885C344.679 159.989 344.842 160.256 344.807 160.534C344.702 161.253 344.737 161.971 344.888 162.678C344.946 162.968 344.795 163.258 344.529 163.374L342.662 164.162L343.358 165.819L345.34 164.985C345.595 164.881 345.896 164.95 346.07 165.17C346.557 165.785 347.137 166.306 347.82 166.7C348.087 166.851 348.191 167.176 348.075 167.465L347.206 169.575ZM350.927 164.788C349.605 164.788 348.342 164.011 347.797 162.713C347.067 160.986 347.878 158.992 349.606 158.274C351.333 157.543 353.326 158.355 354.045 160.082C354.393 160.916 354.404 161.832 354.056 162.678C353.72 163.513 353.071 164.174 352.237 164.521C351.808 164.707 351.367 164.788 350.927 164.788ZM350.915 159.236C350.637 159.236 350.347 159.294 350.081 159.41C348.98 159.873 348.47 161.148 348.933 162.238C349.397 163.339 350.672 163.849 351.761 163.385C352.295 163.165 352.7 162.748 352.921 162.203C353.141 161.67 353.129 161.079 352.909 160.546C352.561 159.734 351.761 159.236 350.915 159.236Z" fill="#BCBFC1"/>
<path d="M272.002 92.4051C267.157 92.4051 263.216 88.4641 263.216 83.619C263.216 78.774 267.157 74.833 272.002 74.833C276.847 74.833 280.788 78.774 280.788 83.619C280.788 88.4641 276.847 92.4051 272.002 92.4051ZM272.002 76.0733C267.841 76.0733 264.456 79.4578 264.456 83.619C264.456 87.7802 267.841 91.1648 272.002 91.1648C276.163 91.1648 279.548 87.7802 279.548 83.619C279.559 79.4578 276.163 76.0733 272.002 76.0733Z" fill="#BCBFC1"/>
<path d="M269.614 87.7456C269.603 87.7456 269.591 87.7456 269.58 87.7456C269.406 87.734 269.243 87.6528 269.128 87.5137L267.54 85.5317C267.331 85.2651 267.366 84.8826 267.632 84.6623C267.899 84.4537 268.281 84.4885 268.502 84.7551L269.661 86.2039L276.187 79.6782C276.43 79.4348 276.812 79.4348 277.056 79.6782C277.299 79.9216 277.299 80.3041 277.056 80.5475L270.043 87.5601C269.927 87.676 269.777 87.7456 269.614 87.7456Z" fill="#BCBFC1"/>
<path d="M36.348 154.657L30.0775 150.797H15.0677C13.6537 150.797 12.5178 149.65 12.5178 148.247V137.352C12.5178 135.938 13.6653 134.802 15.0677 134.802H32.8824C34.2964 134.802 35.4323 135.95 35.4323 137.352V148.398L37.252 153.938C37.3331 154.182 37.252 154.448 37.0434 154.61C36.9275 154.703 36.8 154.738 36.6609 154.738C36.5566 154.75 36.4407 154.715 36.348 154.657ZM15.0677 136.031C14.3375 136.031 13.7464 136.622 13.7464 137.352V148.236C13.7464 148.966 14.3375 149.557 15.0677 149.557H30.2513C30.3672 149.557 30.4716 149.592 30.5759 149.65L35.5598 152.721L34.2385 148.688C34.2153 148.63 34.2037 148.56 34.2037 148.491V137.352C34.2037 136.622 33.6126 136.031 32.8824 136.031H15.0677Z" fill="#BCBFC1"/>
<path d="M27.4695 142.939C27.4695 143.75 28.1302 144.411 28.9415 144.411C29.7529 144.411 30.4136 143.75 30.4136 142.939C30.4136 142.127 29.7529 141.467 28.9415 141.467C28.1302 141.467 27.4695 142.127 27.4695 142.939Z" fill="#BCBFC1"/>
<path d="M23.6332 144.411C24.4462 144.411 25.1053 143.752 25.1053 142.939C25.1053 142.126 24.4462 141.467 23.6332 141.467C22.8202 141.467 22.1611 142.126 22.1611 142.939C22.1611 143.752 22.8202 144.411 23.6332 144.411Z" fill="#BCBFC1"/>
<path d="M18.3363 144.411C19.1493 144.411 19.8084 143.752 19.8084 142.939C19.8084 142.126 19.1493 141.467 18.3363 141.467C17.5233 141.467 16.8643 142.126 16.8643 142.939C16.8643 143.752 17.5233 144.411 18.3363 144.411Z" fill="#BCBFC1"/>
<g opacity="0.5">
<path d="M352.306 265.161H336.913C336.195 265.161 335.615 264.582 335.615 263.863V258.357C335.615 257.639 336.195 257.059 336.913 257.059H352.306C353.025 257.059 353.605 257.639 353.605 258.357V263.863C353.605 264.582 353.025 265.161 352.306 265.161Z" fill="#BCBFC1"/>
<path d="M371.535 265.161H356.142C355.423 265.161 354.844 264.582 354.844 263.863V258.357C354.844 257.639 355.423 257.059 356.142 257.059H371.535C372.254 257.059 372.833 257.639 372.833 258.357V263.863C372.833 264.582 372.254 265.161 371.535 265.161Z" fill="#BCBFC1"/>
<path d="M361.834 274.202H346.441C345.722 274.202 345.143 273.622 345.143 272.904V267.398C345.143 266.679 345.722 266.1 346.441 266.1H361.834C362.552 266.1 363.132 266.679 363.132 267.398V272.904C363.132 273.622 362.552 274.202 361.834 274.202Z" fill="#BCBFC1"/>
</g>
<g opacity="0.5">
<path d="M28.4092 111.123H13.0162C12.2976 111.123 11.718 110.544 11.718 109.825V104.319C11.718 103.601 12.2976 103.021 13.0162 103.021H28.4092C29.1278 103.021 29.7074 103.601 29.7074 104.319V109.825C29.7074 110.544 29.1278 111.123 28.4092 111.123Z" fill="#BCBFC1"/>
<path d="M47.6379 111.123H32.245C31.5263 111.123 30.9468 110.544 30.9468 109.825V104.319C30.9468 103.601 31.5263 103.021 32.245 103.021H47.6379C48.3566 103.021 48.9361 103.601 48.9361 104.319V109.825C48.9361 110.544 48.3566 111.123 47.6379 111.123Z" fill="#BCBFC1"/>
<path d="M37.9481 120.152H22.5436C21.8249 120.152 21.2454 119.572 21.2454 118.854V113.348C21.2454 112.629 21.8249 112.05 22.5436 112.05H37.9365C38.6552 112.05 39.2347 112.629 39.2347 113.348V118.854C39.2347 119.572 38.6552 120.152 37.9481 120.152Z" fill="#BCBFC1"/>
</g>
<path d="M81.3917 69.0886C76.7562 69.0886 72.9763 65.3195 72.9763 60.6732C72.9763 56.0269 76.7454 52.2578 81.3917 52.2578C86.0272 52.2578 89.8071 56.0269 89.8071 60.6732C89.8071 65.3195 86.0272 69.0886 81.3917 69.0886ZM81.3917 53.4059C77.3844 53.4059 74.1244 56.6659 74.1244 60.6732C74.1244 64.6805 77.3844 67.9406 81.3917 67.9406C85.399 67.9406 88.6591 64.6805 88.6591 60.6732C88.6591 56.6659 85.399 53.4059 81.3917 53.4059Z" fill="#BCBFC1"/>
<path d="M81.3916 61.2473C81.2509 61.2473 81.1209 61.1932 81.0126 61.1065C80.8935 60.9982 80.8176 60.8466 80.8176 60.6733V55.0955C80.8176 54.7814 81.0776 54.5215 81.3916 54.5215C81.7057 54.5215 81.9657 54.7814 81.9657 55.0955V60.0234L86.0813 59.5361C86.3954 59.5036 86.677 59.7202 86.7203 60.0343C86.7528 60.3484 86.5362 60.63 86.2221 60.6733L81.4675 61.2473C81.435 61.2473 81.4133 61.2473 81.3916 61.2473Z" fill="#BCBFC1"/>
<path d="M98.1002 111.467C98.0469 108.281 104.78 105.021 104.386 90.4361C104.215 84.161 105.846 66.7419 118.779 66.5928C131.702 66.433 140.3 76.1173 135.975 87.1653C131.926 97.5315 132.981 118.104 129.87 121.172L98.1002 111.467Z" fill="#2B2B39"/>
<path d="M135.453 114.279L136.39 116.41L137.328 118.583L139.203 122.93C140.449 125.828 141.707 128.715 142.964 131.57C143.603 132.998 144.231 134.425 144.881 135.832C145.521 137.238 146.181 138.634 146.842 140.008C147.502 141.382 148.184 142.725 148.866 144.025C149.548 145.324 150.262 146.56 150.943 147.647C151.284 148.18 151.625 148.67 151.902 149.021L151.998 149.149C152.03 149.192 152.051 149.213 152.083 149.245C152.147 149.32 152.169 149.352 152.201 149.394L152.211 149.405L152.179 149.383C152.137 149.352 152.105 149.32 152.062 149.288C151.977 149.224 151.913 149.17 151.838 149.117C151.764 149.064 151.7 149.021 151.636 148.989C151.561 148.947 151.508 148.915 151.444 148.883C151.21 148.766 151.039 148.702 150.922 148.67C150.698 148.616 150.666 148.638 150.741 148.659C150.816 148.68 150.975 148.712 151.178 148.723C151.583 148.755 152.158 148.755 152.765 148.702C154.001 148.606 155.407 148.403 156.835 148.126C158.263 147.86 159.733 147.53 161.214 147.178C164.175 146.464 167.201 145.644 170.216 144.792C171.729 144.366 173.253 143.939 174.765 143.492L179.304 142.192L179.357 142.171C181.488 141.564 183.704 142.789 184.311 144.92C184.823 146.688 184.045 148.531 182.543 149.447C182.159 149.682 181.818 149.884 181.456 150.097L180.38 150.726L178.217 151.93C176.768 152.707 175.298 153.464 173.817 154.199C170.845 155.659 167.819 157.012 164.666 158.237C163.089 158.844 161.469 159.419 159.786 159.941C158.103 160.453 156.366 160.932 154.406 161.262C153.426 161.422 152.392 161.571 151.199 161.614C150.602 161.635 149.953 161.625 149.228 161.561C148.504 161.486 147.683 161.369 146.693 161.049C146.192 160.89 145.648 160.677 145.062 160.357C144.913 160.282 144.775 160.197 144.615 160.101C144.466 160.005 144.317 159.909 144.157 159.803C143.997 159.696 143.848 159.579 143.688 159.451L143.454 159.26L143.326 159.142C143.07 158.908 142.793 158.674 142.58 158.45C142.474 158.343 142.346 158.226 142.25 158.12L141.941 157.8C141.153 156.948 140.524 156.149 139.938 155.371C138.777 153.826 137.829 152.324 136.912 150.832C136.007 149.341 135.176 147.849 134.366 146.368C133.567 144.888 132.811 143.396 132.065 141.904C131.34 140.413 130.616 138.921 129.934 137.43C128.549 134.436 127.26 131.432 126.035 128.395C125.427 126.872 124.81 125.359 124.245 123.825C123.957 123.058 123.67 122.291 123.393 121.524L122.977 120.362C122.839 119.968 122.711 119.595 122.572 119.169C121.358 115.568 123.297 111.669 126.898 110.454C130.296 109.314 133.961 110.976 135.378 114.194L135.453 114.279Z" fill="#C1725C"/>
<path d="M176.502 143.258C176.502 143.258 179.645 139.305 180.252 138.708C182.873 136.141 186.399 131.155 186.922 133.594C187.348 135.555 184.535 137.483 184.801 139.071C185.068 140.658 197.053 137.813 199.035 138.676C201.017 139.539 192.568 141.468 192.568 141.468C192.568 141.468 201.272 140.125 202.125 141.393C202.988 142.661 194.667 144.376 194.667 144.376C194.667 144.376 201.336 143.481 202.05 144.824C202.934 146.486 193.761 147.349 193.761 147.349C193.761 147.349 200.793 147.413 200.665 148.627C200.537 149.842 193.388 149.575 189.095 150.502C184.801 151.429 183.171 151.599 179.517 150.47C175.873 149.33 176.502 143.258 176.502 143.258Z" fill="#C1725C"/>
<path d="M191.865 141.745C192.77 143.758 192.856 145.964 192.11 148.041C191.971 148.436 191.332 148.297 191.471 147.892C192.174 145.911 192.099 143.876 191.236 141.947C191.066 141.564 191.694 141.372 191.865 141.745Z" fill="#AF4E4A"/>
<path d="M188.093 143.673C185.664 143.908 183.512 145.207 182.191 147.264C181.967 147.615 181.381 147.317 181.605 146.955C183.065 144.696 185.387 143.279 188.061 143.013C188.488 142.97 188.509 143.631 188.093 143.673Z" fill="#AF4E4A"/>
<path d="M151.54 148.489C150.315 149.405 149.313 150.556 148.557 151.887C148.354 152.25 148.898 152.612 149.111 152.239C149.835 150.95 150.805 149.852 151.987 148.968C152.328 148.723 151.881 148.244 151.54 148.489Z" fill="#AF4E4A"/>
<path d="M150.816 149.213C150.017 149.203 149.207 149.192 148.408 149.171C147.992 149.16 147.96 149.82 148.376 149.82C149.175 149.831 149.985 149.842 150.784 149.863C151.21 149.874 151.231 149.213 150.816 149.213Z" fill="#AF4E4A"/>
<path d="M194.198 153.464H182.93C181.795 153.464 181.11 152.563 181.399 151.455L187.524 128.063C187.812 126.955 188.965 126.054 190.1 126.054H201.368C202.503 126.054 203.188 126.955 202.9 128.063L196.775 151.455C196.486 152.563 195.333 153.464 194.198 153.464Z" fill="#40537D"/>
<path d="M147.31 317.054L148.376 329.806L138.926 329.945L136.784 317.704L147.31 317.054Z" fill="#C1725C"/>
<path d="M170.983 344.764L136.454 344.392C136.198 343.923 136.07 343.262 136.017 342.474C135.836 339.555 136.816 334.899 137.306 331.969C137.37 331.628 137.413 331.309 137.455 331.021C137.519 330.531 137.573 330.126 137.573 329.817C137.594 327.42 139.714 327.857 139.714 327.857C143.177 331.319 147.182 326.227 149.473 327.931C149.473 327.931 150.464 328.656 153.18 331.149C155.897 333.642 160.542 335.325 164.495 337.03C169.598 339.224 171.026 341.377 171.292 342.857C171.494 344.029 170.983 344.764 170.983 344.764Z" fill="#6059C9"/>
<path d="M170.983 344.765L136.454 344.392C136.198 343.923 136.07 343.263 136.017 342.474L171.281 342.847C171.494 344.03 170.983 344.765 170.983 344.765Z" fill="#32237F"/>
<path d="M139.97 344.434L138.947 344.424C139.981 343.262 140.961 341.483 140.865 338.915C140.737 335.506 138.713 333.184 137.306 331.969C137.37 331.628 137.413 331.309 137.456 331.021C138.979 332.214 141.536 334.803 141.685 338.894C141.781 341.334 140.95 343.156 139.97 344.434Z" fill="#32237F"/>
<path d="M152.563 333.184C152.307 333.184 152.073 333.003 152.019 332.747C151.945 332.438 152.136 332.129 152.445 332.065L154.608 331.554C154.917 331.479 155.226 331.671 155.29 331.98C155.365 332.289 155.173 332.587 154.864 332.662L152.701 333.173C152.659 333.173 152.616 333.184 152.563 333.184Z" fill="white"/>
<path d="M150.197 331.298C149.942 331.298 149.707 331.117 149.654 330.861C149.579 330.552 149.771 330.254 150.08 330.179L152.243 329.668C152.552 329.593 152.85 329.785 152.925 330.094C152.999 330.403 152.808 330.701 152.499 330.776L150.336 331.287C150.293 331.287 150.251 331.298 150.197 331.298Z" fill="white"/>
<path d="M154.715 334.451C154.459 334.451 154.225 334.27 154.171 334.014C154.097 333.706 154.289 333.407 154.598 333.333L156.76 332.821C157.069 332.747 157.368 332.938 157.442 333.247C157.517 333.556 157.325 333.865 157.016 333.929L154.853 334.441C154.8 334.451 154.757 334.462 154.715 334.451Z" fill="white"/>
<path d="M156.856 335.688C156.6 335.688 156.366 335.507 156.313 335.251C156.238 334.942 156.43 334.644 156.739 334.569L158.902 334.058C159.211 333.983 159.509 334.175 159.583 334.484C159.658 334.793 159.466 335.091 159.157 335.166L156.995 335.677C156.941 335.677 156.899 335.688 156.856 335.688Z" fill="white"/>
<path d="M159.2 336.827C158.944 336.827 158.71 336.646 158.656 336.39C158.582 336.082 158.774 335.783 159.083 335.709L161.245 335.197C161.554 335.123 161.853 335.314 161.927 335.623C162.002 335.932 161.81 336.231 161.501 336.305L159.338 336.817C159.285 336.817 159.242 336.827 159.2 336.827Z" fill="white"/>
<path d="M161.735 337.807C161.48 337.807 161.245 337.626 161.192 337.37C161.118 337.062 161.309 336.763 161.618 336.689L163.781 336.177C164.09 336.103 164.388 336.294 164.463 336.603C164.537 336.912 164.346 337.211 164.037 337.285L161.874 337.797C161.831 337.797 161.778 337.807 161.735 337.807Z" fill="white"/>
<path d="M148.866 319.739L136.23 320.815C136.23 320.815 135.815 318.194 135.485 316.5C135.399 316.084 135.314 315.637 135.208 315.157C133.801 308.115 130.786 292.997 128.219 279.744C124.724 261.75 125.47 251.053 125.47 251.053C125.47 251.053 126.184 246.76 123.488 236.34C121.262 227.7 113.857 200.245 111.162 191.125C110.618 189.282 110.299 188.206 110.299 188.206C110.299 188.206 127.856 176.103 133.769 181.505C134.227 181.931 135.793 185.937 136.081 186.534C136.806 188.036 137.658 190.465 138.585 193.533C142.42 206.243 146.873 229.884 148.493 242.189C148.653 243.425 148.78 244.544 148.887 245.513C148.898 245.577 148.898 245.641 148.908 245.705C148.93 245.897 148.951 246.089 148.972 246.302C148.983 246.429 148.994 246.557 149.004 246.685C149.984 259.417 149.079 301.009 148.759 314.103C148.738 314.539 148.738 314.955 148.727 315.328C148.674 317.086 148.866 319.739 148.866 319.739Z" fill="#2B2B39"/>
<path d="M148.994 246.674C148.333 246.802 147.662 246.898 147.012 246.962C144.316 247.25 141.919 247.122 141.749 247.111C141.483 247.09 141.269 246.866 141.291 246.589C141.312 246.323 141.536 246.11 141.813 246.131C141.866 246.142 145.584 246.344 148.898 245.694C148.919 245.886 148.94 246.078 148.962 246.291C148.972 246.419 148.983 246.547 148.994 246.674Z" fill="#5F5F75"/>
<path d="M136.944 315.935C136.72 315.967 136.507 315.818 136.475 315.594C136.422 315.264 131.596 282.194 129.87 272.276C128.41 263.902 127.91 247.484 127.878 246.504C123.925 230.736 113.495 190.55 113.399 190.145C113.346 189.921 113.474 189.708 113.697 189.644C113.91 189.591 114.134 189.719 114.198 189.943C114.305 190.348 124.745 230.619 128.698 246.355C128.709 246.387 128.709 246.408 128.709 246.44C128.709 246.61 129.209 263.614 130.69 272.148C132.416 282.077 137.253 315.157 137.296 315.488C137.317 315.69 137.168 315.892 136.944 315.935Z" fill="#5F5F75"/>
<path d="M102.862 318.972L102.404 329.807L91.3882 330.009L92.1872 319.835L102.862 318.972Z" fill="#C1725C"/>
<path d="M88.8953 342.229C88.8953 342.314 88.8953 342.399 88.8953 342.474C88.906 342.858 88.9166 343.198 88.9379 343.486C88.9805 344.125 89.0232 344.53 89.0232 344.53H110.405C110.405 344.53 110.512 343.699 110.427 342.474C110.288 340.29 109.564 336.838 106.613 334.558C102.575 331.437 104.13 332.087 103.299 330.659C103.203 330.499 102.479 328.081 102.404 327.91C101.712 326.429 101.073 325.737 97.2373 325.737C92.1554 325.737 91.7079 328.198 91.1646 329.498C90.9408 330.041 90.6319 331.17 90.3229 332.513C90.1951 333.056 90.0672 333.631 89.9394 334.217C89.6304 335.687 89.3321 337.232 89.1297 338.458C88.9273 339.779 88.8846 341.132 88.8953 342.229Z" fill="#6059C9"/>
<path d="M88.8953 342.229C88.8953 342.314 88.8953 342.399 88.8953 342.474C88.9059 342.857 88.9166 343.198 88.9379 343.486C89.982 342.751 90.7277 341.792 91.1539 340.61C92.475 337.009 90.4401 332.683 90.3548 332.502L90.3122 332.523C90.1844 333.067 90.0565 333.642 89.9287 334.228C90.4081 335.698 90.9621 338.17 90.195 340.269C89.9287 341.025 89.4919 341.686 88.8953 342.229Z" fill="#32237F"/>
<path d="M88.906 342.474C88.938 343.689 89.0339 344.53 89.0339 344.53H110.416C110.416 344.53 110.523 343.699 110.437 342.474H88.906Z" fill="#32237F"/>
<path d="M96.5341 332.406C96.5873 332.406 96.6406 332.395 96.6832 332.385C99.3999 331.682 101.616 332.278 101.637 332.278C101.957 332.363 102.298 332.182 102.383 331.852C102.468 331.532 102.287 331.192 101.957 331.106C101.85 331.074 99.3999 330.414 96.3742 331.202C96.044 331.287 95.8522 331.618 95.9374 331.948C96.012 332.225 96.2571 332.406 96.5341 332.406Z" fill="white"/>
<path d="M96.1825 329.945C96.2358 329.945 96.289 329.934 96.3316 329.924C99.0484 329.221 101.264 329.817 101.286 329.817C101.616 329.902 101.946 329.721 102.031 329.391C102.117 329.071 101.936 328.731 101.605 328.645C101.499 328.613 99.0484 327.953 96.0227 328.741C95.6924 328.826 95.5006 329.157 95.5859 329.487C95.6605 329.764 95.9055 329.945 96.1825 329.945Z" fill="white"/>
<path d="M97.4503 334.334C97.5036 334.334 97.5569 334.324 97.5995 334.313C100.306 333.61 102.532 334.206 102.554 334.206C102.873 334.292 103.214 334.1 103.299 333.78C103.385 333.461 103.203 333.12 102.873 333.035C102.767 333.003 100.316 332.342 97.2905 333.13C96.9602 333.216 96.7685 333.546 96.8537 333.876C96.9283 334.153 97.1733 334.334 97.4503 334.334Z" fill="white"/>
<path d="M98.5265 336.529C98.5798 336.529 98.633 336.518 98.6756 336.508C101.382 335.805 103.608 336.401 103.63 336.401C103.949 336.486 104.29 336.295 104.375 335.975C104.461 335.655 104.28 335.315 103.949 335.229C103.843 335.197 101.392 334.537 98.3667 335.325C98.0364 335.41 97.8446 335.741 97.9299 336.071C98.0044 336.348 98.2495 336.529 98.5265 336.529Z" fill="white"/>
<path d="M114.688 196.783C114.113 196.932 113.527 197.07 112.941 197.198C105.473 198.903 97.6314 199.595 92.1447 198.285C89.4386 197.635 87.702 194.321 86.6047 190.625C86.3063 189.612 86.0507 188.579 85.8376 187.546C84.9107 183.124 84.7402 179.033 84.7402 179.033L128.101 168.379C128.101 168.379 129.444 170.851 130.935 174.079C132.011 176.412 133.173 179.14 133.95 181.601C133.95 181.601 133.95 181.601 133.95 181.611C134.419 183.082 134.749 184.467 134.845 185.617C135.165 189.293 125.555 194.055 114.688 196.783Z" fill="#2B2B39"/>
<path d="M115.178 246.547C115.178 246.632 115.178 246.728 115.168 246.813C115.157 247.058 115.146 247.303 115.146 247.537C115.114 248.496 115.082 249.37 115.04 250.158C115.029 250.403 115.008 250.67 114.997 250.947C114.113 263.22 106.634 304.876 104.258 317.895C104.173 318.332 104.109 318.737 104.034 319.099C103.715 320.836 103.534 321.816 103.534 321.816L90.8875 320.91C90.8875 320.91 90.8449 319.93 90.7703 318.204C90.749 317.789 90.7277 317.331 90.7064 316.841C90.4081 309.66 89.1189 294.265 89.3001 280.767C89.5451 262.314 91.9635 247.718 91.9635 247.718C91.9635 247.718 91.7824 244.842 90.7383 234.124C89.8754 225.239 87.4569 200.011 86.2211 190.571C85.9654 188.664 85.8269 187.546 85.8269 187.546C85.8269 187.546 105.664 181.963 110.672 188.217C111.055 188.707 111.364 189.272 111.556 189.9C112.035 191.488 112.504 194.034 112.941 197.198C114.752 210.26 115.477 234.06 115.178 246.547Z" fill="#2B2B39"/>
<path d="M115.178 246.546C115.178 246.632 115.178 246.728 115.168 246.813C115.157 247.058 115.146 247.303 115.146 247.537C114.539 247.612 113.932 247.665 113.335 247.686C110.629 247.814 108.243 247.527 108.072 247.516C107.806 247.484 107.614 247.239 107.646 246.973C107.678 246.706 107.923 246.514 108.189 246.546C108.243 246.536 111.854 246.962 115.178 246.546Z" fill="#5F5F75"/>
<path d="M104.258 317.895C104.183 318.332 104.109 318.726 104.034 319.089L90.7703 318.194C90.749 317.778 90.7383 317.32 90.717 316.83L104.258 317.895Z" fill="#5F5F75"/>
<path d="M90.6105 205.178C90.4293 205.178 90.2589 205.05 90.2163 204.869C90.163 204.656 90.3015 204.443 90.5146 204.39C90.5465 204.379 92.8265 203.825 95.149 201.918C98.2599 199.361 99.9858 195.696 100.273 191.03C100.284 190.806 100.476 190.646 100.7 190.657C100.923 190.667 101.083 190.859 101.073 191.083C100.7 197.198 97.8977 200.703 95.6284 202.568C93.1567 204.592 90.7916 205.146 90.6957 205.178C90.6637 205.178 90.6318 205.178 90.6105 205.178Z" fill="#5F5F75"/>
<path d="M92.3045 317.874C92.0701 317.874 91.889 317.682 91.8996 317.458C91.8996 317.117 92.2725 283.707 92.1021 273.639C91.9636 265.148 94.0091 248.837 94.1369 247.867C92.6774 231.684 88.6183 190.358 88.5756 189.943C88.5543 189.719 88.7141 189.516 88.9379 189.495C89.1616 189.474 89.364 189.634 89.3853 189.857C89.4279 190.273 93.4871 231.674 94.9466 247.836C94.9466 247.867 94.9466 247.899 94.9466 247.921C94.9253 248.091 92.7732 264.967 92.9117 273.618C93.0822 283.696 92.7093 317.128 92.7093 317.458C92.72 317.693 92.5282 317.874 92.3045 317.874Z" fill="#5F5F75"/>
<path d="M148.749 314.103C148.738 314.539 148.727 314.944 148.717 315.317L135.474 316.5C135.389 316.095 135.303 315.647 135.208 315.157L148.749 314.103Z" fill="#5F5F75"/>
<path d="M114.699 196.857C114.55 196.836 114.422 196.751 114.358 196.602C114.273 196.388 114.379 196.154 114.592 196.069C114.656 196.048 119.216 194.194 120.644 189.229C120.707 189.016 120.931 188.888 121.144 188.952C121.357 189.016 121.485 189.24 121.421 189.453C119.876 194.833 115.082 196.751 114.88 196.836C114.837 196.857 114.763 196.868 114.699 196.857Z" fill="#5F5F75"/>
<path d="M131.489 147.104C131.351 147.253 131.223 147.413 131.084 147.562C131.063 147.594 131.031 147.626 131.01 147.658C130.498 148.276 130.051 149.149 129.667 150.161C129.582 150.374 129.508 150.598 129.433 150.822C128.975 152.196 128.602 153.784 128.325 155.35C128.293 155.552 128.251 155.755 128.219 155.957C127.76 158.738 127.569 161.38 127.579 162.626C127.59 164.043 128.496 165.631 129.348 167.25C129.444 167.431 129.54 167.623 129.636 167.804C130.307 169.115 130.861 170.436 130.818 171.671C130.69 174.612 123.925 183.22 112.813 187.066C101.701 190.912 84.8042 191.317 83.7601 183.678C82.7054 176.04 83.1209 155.51 83.856 147.232C84.7402 137.11 85.6458 129.088 88.5863 118.988C91.5267 108.878 92.2192 109.506 94.8614 107.546C96.0546 106.662 97.8658 106.001 99.9433 105.49C100.146 105.436 100.348 105.394 100.551 105.351C103.928 104.595 107.87 104.233 110.853 104.062C111.066 104.051 111.268 104.041 111.471 104.03C113.847 103.902 115.487 103.902 115.487 103.902C115.487 103.902 123.467 107.45 128.187 109.304C128.389 109.389 128.591 109.464 128.783 109.528C129.284 109.719 129.731 109.89 130.126 110.018C133.876 111.317 133.95 113.715 134.653 118.168C134.696 118.434 134.739 118.701 134.792 118.988C134.792 118.999 134.792 119.009 134.803 119.031C135.634 123.995 134.984 127.927 135.996 133.168C137.413 140.605 134.046 144.216 131.489 147.104Z" fill="#D03F23"/>
<path d="M97.0348 179.534C96.8643 179.534 96.6939 179.523 96.5127 179.513C94.1689 179.332 91.9422 177.776 90.9941 175.645C90.3016 174.111 90.4401 172.534 91.3669 171.309C92.5815 169.711 92.6774 167.346 91.612 165.684C90.9941 164.725 91.026 163.543 91.6972 162.605C92.3791 161.646 93.5084 161.231 94.6377 161.508C95.735 161.785 96.6619 162.456 97.4077 163.511C99.0484 165.844 98.1002 167.623 97.4077 168.933C97.0241 169.658 96.6832 170.297 96.875 170.808C97.0454 171.277 97.642 171.714 98.6968 172.13C101.019 173.067 102.159 174.655 101.744 176.391C101.36 177.979 99.613 179.534 97.0348 179.534ZM93.9345 162.051C93.1461 162.051 92.5282 162.498 92.1873 162.967C91.7824 163.543 91.5481 164.469 92.1127 165.354C93.3166 167.229 93.1994 169.892 91.8464 171.682C91.0473 172.737 90.9408 174.047 91.5481 175.39C92.4004 177.286 94.4566 178.724 96.5554 178.895C98.9844 179.087 100.796 177.702 101.126 176.263C101.456 174.846 100.455 173.515 98.4517 172.705C97.2052 172.204 96.5234 171.671 96.2784 171.022C95.9907 170.244 96.4062 169.466 96.8537 168.646C97.5462 167.357 98.3239 165.886 96.8963 163.873C96.2357 162.946 95.4261 162.349 94.4779 162.115C94.2967 162.072 94.1156 162.051 93.9345 162.051Z" fill="#750021"/>
<path d="M124.49 141.638C122.913 141.638 121.677 140.914 121.155 139.635C120.857 138.9 120.836 138.25 121.091 137.718C121.603 136.652 123.041 136.216 124.564 135.747C125.949 135.321 127.388 134.884 127.857 133.989C128.368 133.019 127.857 131.698 127.409 130.537C126.994 129.461 126.642 128.534 127.068 127.916C127.324 127.543 127.825 127.352 128.602 127.352C129.519 127.352 130.286 127.661 130.893 128.278C132.384 129.802 132.363 132.625 132.363 132.742C132.363 132.753 132.363 132.764 132.363 132.764C131.862 138.165 128.347 141.116 125.3 141.574C125.023 141.617 124.756 141.638 124.49 141.638ZM128.602 127.959C128.059 127.959 127.718 128.055 127.58 128.257C127.334 128.619 127.665 129.472 127.984 130.313C128.474 131.602 129.039 133.051 128.4 134.266C127.814 135.395 126.248 135.875 124.746 136.333C123.414 136.738 122.04 137.164 121.645 137.984C121.464 138.368 121.496 138.826 121.731 139.401C122.221 140.605 123.563 141.212 125.214 140.967C128.027 140.552 131.276 137.792 131.745 132.732C131.745 132.54 131.724 130.004 130.445 128.715C129.966 128.215 129.337 127.959 128.602 127.959Z" fill="#750021"/>
<path d="M111.695 139.944C111.013 139.944 110.437 139.582 110.075 138.89C109.202 137.228 109.851 134.213 112.185 132.561C113.932 131.325 113.431 129.77 112.941 128.278C112.557 127.074 112.153 125.839 113.474 125.285C116.009 124.219 119.12 126.851 119.248 126.968L119.259 126.979C120.867 128.491 122.828 131.453 122.189 132.881C122.007 133.286 121.528 133.754 120.324 133.637C118.524 133.467 117.128 135.161 115.786 136.812C114.72 138.123 113.719 139.358 112.462 139.806C112.195 139.902 111.94 139.944 111.695 139.944ZM114.773 125.658C114.411 125.658 114.049 125.721 113.708 125.86C112.984 126.169 113.09 126.744 113.527 128.097C113.996 129.567 114.646 131.57 112.536 133.073C110.278 134.681 109.969 137.377 110.618 138.613C110.864 139.071 111.343 139.561 112.249 139.231C113.335 138.836 114.294 137.664 115.306 136.429C116.755 134.649 118.247 132.817 120.377 133.03C121.059 133.094 121.475 132.966 121.624 132.636C122.082 131.634 120.473 128.982 118.843 127.437C118.726 127.341 116.691 125.658 114.773 125.658Z" fill="#750021"/>
<path d="M104.631 155.35C104.535 155.35 104.45 155.35 104.365 155.339C102.426 155.126 101.403 153.666 101.424 152.399C101.445 151.227 102.383 149.767 104.993 149.554C107.369 149.362 107.667 148.371 108.072 146.997C108.392 145.9 108.797 144.536 110.437 143.417C111.322 142.81 112.291 142.661 113.346 142.959C114.891 143.407 116.02 144.685 116.265 146.294C116.531 147.956 115.828 149.575 114.443 150.513C109.67 153.73 106.378 155.35 104.631 155.35ZM112.312 143.428C111.769 143.428 111.268 143.599 110.778 143.929C109.319 144.93 108.988 146.07 108.658 147.178C108.243 148.595 107.838 149.938 105.046 150.172C102.852 150.353 102.063 151.44 102.042 152.409C102.031 153.4 102.862 154.551 104.439 154.732C105.909 154.892 109.34 153.219 114.092 150.012C115.274 149.213 115.881 147.828 115.658 146.4C115.434 145.005 114.507 143.95 113.175 143.556C112.877 143.471 112.589 143.428 112.312 143.428Z" fill="#750021"/>
<path d="M129.806 146.102C129.167 146.23 128.357 146.379 127.057 145.058C125.417 143.386 123.68 143.535 122.775 144.376C122.018 145.08 121.944 146.113 122.583 146.837C123.052 147.359 123.915 147.85 124.831 148.361C125.3 148.617 125.79 148.894 126.258 149.203C126.727 149.501 127.164 149.82 127.526 150.161C127.995 150.598 128.581 150.833 129.188 150.833C129.263 150.833 129.348 150.833 129.423 150.822C129.497 150.598 129.582 150.374 129.657 150.161C129.039 150.321 128.4 150.161 127.942 149.725C127.164 148.989 126.077 148.382 125.129 147.839C124.256 147.349 123.435 146.891 123.041 146.443C122.551 145.9 122.785 145.229 123.19 144.845C123.915 144.174 125.257 144.11 126.621 145.506C128.144 147.061 129.22 146.859 129.923 146.72C130.499 146.603 130.68 146.571 130.967 147.519C130.978 147.562 130.989 147.615 131.01 147.658C131.031 147.626 131.063 147.594 131.085 147.562C131.212 147.413 131.351 147.264 131.489 147.104C131.074 145.953 130.52 145.964 129.806 146.102Z" fill="#750021"/>
<path d="M134.771 119.02C133.791 118.509 133.055 117.06 132.342 115.494C131.638 113.959 131.042 114.077 130.222 114.247C129.508 114.396 128.613 114.577 127.697 113.555C126.589 112.308 127.324 110.582 128.187 109.304C128.389 109.389 128.591 109.464 128.783 109.527C127.995 110.657 127.292 112.159 128.165 113.139C128.847 113.896 129.433 113.778 130.115 113.64C131.01 113.459 132.022 113.256 132.928 115.238C133.46 116.41 134.025 117.56 134.654 118.168C134.696 118.434 134.739 118.7 134.792 118.988C134.771 118.999 134.771 119.009 134.771 119.02Z" fill="#750021"/>
<path d="M119.195 117.934C118.044 117.934 116.691 117.316 115.754 115.888C114.806 114.45 113.41 114.45 112.174 114.439C111.013 114.439 109.82 114.428 109.788 112.894C109.766 111.85 110.416 110.966 111.652 110.337C113.144 109.581 114.933 109.528 116.563 110.178C118.524 110.966 120.974 112.362 121.528 114.556C121.965 116.293 121.177 117.326 120.303 117.71C119.973 117.859 119.589 117.934 119.195 117.934ZM114.252 110.337C113.442 110.337 112.643 110.518 111.929 110.881C110.906 111.403 110.384 112.074 110.406 112.873C110.427 113.736 110.853 113.8 112.174 113.811C113.421 113.811 115.136 113.821 116.265 115.536C117.352 117.188 119.024 117.593 120.047 117.145C120.9 116.772 121.219 115.877 120.921 114.705C120.431 112.766 118.151 111.477 116.329 110.742C115.658 110.476 114.955 110.337 114.252 110.337Z" fill="#750021"/>
<path d="M111.439 104.744C111.226 106.129 110.054 107.088 108.307 107.312C106.666 107.525 106.463 108.153 106.261 108.803C106.059 109.432 105.835 110.135 104.407 110.135C104.311 110.135 104.205 110.135 104.098 110.124C101.914 109.986 100.583 107.269 99.9326 105.49C100.135 105.436 100.337 105.394 100.54 105.351C101.147 106.992 102.33 109.4 104.13 109.517C105.355 109.591 105.473 109.229 105.664 108.622C105.888 107.919 106.197 106.971 108.221 106.704C109.681 106.513 110.661 105.745 110.832 104.648C110.863 104.446 110.863 104.254 110.842 104.051C111.055 104.041 111.258 104.03 111.46 104.02C111.481 104.254 111.481 104.499 111.439 104.744Z" fill="#750021"/>
<path d="M129.348 167.261C128.858 167.527 128.357 167.634 127.984 167.676C126.333 167.868 124.447 167.165 123.861 166.121C123.595 165.631 123.648 165.141 124.042 164.64C126.727 161.241 126.152 159.856 125.704 158.738C125.47 158.163 125.3 157.736 125.598 157.086L125.63 157.012C125.981 156.277 126.674 155.84 127.494 155.829H127.505C127.761 155.829 127.995 155.872 128.219 155.947C128.251 155.744 128.283 155.542 128.325 155.339C128.059 155.254 127.782 155.211 127.494 155.211C126.45 155.222 125.523 155.808 125.076 156.735L125.044 156.82C124.628 157.715 124.895 158.354 125.14 158.962C125.555 159.974 126.024 161.124 123.563 164.246C123.02 164.938 122.934 165.705 123.329 166.409C123.946 167.527 125.704 168.305 127.42 168.305C127.633 168.305 127.846 168.294 128.048 168.273C128.645 168.198 129.167 168.039 129.636 167.794C129.55 167.623 129.455 167.442 129.348 167.261Z" fill="#750021"/>
<path d="M110.81 178.011C109.106 178.011 107.635 177.627 106.751 177.009C105.952 176.445 105.664 175.699 105.952 174.932C106.794 172.663 108.871 172.95 110.704 173.206C111.609 173.334 112.547 173.462 113.314 173.302C114.166 173.121 114.273 172.332 114.358 171.054C114.433 169.797 114.539 168.231 116.361 168.188C117.245 168.167 118.023 168.518 118.662 169.221C119.44 170.074 119.823 171.192 119.738 172.364C119.653 173.568 119.067 174.697 118.129 175.465C115.913 177.286 113.154 178.011 110.81 178.011ZM108.861 173.643C107.817 173.643 106.975 173.952 106.538 175.145C106.357 175.646 106.549 176.104 107.124 176.509C109.042 177.872 114.134 177.957 117.746 174.996C118.545 174.335 119.056 173.366 119.131 172.332C119.206 171.331 118.875 170.372 118.215 169.648C117.693 169.072 117.075 168.795 116.382 168.806C115.189 168.838 115.072 169.69 114.987 171.096C114.912 172.279 114.827 173.621 113.452 173.909C112.579 174.09 111.588 173.952 110.629 173.824C110.001 173.717 109.404 173.643 108.861 173.643Z" fill="#750021"/>
<path d="M98.1215 147.008C96.1079 147.008 93.9771 146.006 93.0183 144.429C92.9331 144.28 92.9757 144.099 93.1248 144.003C93.274 143.918 93.4551 143.961 93.551 144.11C94.627 145.878 97.5142 146.858 99.6024 146.166C101.392 145.58 102.255 143.897 102.042 141.425C101.701 137.558 102.894 136.471 104.045 135.416C105.004 134.543 105.92 133.712 105.941 131.112C105.995 125.636 101.264 125.359 101.073 125.348C100.902 125.338 100.774 125.199 100.774 125.029C100.785 124.858 100.923 124.73 101.094 124.73C101.147 124.73 106.613 125.029 106.559 131.112C106.527 133.978 105.473 134.937 104.461 135.864C103.374 136.855 102.34 137.792 102.649 141.361C102.98 145.111 100.998 146.336 99.7941 146.741C99.2614 146.922 98.6968 147.008 98.1215 147.008Z" fill="#750021"/>
<path d="M132.075 145.293C131.947 145.282 131.83 145.218 131.756 145.122C131.596 144.92 131.638 144.632 131.83 144.483C137.381 140.157 136.518 134.276 135.495 131.155C133.961 126.446 134.345 121.982 134.355 121.79C134.376 121.545 134.6 121.353 134.845 121.375C135.101 121.396 135.282 121.62 135.261 121.865C135.261 121.907 134.888 126.339 136.358 130.867C137.445 134.213 138.372 140.53 132.384 145.197C132.299 145.271 132.182 145.293 132.075 145.293Z" fill="#750021"/>
<path d="M96.3211 185.756C86.104 185.756 83.5471 181.143 83.4193 180.898C83.3021 180.674 83.3873 180.397 83.611 180.28C83.8348 180.163 84.1118 180.248 84.2289 180.472C84.2503 180.503 85.1452 182.102 87.9578 183.337C90.5999 184.499 95.522 185.585 103.917 184.104C120.164 181.249 128.197 170.212 128.283 170.095C128.432 169.892 128.719 169.839 128.922 169.988C129.124 170.137 129.177 170.425 129.028 170.627C128.943 170.745 126.93 173.536 122.838 176.721C119.067 179.662 112.76 183.476 104.077 184.999C101.105 185.543 98.5371 185.756 96.3211 185.756Z" fill="#750021"/>
<path d="M119.408 121.14C119.578 121.194 119.76 121.236 119.93 121.268C121.571 121.556 122.956 121.204 124.053 120.214C127.228 117.337 126.706 110.05 126.685 109.741C126.663 109.496 126.45 109.315 126.205 109.325C125.96 109.347 125.779 109.56 125.79 109.805C125.8 109.879 126.301 116.964 123.446 119.542C122.562 120.352 121.454 120.618 120.079 120.384C114.315 119.383 109.18 104.041 109.138 103.881C109.063 103.647 108.807 103.519 108.573 103.594C108.339 103.668 108.211 103.924 108.285 104.158C108.498 104.808 113.367 119.329 119.408 121.14Z" fill="white"/>
<path d="M123.446 123.41C122.679 123.41 121.848 123.367 120.953 123.282C116.254 122.813 107.827 117.028 107.465 116.783C107.284 116.655 107.23 116.399 107.358 116.218C107.486 116.037 107.742 115.984 107.923 116.112C108.008 116.176 116.531 122.025 121.027 122.472C129.444 123.314 131.83 119.564 131.851 119.521C131.969 119.329 132.224 119.265 132.416 119.382C132.608 119.5 132.672 119.745 132.555 119.936C132.469 120.096 130.413 123.41 123.446 123.41Z" fill="#750021"/>
<path d="M99.4852 163.266C99.3574 163.266 99.2402 163.212 99.155 163.106C99.0165 162.925 99.0484 162.669 99.2296 162.531C108.434 155.52 126.514 151.344 126.695 151.301C126.919 151.248 127.132 151.387 127.185 151.61C127.239 151.834 127.1 152.047 126.876 152.1C126.695 152.143 108.797 156.287 99.7303 163.191C99.6557 163.244 99.5705 163.266 99.4852 163.266Z" fill="#750021"/>
<path d="M109.788 168.614C109.724 168.614 109.649 168.592 109.596 168.56C109.393 168.454 109.329 168.198 109.436 168.006C113.634 160.368 120.452 158.034 120.75 157.939C120.963 157.864 121.198 157.981 121.272 158.194C121.347 158.407 121.23 158.642 121.017 158.716C120.953 158.738 114.198 161.06 110.171 168.401C110.075 168.539 109.937 168.614 109.788 168.614Z" fill="#750021"/>
<path d="M87.8618 184.083C87.6594 184.083 87.4783 183.934 87.457 183.721C85.3049 166.43 86.4981 149.639 87.8725 138.602C89.364 126.638 91.3882 118.658 91.4095 118.573C91.4628 118.349 91.6865 118.221 91.9103 118.274C92.134 118.328 92.2618 118.551 92.2086 118.775C92.1873 118.85 90.1737 126.797 88.6928 138.719C87.3291 149.714 86.1465 166.419 88.2773 183.625C88.3093 183.849 88.1495 184.051 87.9257 184.083C87.8938 184.083 87.8831 184.083 87.8618 184.083Z" fill="#750021"/>
<path d="M99.1613 109.052C109.939 113.216 89.3099 145.263 89.3099 145.263L120.549 157.125C120.549 157.125 126.042 156.352 129.239 159.142L127.191 159.69C126.504 159.875 126.283 160.736 126.787 161.233L131.832 166.054L132.832 167.054C133.405 167.27 133.5 167.454 133.5 167.954C133.333 168.054 133.623 168.554 132.833 168.554L131.175 167.954L127.582 165.951L129.832 168.554L130.332 169.054C131.332 169.554 131.252 169.434 131.439 170.048C131.52 170.315 131.414 170.604 131.175 170.748C130.513 171.139 126.411 167.68 125.832 167.054C125.063 167.993 130.381 173.054 128.332 173.054C127.474 172.054 122.564 167.708 122.564 167.708L123.832 170.054L124.916 171.779C125.248 171.961 125.445 172.319 125.424 172.695C125.41 172.945 125.153 173.107 124.925 173.008L123.332 171.779C122.727 171.518 122.158 170.336 121.832 169.766L117.488 164.085C105.791 163.912 94.0135 161.445 82.1804 157.569C76.4418 155.687 73.1677 149.673 74.706 143.832C78.5729 129.158 87.0199 104.36 99.1613 109.052Z" fill="#C1725C"/>
<path d="M116.254 66.9762C116.254 66.9762 116.957 57.0681 110.768 56.088C104.578 55.1185 104.887 62.4803 104.887 62.4803C104.887 62.4803 101.563 59.9447 101.914 64.675C102.266 69.4053 111.087 69.9273 111.087 69.9273L116.254 66.9762Z" fill="#2B2B39"/>
<path d="M116.169 64.7178C116.169 64.7178 110.768 65.357 108.488 69.6185C108.488 69.6185 109.095 70.6733 110.821 71.1633C110.821 71.1633 112.621 68.2655 116.894 66.9657C116.883 66.9764 116.691 65.5914 116.169 64.7178Z" fill="#6059C9"/>
<path d="M132.555 86.4834C132.555 86.4834 134.036 86.7604 134.132 88.6887C134.238 90.6171 132.97 93.7067 131.074 93.1314C129.199 92.5454 132.555 86.4834 132.555 86.4834Z" fill="#AF4E4A"/>
<path d="M129.114 93.4298C129.327 91.9915 130.659 90.9901 132.108 91.1925C133.546 91.4056 134.547 92.7373 134.345 94.1862C134.132 95.6245 132.8 96.626 131.351 96.4235C129.902 96.2105 128.901 94.8681 129.114 93.4298ZM129.881 93.5364C129.732 94.5591 130.446 95.5073 131.458 95.6565C132.48 95.8056 133.429 95.0918 133.578 94.0797C133.727 93.0569 133.013 92.1087 132.001 91.9596C130.968 91.8104 130.019 92.5242 129.881 93.5364Z" fill="#F0C86A"/>
<path d="M109.553 104.488C109.553 104.488 111.673 109.645 117.171 110.998C124.149 112.713 125.257 109.741 125.257 109.741C125.055 108.75 124.969 107.78 124.98 106.747C124.991 106.353 125.001 105.958 125.044 105.543C125.14 104.424 125.332 103.199 125.619 101.803C125.683 101.473 125.758 101.132 125.832 100.781L125.843 100.738C121.049 99.0974 117.256 96.5192 114.869 92.6305L114.177 92.1192L113.708 91.7676L113.591 92.0446V92.9608C113.634 97.3182 112.313 100.781 109.553 104.488Z" fill="#C1725C"/>
<path d="M117.895 96.7539C118.705 99.1936 120.697 103.572 125.044 105.554C125.14 104.435 125.332 103.21 125.619 101.814C125.683 101.484 125.758 101.143 125.832 100.792C125.736 100.792 125.63 100.792 125.534 100.792C122.86 100.706 120.09 99.0445 117.895 96.7539Z" fill="#2B2B39"/>
<path d="M108.445 84.1502C108.019 86.7923 109.724 90.3933 113.165 91.0432H113.186L113.261 91.0539C113.293 91.2137 113.335 91.3735 113.378 91.5333C113.399 91.6079 113.421 91.6718 113.431 91.7464C113.431 91.757 113.431 91.757 113.442 91.7677C114.859 96.6045 120.825 100.28 124.266 100.941C125.491 101.175 126.376 101.026 126.642 101.015C130.435 100.813 131.926 95.9759 131.969 92.0979C131.969 91.5333 131.948 90.9899 131.894 90.4892C131.894 90.4572 131.884 90.4146 131.884 90.3827C131.884 90.3827 133.972 85.2901 134.632 83.0209C135.911 78.6315 134.089 73.6668 124.415 71.1738C114.742 68.6808 111.396 74.3912 110.182 77.5128C109.979 78.0349 109.564 81.263 110.022 81.8596C109.01 82.2005 108.594 83.2552 108.445 84.1502Z" fill="#C1725C"/>
<path d="M113.825 89.0299C113.687 88.9873 113.58 88.8488 113.58 88.6997C113.506 86.1427 110.715 84.5766 110.693 84.566C110.523 84.4701 110.459 84.2464 110.555 84.0759C110.651 83.9054 110.874 83.8415 111.045 83.9267C111.173 84.0013 114.23 85.6953 114.305 88.6784C114.316 88.8808 114.156 89.0406 113.953 89.0512C113.911 89.0512 113.868 89.0512 113.825 89.0299Z" fill="#AF4E4A"/>
<path d="M110.949 87.1439C110.906 87.1332 110.864 87.1119 110.832 87.08C110.682 86.9521 110.661 86.7177 110.789 86.5686C110.821 86.526 111.673 85.5565 113.112 85.8548C113.303 85.8974 113.431 86.0891 113.389 86.2809C113.346 86.4727 113.154 86.6005 112.962 86.5579C111.94 86.3448 111.332 87.0267 111.332 87.0373C111.247 87.1545 111.087 87.1865 110.949 87.1439Z" fill="#AF4E4A"/>
<g opacity="0.5">
<path d="M130.083 91.0218C130.03 91.416 130.84 91.8635 131.969 92.1085C131.969 91.5438 131.948 91.0005 131.894 90.4998C130.893 90.4571 130.137 90.6596 130.083 91.0218Z" fill="#AF4E4A"/>
</g>
<g opacity="0.5">
<path d="M123.978 90.0738C123.915 90.5212 122.743 90.7237 121.368 90.5212C119.994 90.3188 118.929 89.7968 118.992 89.3493C119.056 88.9019 120.228 88.6994 121.603 88.9019C122.977 89.1043 124.042 89.6263 123.978 90.0738Z" fill="#AF4E4A"/>
</g>
<path d="M113.165 91.0432H113.186L113.261 91.0539C113.293 91.2137 113.335 91.3735 113.378 91.5333C113.399 91.6079 113.42 91.6718 113.431 91.7464C113.431 91.757 113.431 91.757 113.442 91.7677C113.847 91.7677 114.369 91.7038 114.859 91.4587C115.146 91.3096 115.434 91.1071 115.69 90.8088C115.818 90.6597 115.796 90.4253 115.647 90.2974C115.498 90.1696 115.264 90.1803 115.136 90.3401C114.859 90.6703 114.507 90.8514 114.166 90.9473C113.932 91.0113 113.708 91.0326 113.516 91.0432C113.378 91.0539 113.261 91.0432 113.165 91.0432Z" fill="#AF4E4A"/>
<path d="M114.049 91.0967C113.793 91.1394 113.506 91.118 113.271 91.0967C113.271 91.1074 113.271 91.118 113.271 91.1394C113.122 92.1621 112.174 92.8653 111.151 92.7161C110.128 92.567 109.425 91.6188 109.574 90.596C109.702 89.6798 110.491 89.0086 111.396 88.9979C111.663 88.7635 111.705 88.5079 111.503 88.2309C110.182 88.1882 108.999 89.1471 108.807 90.4895C108.594 91.9277 109.596 93.2701 111.045 93.4832C112.483 93.6963 113.825 92.6948 114.038 91.2459C114.038 91.2033 114.049 91.15 114.049 91.0967Z" fill="#F0C86A"/>
<path d="M123.936 92.0127C123.936 92.0127 123.648 95.1343 126.226 95.6776C128.805 96.221 129.455 93.7067 129.455 93.7067L123.936 92.0127Z" fill="white"/>
<path d="M125.534 96.7643C125.044 96.5832 124.82 96.189 124.809 96.1677C124.746 96.0505 124.788 95.912 124.905 95.8481C125.023 95.7841 125.161 95.8267 125.225 95.9439C125.236 95.9652 125.523 96.4553 126.216 96.3701C126.344 96.3488 126.461 96.4447 126.482 96.5725C126.503 96.7004 126.408 96.8176 126.28 96.8389C125.981 96.8708 125.736 96.8389 125.534 96.7643Z" fill="#AF4E4A"/>
<path d="M125.63 87.8364C125.47 87.8151 125.342 87.6873 125.321 87.5275C125.268 87.1652 125.023 86.3875 124.628 86.2597C124.064 86.0786 123.339 86.5047 123.329 86.5154C123.158 86.6219 122.934 86.5686 122.828 86.3982C122.721 86.2277 122.775 86.004 122.945 85.8974C122.988 85.8761 123.957 85.2902 124.841 85.5778C125.779 85.8761 126.013 87.2718 126.035 87.4316C126.067 87.634 125.928 87.8151 125.726 87.8471C125.704 87.8471 125.662 87.8471 125.63 87.8364Z" fill="#2B2B39"/>
<path d="M129.433 88.6354C129.401 88.6354 129.369 88.6247 129.327 88.6034C129.146 88.5182 129.06 88.3051 129.146 88.1134C129.199 87.9962 129.71 86.9627 130.52 86.9414C131.276 86.9201 131.862 87.5594 131.926 87.6339C132.065 87.7831 132.054 88.0175 131.894 88.156C131.745 88.2945 131.511 88.2838 131.383 88.124C131.266 87.9962 130.893 87.6659 130.531 87.6766C130.264 87.6872 129.923 88.1666 129.806 88.4223C129.742 88.5715 129.582 88.6567 129.433 88.6354Z" fill="#2B2B39"/>
<path d="M113.847 72.4417C116.319 70.6092 119.536 69.3308 123.03 70.1192C127.931 71.2165 132.225 73.6882 134.324 76.7885C135.336 78.28 135.836 79.8994 135.645 81.5933C135.069 86.7818 134.132 85.5992 134.132 85.5992C134.132 85.5992 134.185 85.482 134.206 84.3633C134.228 83.6922 134.228 82.6481 134.206 81.05C134.153 77.2359 122.434 74.8921 122.807 77.4064C122.807 77.4064 122.796 77.7153 122.69 78.1628C122.572 78.6529 122.349 79.3028 121.901 79.942C121.805 79.942 121.709 79.942 121.624 79.942C120.41 79.9633 119.376 80.1444 118.513 80.4214C118.396 80.4747 116.404 81.4868 116.35 83.4045C116.297 85.3755 116.596 88.0176 115.36 87.3251C114.124 86.6326 113.943 84.9919 113.943 84.9919C113.389 84.0118 112.664 83.0103 111.45 82.3817C111.556 78.9192 111.993 75.4354 113.847 72.4417Z" fill="#2B2B39"/>
<path d="M112.803 74.53C116.531 73.8907 121.784 77.4278 122.689 78.1629C122.572 78.653 122.348 79.3029 121.901 79.9421C121.805 79.9421 121.709 79.9421 121.624 79.9421C120.409 79.9634 119.376 80.1446 118.513 80.4216C118.396 80.4748 116.404 81.4869 116.35 83.4046C116.297 85.3756 115.935 96.5302 114.55 96.7965C110.906 97.4784 113.421 84.8962 113.421 84.8962C112.867 83.916 112.664 83.0104 111.45 82.3819C110.544 79.4307 111.45 76.9058 112.803 74.53Z" fill="#2B2B39"/>
<path d="M113.623 74.4552C113.623 74.4552 110.992 77.1826 111.439 82.3816C111.439 82.3816 109.798 81.6785 108.946 81.8383C108.094 81.9981 107.721 78.8978 108.989 76.2983C110.246 73.6988 114.656 70.9927 114.656 70.9927C114.656 70.9927 114.497 73.6774 113.623 74.4552Z" fill="#2B2B39"/>
<path d="M127.569 91.8847C127.622 91.8954 127.686 91.8954 127.739 91.8741L129.209 91.3094C129.305 91.2668 129.38 91.1816 129.401 91.075C129.423 90.9685 129.38 90.862 129.295 90.798C128.336 89.999 127.856 88.9336 127.771 87.4421C127.761 87.2716 127.622 87.1438 127.452 87.1544C127.281 87.1651 127.153 87.3036 127.164 87.474C127.239 88.9443 127.675 90.0629 128.538 90.9259L127.516 91.3201C127.356 91.384 127.281 91.5545 127.345 91.7143C127.388 91.7995 127.473 91.8634 127.569 91.8847Z" fill="#AF4E4A"/>
<path d="M122.881 90.9049C120.932 90.4787 119.696 88.5504 120.122 86.6007C120.548 84.6511 122.476 83.4152 124.426 83.8414C126.376 84.2675 127.612 86.1959 127.185 88.1455C126.759 90.0952 124.831 91.331 122.881 90.9049ZM124.309 84.3954C122.668 84.0332 121.038 85.0772 120.687 86.7179C120.324 88.3586 121.368 89.9887 123.009 90.3402C124.65 90.7025 126.28 89.6584 126.631 88.0177C126.994 86.3877 125.95 84.7576 124.309 84.3954Z" fill="white"/>
<path d="M131.255 92.7374C129.305 92.3113 128.07 90.3829 128.496 88.4333C128.922 86.4836 130.85 85.2478 132.8 85.6739C134.749 86.1001 135.985 88.0284 135.559 89.9781C135.133 91.9171 133.205 93.1529 131.255 92.7374ZM132.683 86.2279C131.042 85.8657 129.412 86.9098 129.06 88.5505C128.698 90.1911 129.742 91.8212 131.383 92.1728C133.024 92.535 134.654 91.4909 135.005 89.8502C135.367 88.2095 134.323 86.5795 132.683 86.2279Z" fill="white"/>
<path d="M113.112 84.342L112.888 83.8732C113.048 83.7986 117.203 81.9235 121.39 84.6296L121.081 85.109C117.149 82.5841 113.144 84.3206 113.112 84.342Z" fill="white"/>
<path d="M127.068 88.0708L126.834 87.5594C127.292 87.3463 128.357 87.1759 129.05 88.0495L128.602 88.4011C128.016 87.6553 127.111 88.0602 127.068 88.0708Z" fill="white"/>
<path d="M126.056 82.8397C126.823 83.0954 127.388 82.0939 126.77 81.5825C126.44 81.3162 125.982 81.1138 125.342 81.1138C122.562 81.1351 121.134 83.3191 121.134 83.3191C121.134 83.3191 123.84 82.4775 125.246 82.6586C125.577 82.7012 125.832 82.7651 126.056 82.8397Z" fill="#2B2B39"/>
<path d="M130.232 83.82C129.423 83.756 129.284 82.6161 130.062 82.3817C130.467 82.2645 130.967 82.2538 131.553 82.5095C134.1 83.6069 133.897 85.5459 133.897 85.5459C133.897 85.5459 132.416 84.3527 131.053 83.9691C130.733 83.8732 130.467 83.8413 130.232 83.82Z" fill="#2B2B39"/>
<path d="M186.008 112.99H167.854C166.831 112.99 166 112.159 166 111.137V92.9612C166 91.9384 166.831 91.1074 167.854 91.1074H186.019C187.041 91.1074 187.872 91.9384 187.872 92.9612V111.126C187.872 112.159 187.041 112.99 186.008 112.99Z" fill="#E88800"/>
<path d="M180.415 112.607L183.195 119.234C183.334 119.553 183.802 119.521 183.888 119.18L185.358 112.607H180.415Z" fill="#E88800"/>
<path d="M176.931 109.326C172.925 109.326 169.654 106.066 169.654 102.049C169.654 98.0432 172.914 94.7725 176.931 94.7725C180.947 94.7725 184.207 98.0325 184.207 102.049C184.207 106.066 180.937 109.326 176.931 109.326ZM176.931 95.7739C173.468 95.7739 170.656 98.5865 170.656 102.049C170.656 105.512 173.468 108.324 176.931 108.324C180.393 108.324 183.206 105.512 183.206 102.049C183.206 98.5865 180.393 95.7739 176.931 95.7739Z" fill="white"/>
<path d="M176.931 102.55C176.814 102.55 176.697 102.507 176.601 102.422C176.494 102.326 176.43 102.188 176.43 102.049V97.2336C176.43 96.9566 176.654 96.7329 176.931 96.7329C177.208 96.7329 177.432 96.9566 177.432 97.2336V101.495L180.99 101.069C181.256 101.037 181.512 101.229 181.544 101.506C181.576 101.783 181.384 102.028 181.107 102.06L176.995 102.55C176.974 102.55 176.952 102.55 176.931 102.55Z" fill="white"/>
<path d="M292.264 303.758L292.157 304.506L292.039 305.393L291.89 306.451L291.291 310.854L291.227 311.334L290.608 315.951L290.533 316.442L288.043 334.736L287.979 335.228L286.697 344.663H260.175L259.811 341.981L259.747 341.5L259.544 340.058L259.48 339.588L258.379 331.456L258.305 330.889L255.826 312.681L255.74 312.115L255.291 308.823L254.607 303.758H292.264Z" fill="#0515F6"/>
<path d="M263.103 323.88C262.632 326.925 260.88 329.703 258.379 331.456L258.305 330.889C261.436 328.581 263.273 324.51 262.59 320.621C261.948 316.987 259.213 313.974 255.826 312.681L255.751 312.104C256.809 312.478 257.802 313.002 258.721 313.675C261.895 316.047 263.712 319.915 263.103 323.88Z" fill="#FFCE8A"/>
<path d="M291.291 310.854L291.227 311.324C288.022 310.982 285.03 311.986 282.38 313.792C280.114 315.342 277.817 317.244 274.921 317.244C272.452 317.244 269.995 315.919 268.723 313.792C267.355 311.516 267.419 308.588 268.766 306.323C268.926 306.045 269.375 306.301 269.204 306.579C267.409 309.603 268.178 313.664 271.17 315.609C273.81 317.34 276.791 316.838 279.355 315.245C281.792 313.739 283.908 311.858 286.75 311.142C288.267 310.768 289.806 310.683 291.291 310.854Z" fill="#FFCE8A"/>
<path d="M292.157 304.506L292.039 305.393C291.783 305.778 291.494 306.152 291.185 306.494C289.721 308.097 287.722 309.187 285.532 309.432C283.053 309.721 280.552 308.898 278.672 307.306C278.276 306.975 277.902 306.601 277.571 306.205C277.368 305.96 277.721 305.596 277.924 305.853C278.372 306.376 278.875 306.857 279.42 307.263C281.087 308.503 283.17 309.155 285.275 308.962C287.231 308.791 289.037 307.894 290.426 306.547C291.003 305.981 291.505 305.34 291.911 304.635C291.975 304.528 292.071 304.496 292.157 304.506Z" fill="#FFCE8A"/>
<path d="M290.608 315.951L290.543 316.442C289.582 316.474 288.641 316.773 287.84 317.361C286.259 318.526 285.489 320.62 285.917 322.533C286.259 324.05 287.199 325.418 287.22 327.01C287.242 328.293 286.654 329.479 285.81 330.43C283.63 332.888 280.221 333.39 277.678 335.324C275.06 337.311 274.173 341.126 275.776 344.043C275.893 344.268 276.032 344.482 276.182 344.674H275.573C275.445 344.482 275.338 344.289 275.231 344.086C273.82 341.287 274.419 337.621 276.727 335.473C279.462 332.92 283.886 332.663 286.002 329.361C287.242 327.427 286.451 325.664 285.746 323.719C285.19 322.18 285.115 320.61 285.82 319.103C286.718 317.126 288.62 316.015 290.608 315.951Z" fill="#FFCE8A"/>
<path d="M283.138 340.122C283.095 342.131 284.239 343.819 285.874 344.663H284.912C283.448 343.595 282.508 341.842 282.636 339.865C282.828 336.938 285.254 334.832 288.043 334.736L287.979 335.228C285.393 335.345 283.192 337.418 283.138 340.122Z" fill="#FFCE8A"/>
<path d="M281.204 324.628C280.958 326.829 278.875 328.111 277.272 329.329C275.167 330.932 273.115 332.695 271.576 334.864C269.589 337.664 268.52 341.458 269.525 344.663H269.001C268.125 341.65 268.894 338.166 270.582 335.441C271.854 333.39 273.596 331.659 275.455 330.131C276.363 329.383 277.314 328.688 278.255 327.972C279.366 327.117 280.51 326.07 280.691 324.606C281.087 321.379 276.919 320.877 274.643 321.026C272.314 321.176 269.877 321.977 268.477 323.944C267.142 325.824 266.875 328.239 266.468 330.441C266.03 332.781 265.336 335.164 263.883 337.087C262.814 338.487 261.243 339.598 259.555 340.068L259.491 339.598C260.271 339.395 261.019 339.043 261.692 338.562C264.096 336.831 265.218 333.935 265.817 331.135C266.276 329.009 266.458 326.775 267.409 324.788C268.274 322.961 269.813 321.7 271.715 321.058C273.681 320.396 276.139 320.204 278.137 320.77C279.858 321.262 281.418 322.704 281.204 324.628Z" fill="#FFCE8A"/>
<path d="M264.972 344.664H264.46C264.256 343.777 263.829 342.954 263.028 342.42C261.991 341.736 260.869 341.672 259.822 341.981L259.758 341.501C261.083 341.105 262.493 341.255 263.712 342.302C264.417 342.932 264.791 343.766 264.972 344.664Z" fill="#FFCE8A"/>
<path d="M292.264 303.758L292.157 304.506L292.039 305.393L291.89 306.451L291.185 306.494L290.426 306.537L279.43 307.253L278.672 307.306L255.291 308.823L254.607 303.758H292.264Z" fill="#8C5200"/>
<path d="M295.619 303.983C280.83 305.244 266.041 305.244 251.252 303.983V299.954H295.619V303.983Z" fill="#0515F6"/>
<path d="M285.521 252.467C284.132 254.134 283.138 260.278 280.488 261.261C278.661 261.945 277.699 259.306 281.236 255.983C283.512 253.835 284.527 251.281 284.955 249.721C284.335 247.007 283.512 244.218 282.465 241.685C280.424 243.566 277.154 246.248 276.225 244.966C275.21 243.576 278.255 239.185 279.954 236.941C279.163 235.787 278.287 234.793 277.315 233.991C275.722 232.688 273.874 231.94 271.726 232.004C270.177 232.047 268.755 232.602 267.473 233.553C269.29 237.154 271.972 243.234 270.091 244.634C268.349 245.938 265.817 240.894 264.235 237.133C262.013 240.574 260.517 245.286 259.865 249.828C260.303 250.64 261.051 251.591 262.355 252.52C265.806 254.999 269.899 260 267.847 261.122C265.795 262.234 263.658 259.295 262.141 256.666C261.361 255.32 260.485 254.23 259.523 253.514C259.491 254.305 259.491 255.085 259.512 255.833C260.057 270.13 274.013 270.13 274.013 270.13C274.013 270.13 287.979 266.925 285.521 252.467ZM267.943 252.755C266.565 252.745 264.364 250.159 263.327 248.727C262.29 247.284 263.124 246.312 264.107 246.579C264.118 246.579 264.139 246.59 264.15 246.59C265.55 247.007 269.738 252.766 267.943 252.755ZM280.125 249.325C280.136 249.325 280.157 249.315 280.168 249.315C281.161 249.037 281.974 249.699 281.503 250.96C280.894 252.617 280.082 253.268 278.843 252.649C278.063 252.264 278.736 249.742 280.125 249.325Z" fill="#467B6C"/>
<path d="M272.506 248.887C273.735 255.149 273.339 261.603 272.869 267.919C272.367 274.661 271.694 281.425 271.961 288.2C272.111 292.047 272.57 295.872 273.489 299.612C273.564 299.933 274.055 299.794 273.981 299.473C270.668 286.052 273.724 272.396 273.82 258.836C273.842 255.459 273.649 252.072 272.997 248.748C272.933 248.428 272.442 248.567 272.506 248.887Z" fill="#8C5200"/>
<path d="M266.233 270.205C266.095 272.364 268.916 277.92 267.355 280.282C266.287 281.906 263.947 280.346 264.844 275.58C265.421 272.503 264.727 269.842 264.16 268.325C262.055 266.497 259.758 264.734 257.407 263.302C256.873 266.027 255.804 270.12 254.297 269.639C252.652 269.115 252.524 263.772 252.577 260.951C251.263 260.492 249.959 260.193 248.698 260.129C246.647 260.022 244.712 260.503 243.003 261.817C241.774 262.768 240.962 264.05 240.492 265.578C244.082 267.416 249.842 270.75 249.147 272.984C248.506 275.057 243.494 272.481 240 270.376C240.224 274.469 241.795 279.149 243.954 283.21C244.787 283.616 245.952 283.926 247.555 283.915C251.797 283.883 258.059 285.507 257.065 287.623C256.071 289.728 252.609 288.617 249.831 287.399C248.399 286.768 247.053 286.416 245.856 286.394C246.294 287.057 246.753 287.687 247.224 288.275C256.093 299.506 267.366 291.267 267.366 291.267C267.366 291.267 276.748 280.421 266.233 270.205ZM252.203 280.795C251.081 281.596 247.779 280.806 246.102 280.261C244.413 279.705 244.509 278.433 245.471 278.07C245.482 278.07 245.492 278.059 245.514 278.059C246.882 277.578 253.667 279.758 252.203 280.795ZM260.025 270.846C260.036 270.836 260.046 270.825 260.046 270.814C260.688 270.002 261.735 270.066 262.098 271.359C262.579 273.058 262.312 274.063 260.944 274.298C260.1 274.437 259.149 272.011 260.025 270.846Z" fill="#467B6C"/>
<path d="M253.592 274.971C256.873 277.984 260.121 281.115 262.771 284.716C264.802 287.473 266.362 290.497 267.783 293.607C268.787 295.808 269.738 298.031 270.721 300.243C270.85 300.542 271.288 300.286 271.16 299.986C269.546 296.353 268.05 292.656 266.169 289.151C264.481 286.009 262.365 283.156 259.961 280.528C258.059 278.455 256.029 276.51 253.956 274.608C253.71 274.394 253.347 274.747 253.592 274.971Z" fill="#8C5200"/>
<path d="M278.372 293.842C278.372 293.842 289.582 302.155 298.536 290.989C299.007 290.401 299.466 289.781 299.915 289.119C298.718 289.129 297.372 289.482 295.94 290.091C293.151 291.288 289.689 292.378 288.706 290.273C287.722 288.157 293.995 286.576 298.237 286.64C299.84 286.661 301.005 286.351 301.849 285.956C304.04 281.917 305.642 277.236 305.899 273.154C302.394 275.238 297.361 277.781 296.73 275.698C296.057 273.454 301.828 270.162 305.439 268.356C304.98 266.828 304.168 265.535 302.95 264.584C301.261 263.259 299.327 262.757 297.265 262.853C296.004 262.907 294.7 263.195 293.386 263.644C293.418 266.465 293.247 271.797 291.601 272.321C290.095 272.791 289.058 268.698 288.535 265.963C286.184 267.373 283.865 269.126 281.749 270.932C281.172 272.438 280.456 275.099 281.012 278.177C281.867 282.953 279.526 284.492 278.469 282.868C276.93 280.495 279.783 274.96 279.655 272.802C269.054 282.932 278.372 293.842 278.372 293.842ZM300.3 280.784C300.31 280.795 300.332 280.795 300.342 280.795C301.304 281.158 301.389 282.44 299.701 282.985C298.023 283.53 294.711 284.289 293.6 283.477C292.146 282.419 298.932 280.292 300.3 280.784ZM284.891 276.905C283.523 276.67 283.266 275.655 283.758 273.966C284.132 272.673 285.179 272.631 285.81 273.443C285.82 273.454 285.831 273.464 285.831 273.475C286.718 274.64 285.746 277.055 284.891 276.905Z" fill="#467B6C"/>
<path d="M291.89 277.279C285.115 284.075 279.73 291.961 274.526 299.986C274.344 300.264 274.782 300.521 274.964 300.243C280.146 292.261 285.5 284.407 292.253 277.643C292.488 277.407 292.125 277.044 291.89 277.279Z" fill="#8C5200"/>
<path d="M295.619 299.954C295.619 300.36 285.692 300.691 273.436 300.691C261.19 300.691 251.252 300.36 251.252 299.954C251.252 299.548 261.179 299.217 273.436 299.217C285.681 299.217 295.619 299.548 295.619 299.954Z" fill="#8C5200"/>
</g>
<defs>
<clipPath id="clip0_116_6729">
<rect width="375" height="360" fill="white"/>
</clipPath>
</defs>
</svg>
